%TF.GenerationSoftware,KiCad,Pcbnew,8.0.8*%
%TF.CreationDate,2025-07-30T23:02:56+05:30*%
%TF.ProjectId,THRUST FC,54485255-5354-4204-9643-2e6b69636164,rev?*%
%TF.SameCoordinates,Original*%
%TF.FileFunction,Legend,Bot*%
%TF.FilePolarity,Positive*%
%FSLAX46Y46*%
G04 Gerber Fmt 4.6, Leading zero omitted, Abs format (unit mm)*
G04 Created by KiCad (PCBNEW 8.0.8) date 2025-07-30 23:02:56*
%MOMM*%
%LPD*%
G01*
G04 APERTURE LIST*
%ADD10C,0.100000*%
%ADD11C,0.200000*%
G04 APERTURE END LIST*
D10*
G36*
X129109002Y-97659162D02*
G01*
X129109002Y-97815478D01*
X129390369Y-97815478D01*
X129390369Y-99753789D01*
X129109002Y-99753789D01*
X129109002Y-99910104D01*
X129765526Y-99910104D01*
X129765526Y-97659162D01*
X129109002Y-97659162D01*
G37*
G36*
X128880390Y-99660000D02*
G01*
X128880390Y-97659162D01*
X127614235Y-97659162D01*
X127614235Y-97944926D01*
X128451744Y-97944926D01*
X128451744Y-98530132D01*
X127708025Y-98530132D01*
X127708025Y-98815896D01*
X128451744Y-98815896D01*
X128451744Y-99660000D01*
X128880390Y-99660000D01*
G37*
G36*
X126715123Y-97660656D02*
G01*
X126861723Y-97685540D01*
X126969514Y-97717557D01*
X127093265Y-97774933D01*
X127188886Y-97843810D01*
X127263258Y-97928318D01*
X127274651Y-97945873D01*
X127314804Y-98040992D01*
X127327006Y-98140809D01*
X127327006Y-99190076D01*
X127326757Y-99205628D01*
X127311069Y-99306580D01*
X127263258Y-99405010D01*
X127194157Y-99482054D01*
X127093265Y-99553021D01*
X126998457Y-99600986D01*
X126861723Y-99645345D01*
X126747821Y-99666048D01*
X126600139Y-99675631D01*
X126485295Y-99669834D01*
X126339288Y-99645345D01*
X126222692Y-99609732D01*
X126102616Y-99553021D01*
X126015505Y-99491304D01*
X125937020Y-99405010D01*
X125925627Y-99387931D01*
X125885474Y-99293006D01*
X125873272Y-99190076D01*
X125873272Y-98141786D01*
X126301919Y-98141786D01*
X126301919Y-99189099D01*
X126312395Y-99253553D01*
X126390579Y-99341018D01*
X126455256Y-99368830D01*
X126599406Y-99389867D01*
X126672207Y-99385097D01*
X126809699Y-99341018D01*
X126870307Y-99287897D01*
X126898360Y-99189099D01*
X126898360Y-98141786D01*
X126887883Y-98077054D01*
X126809699Y-97989378D01*
X126744849Y-97961567D01*
X126599406Y-97940530D01*
X126527379Y-97945300D01*
X126390579Y-97989378D01*
X126329971Y-98042593D01*
X126301919Y-98141786D01*
X125873272Y-98141786D01*
X125873272Y-98140809D01*
X125873521Y-98125897D01*
X125889209Y-98027602D01*
X125937020Y-97928318D01*
X126005155Y-97848633D01*
X126102616Y-97774933D01*
X126200570Y-97728731D01*
X126339288Y-97685540D01*
X126452689Y-97664503D01*
X126600139Y-97654766D01*
X126715123Y-97660656D01*
G37*
G36*
X125539148Y-99660000D02*
G01*
X125110502Y-99660000D01*
X125110502Y-98815896D01*
X124850383Y-98815896D01*
X124446650Y-99660000D01*
X123993091Y-99660000D01*
X124455443Y-98757766D01*
X124360234Y-98716398D01*
X124246443Y-98643010D01*
X124167480Y-98556022D01*
X124120757Y-98463757D01*
X124093429Y-98358908D01*
X124085599Y-98255115D01*
X124514061Y-98255115D01*
X124514692Y-98287375D01*
X124527250Y-98388471D01*
X124573412Y-98484703D01*
X124680390Y-98544787D01*
X124717393Y-98553976D01*
X124863572Y-98565792D01*
X125110502Y-98565792D01*
X125110502Y-97944926D01*
X124884089Y-97944926D01*
X124843173Y-97945617D01*
X124695045Y-97964588D01*
X124577808Y-98023572D01*
X124573146Y-98028826D01*
X124527250Y-98122735D01*
X124520874Y-98156313D01*
X124514061Y-98255115D01*
X124085599Y-98255115D01*
X124085415Y-98252672D01*
X124092099Y-98146605D01*
X124121809Y-98021412D01*
X124175287Y-97914766D01*
X124252533Y-97826666D01*
X124382513Y-97742624D01*
X124513237Y-97696256D01*
X124667728Y-97668436D01*
X124845987Y-97659162D01*
X125539148Y-97659162D01*
X125539148Y-99660000D01*
G37*
G36*
X122650000Y-99660000D02*
G01*
X122650000Y-97944926D01*
X123159246Y-97944926D01*
X123159246Y-97659162D01*
X121752407Y-97659162D01*
X121752407Y-97944926D01*
X122221353Y-97944926D01*
X122221353Y-99660000D01*
X122650000Y-99660000D01*
G37*
G36*
X121579483Y-99660000D02*
G01*
X121579483Y-97659162D01*
X121150837Y-97659162D01*
X121150837Y-98534528D01*
X120641591Y-98534528D01*
X120641591Y-97659162D01*
X120212944Y-97659162D01*
X120212944Y-99660000D01*
X120641591Y-99660000D01*
X120641591Y-98784633D01*
X121150837Y-98784633D01*
X121150837Y-99660000D01*
X121579483Y-99660000D01*
G37*
G36*
X119791625Y-99660000D02*
G01*
X119362979Y-99660000D01*
X119362979Y-98815896D01*
X119102861Y-98815896D01*
X118699127Y-99660000D01*
X118245568Y-99660000D01*
X118707920Y-98757766D01*
X118612711Y-98716398D01*
X118498921Y-98643010D01*
X118419958Y-98556022D01*
X118373235Y-98463757D01*
X118345906Y-98358908D01*
X118338076Y-98255115D01*
X118766538Y-98255115D01*
X118767169Y-98287375D01*
X118779727Y-98388471D01*
X118825889Y-98484703D01*
X118932868Y-98544787D01*
X118969870Y-98553976D01*
X119116050Y-98565792D01*
X119362979Y-98565792D01*
X119362979Y-97944926D01*
X119136566Y-97944926D01*
X119095651Y-97945617D01*
X118947522Y-97964588D01*
X118830286Y-98023572D01*
X118825623Y-98028826D01*
X118779727Y-98122735D01*
X118773352Y-98156313D01*
X118766538Y-98255115D01*
X118338076Y-98255115D01*
X118337892Y-98252672D01*
X118344577Y-98146605D01*
X118374287Y-98021412D01*
X118427764Y-97914766D01*
X118505010Y-97826666D01*
X118634991Y-97742624D01*
X118765714Y-97696256D01*
X118920205Y-97668436D01*
X119098464Y-97659162D01*
X119791625Y-97659162D01*
X119791625Y-99660000D01*
G37*
G36*
X116637229Y-97659162D02*
G01*
X116637229Y-99209616D01*
X116651912Y-99309664D01*
X116689253Y-99390844D01*
X116761226Y-99477999D01*
X116835799Y-99537878D01*
X116952234Y-99602003D01*
X117055617Y-99639483D01*
X117200259Y-99668712D01*
X117320132Y-99675631D01*
X117473198Y-99664194D01*
X117583914Y-99639483D01*
X117712405Y-99589303D01*
X117800802Y-99537878D01*
X117894981Y-99459619D01*
X117950279Y-99390844D01*
X117993530Y-99292630D01*
X118003768Y-99209616D01*
X118003768Y-97659162D01*
X117575122Y-97659162D01*
X117575122Y-99182260D01*
X117554649Y-99279690D01*
X117502581Y-99339553D01*
X117373163Y-99386722D01*
X117320865Y-99389867D01*
X117177021Y-99361565D01*
X117138415Y-99339553D01*
X117074447Y-99248892D01*
X117065875Y-99182260D01*
X117065875Y-97659162D01*
X116637229Y-97659162D01*
G37*
G36*
X114849371Y-98244368D02*
G01*
X115278018Y-98244368D01*
X115278018Y-98180376D01*
X115298883Y-98078968D01*
X115343963Y-98011849D01*
X115461600Y-97950559D01*
X115565980Y-97940530D01*
X115701535Y-97963000D01*
X115785066Y-98018688D01*
X115829030Y-98101242D01*
X115840753Y-98196985D01*
X115834891Y-98295170D01*
X115804117Y-98365024D01*
X115732309Y-98418269D01*
X115604815Y-98462233D01*
X115286078Y-98548695D01*
X115153826Y-98591067D01*
X115061863Y-98634180D01*
X114961301Y-98708504D01*
X114927041Y-98747020D01*
X114880683Y-98842419D01*
X114866224Y-98898939D01*
X114852597Y-99002133D01*
X114849371Y-99092868D01*
X114855539Y-99191570D01*
X114875975Y-99291374D01*
X114886741Y-99325387D01*
X114931917Y-99419160D01*
X115007641Y-99508569D01*
X115116367Y-99582099D01*
X115237718Y-99631179D01*
X115384142Y-99663085D01*
X115533442Y-99674936D01*
X115583565Y-99675631D01*
X115732493Y-99666594D01*
X115871528Y-99639483D01*
X116002673Y-99592837D01*
X116100872Y-99538855D01*
X116196338Y-99459823D01*
X116253279Y-99389378D01*
X116297302Y-99294277D01*
X116309699Y-99203265D01*
X116309699Y-99097264D01*
X115881053Y-99097264D01*
X115881053Y-99186168D01*
X115851706Y-99282229D01*
X115812909Y-99327341D01*
X115683395Y-99382479D01*
X115583565Y-99389867D01*
X115436231Y-99374913D01*
X115416503Y-99368862D01*
X115323447Y-99309267D01*
X115284612Y-99215478D01*
X115278179Y-99114936D01*
X115278018Y-99094333D01*
X115282181Y-98996618D01*
X115286078Y-98966350D01*
X115318318Y-98885261D01*
X115393789Y-98834947D01*
X115518353Y-98792937D01*
X115816573Y-98709406D01*
X115953867Y-98663030D01*
X116073651Y-98602618D01*
X116165578Y-98525366D01*
X116177808Y-98510104D01*
X116229954Y-98417356D01*
X116258577Y-98320117D01*
X116269042Y-98222079D01*
X116269399Y-98198939D01*
X116259578Y-98096886D01*
X116230115Y-97999556D01*
X116224703Y-97986936D01*
X116167916Y-97893269D01*
X116088415Y-97813524D01*
X115983315Y-97744981D01*
X115868597Y-97698241D01*
X115721685Y-97665635D01*
X115572099Y-97654936D01*
X115549127Y-97654766D01*
X115399651Y-97664535D01*
X115263363Y-97693845D01*
X115135490Y-97742535D01*
X115039148Y-97797404D01*
X114947410Y-97875821D01*
X114880692Y-97970294D01*
X114851039Y-98072494D01*
X114849371Y-98104661D01*
X114849371Y-98244368D01*
G37*
G36*
X114191381Y-99660000D02*
G01*
X114191381Y-97944926D01*
X114700628Y-97944926D01*
X114700628Y-97659162D01*
X113293789Y-97659162D01*
X113293789Y-97944926D01*
X113762735Y-97944926D01*
X113762735Y-99660000D01*
X114191381Y-99660000D01*
G37*
G36*
X112341242Y-99660000D02*
G01*
X112341242Y-97659162D01*
X111933112Y-97659162D01*
X111382833Y-98718688D01*
X111374773Y-98718688D01*
X110828157Y-97659162D01*
X110411967Y-97659162D01*
X110411967Y-99660000D01*
X110840614Y-99660000D01*
X110840614Y-98443182D01*
X110848674Y-98443182D01*
X111273656Y-99302916D01*
X111488346Y-99302916D01*
X111912595Y-98443182D01*
X111912595Y-99660000D01*
X112341242Y-99660000D01*
G37*
G36*
X110008234Y-99660000D02*
G01*
X110008234Y-97659162D01*
X109579588Y-97659162D01*
X109579588Y-98572630D01*
X109571528Y-98572630D01*
X108945778Y-97659162D01*
X108517131Y-97659162D01*
X109101116Y-98460279D01*
X108407955Y-99660000D01*
X108861514Y-99660000D01*
X109348778Y-98771933D01*
X109579588Y-99061605D01*
X109579588Y-99660000D01*
X110008234Y-99660000D01*
G37*
G36*
X107751430Y-99660000D02*
G01*
X107751430Y-97962512D01*
X108173482Y-98173538D01*
X108173482Y-97869699D01*
X107751430Y-97659162D01*
X107322784Y-97659162D01*
X107322784Y-99660000D01*
X107751430Y-99660000D01*
G37*
G36*
X106798883Y-99910104D02*
G01*
X106798883Y-99753789D01*
X106517515Y-99753789D01*
X106517515Y-97815478D01*
X106798883Y-97815478D01*
X106798883Y-97659162D01*
X106142358Y-97659162D01*
X106142358Y-99910104D01*
X106798883Y-99910104D01*
G37*
X132410401Y-96205752D02*
X132648496Y-96205752D01*
X132648496Y-96205752D02*
X132648496Y-94777180D01*
X132648496Y-94777180D02*
X132410401Y-94777180D01*
X132077067Y-95824800D02*
X131934210Y-95872419D01*
X131934210Y-95872419D02*
X131696115Y-95872419D01*
X131696115Y-95872419D02*
X131600877Y-95824800D01*
X131600877Y-95824800D02*
X131553258Y-95777180D01*
X131553258Y-95777180D02*
X131505639Y-95681942D01*
X131505639Y-95681942D02*
X131505639Y-95586704D01*
X131505639Y-95586704D02*
X131553258Y-95491466D01*
X131553258Y-95491466D02*
X131600877Y-95443847D01*
X131600877Y-95443847D02*
X131696115Y-95396228D01*
X131696115Y-95396228D02*
X131886591Y-95348609D01*
X131886591Y-95348609D02*
X131981829Y-95300990D01*
X131981829Y-95300990D02*
X132029448Y-95253371D01*
X132029448Y-95253371D02*
X132077067Y-95158133D01*
X132077067Y-95158133D02*
X132077067Y-95062895D01*
X132077067Y-95062895D02*
X132029448Y-94967657D01*
X132029448Y-94967657D02*
X131981829Y-94920038D01*
X131981829Y-94920038D02*
X131886591Y-94872419D01*
X131886591Y-94872419D02*
X131648496Y-94872419D01*
X131648496Y-94872419D02*
X131505639Y-94920038D01*
X131219924Y-94872419D02*
X130648496Y-94872419D01*
X130934210Y-95872419D02*
X130934210Y-94872419D01*
X130315162Y-95872419D02*
X130315162Y-94872419D01*
X130315162Y-94872419D02*
X129981829Y-95586704D01*
X129981829Y-95586704D02*
X129648496Y-94872419D01*
X129648496Y-94872419D02*
X129648496Y-95872419D01*
X129267543Y-94872419D02*
X128648496Y-94872419D01*
X128648496Y-94872419D02*
X128981829Y-95253371D01*
X128981829Y-95253371D02*
X128838972Y-95253371D01*
X128838972Y-95253371D02*
X128743734Y-95300990D01*
X128743734Y-95300990D02*
X128696115Y-95348609D01*
X128696115Y-95348609D02*
X128648496Y-95443847D01*
X128648496Y-95443847D02*
X128648496Y-95681942D01*
X128648496Y-95681942D02*
X128696115Y-95777180D01*
X128696115Y-95777180D02*
X128743734Y-95824800D01*
X128743734Y-95824800D02*
X128838972Y-95872419D01*
X128838972Y-95872419D02*
X129124686Y-95872419D01*
X129124686Y-95872419D02*
X129219924Y-95824800D01*
X129219924Y-95824800D02*
X129267543Y-95777180D01*
X128267543Y-94967657D02*
X128219924Y-94920038D01*
X128219924Y-94920038D02*
X128124686Y-94872419D01*
X128124686Y-94872419D02*
X127886591Y-94872419D01*
X127886591Y-94872419D02*
X127791353Y-94920038D01*
X127791353Y-94920038D02*
X127743734Y-94967657D01*
X127743734Y-94967657D02*
X127696115Y-95062895D01*
X127696115Y-95062895D02*
X127696115Y-95158133D01*
X127696115Y-95158133D02*
X127743734Y-95300990D01*
X127743734Y-95300990D02*
X128315162Y-95872419D01*
X128315162Y-95872419D02*
X127696115Y-95872419D01*
X126934210Y-95348609D02*
X127267543Y-95348609D01*
X127267543Y-95872419D02*
X127267543Y-94872419D01*
X127267543Y-94872419D02*
X126791353Y-94872419D01*
X125981829Y-95205752D02*
X125981829Y-95872419D01*
X126219924Y-94824800D02*
X126458019Y-95539085D01*
X126458019Y-95539085D02*
X125838972Y-95539085D01*
X125267543Y-94872419D02*
X125172305Y-94872419D01*
X125172305Y-94872419D02*
X125077067Y-94920038D01*
X125077067Y-94920038D02*
X125029448Y-94967657D01*
X125029448Y-94967657D02*
X124981829Y-95062895D01*
X124981829Y-95062895D02*
X124934210Y-95253371D01*
X124934210Y-95253371D02*
X124934210Y-95491466D01*
X124934210Y-95491466D02*
X124981829Y-95681942D01*
X124981829Y-95681942D02*
X125029448Y-95777180D01*
X125029448Y-95777180D02*
X125077067Y-95824800D01*
X125077067Y-95824800D02*
X125172305Y-95872419D01*
X125172305Y-95872419D02*
X125267543Y-95872419D01*
X125267543Y-95872419D02*
X125362781Y-95824800D01*
X125362781Y-95824800D02*
X125410400Y-95777180D01*
X125410400Y-95777180D02*
X125458019Y-95681942D01*
X125458019Y-95681942D02*
X125505638Y-95491466D01*
X125505638Y-95491466D02*
X125505638Y-95253371D01*
X125505638Y-95253371D02*
X125458019Y-95062895D01*
X125458019Y-95062895D02*
X125410400Y-94967657D01*
X125410400Y-94967657D02*
X125362781Y-94920038D01*
X125362781Y-94920038D02*
X125267543Y-94872419D01*
X123981829Y-95872419D02*
X124553257Y-95872419D01*
X124267543Y-95872419D02*
X124267543Y-94872419D01*
X124267543Y-94872419D02*
X124362781Y-95015276D01*
X124362781Y-95015276D02*
X124458019Y-95110514D01*
X124458019Y-95110514D02*
X124553257Y-95158133D01*
X122981829Y-95777180D02*
X123029448Y-95824800D01*
X123029448Y-95824800D02*
X123172305Y-95872419D01*
X123172305Y-95872419D02*
X123267543Y-95872419D01*
X123267543Y-95872419D02*
X123410400Y-95824800D01*
X123410400Y-95824800D02*
X123505638Y-95729561D01*
X123505638Y-95729561D02*
X123553257Y-95634323D01*
X123553257Y-95634323D02*
X123600876Y-95443847D01*
X123600876Y-95443847D02*
X123600876Y-95300990D01*
X123600876Y-95300990D02*
X123553257Y-95110514D01*
X123553257Y-95110514D02*
X123505638Y-95015276D01*
X123505638Y-95015276D02*
X123410400Y-94920038D01*
X123410400Y-94920038D02*
X123267543Y-94872419D01*
X123267543Y-94872419D02*
X123172305Y-94872419D01*
X123172305Y-94872419D02*
X123029448Y-94920038D01*
X123029448Y-94920038D02*
X122981829Y-94967657D01*
X121981829Y-95777180D02*
X122029448Y-95824800D01*
X122029448Y-95824800D02*
X122172305Y-95872419D01*
X122172305Y-95872419D02*
X122267543Y-95872419D01*
X122267543Y-95872419D02*
X122410400Y-95824800D01*
X122410400Y-95824800D02*
X122505638Y-95729561D01*
X122505638Y-95729561D02*
X122553257Y-95634323D01*
X122553257Y-95634323D02*
X122600876Y-95443847D01*
X122600876Y-95443847D02*
X122600876Y-95300990D01*
X122600876Y-95300990D02*
X122553257Y-95110514D01*
X122553257Y-95110514D02*
X122505638Y-95015276D01*
X122505638Y-95015276D02*
X122410400Y-94920038D01*
X122410400Y-94920038D02*
X122267543Y-94872419D01*
X122267543Y-94872419D02*
X122172305Y-94872419D01*
X122172305Y-94872419D02*
X122029448Y-94920038D01*
X122029448Y-94920038D02*
X121981829Y-94967657D01*
X121553257Y-94872419D02*
X121553257Y-95681942D01*
X121553257Y-95681942D02*
X121505638Y-95777180D01*
X121505638Y-95777180D02*
X121458019Y-95824800D01*
X121458019Y-95824800D02*
X121362781Y-95872419D01*
X121362781Y-95872419D02*
X121172305Y-95872419D01*
X121172305Y-95872419D02*
X121077067Y-95824800D01*
X121077067Y-95824800D02*
X121029448Y-95777180D01*
X121029448Y-95777180D02*
X120981829Y-95681942D01*
X120981829Y-95681942D02*
X120981829Y-94872419D01*
X120077067Y-94872419D02*
X120267543Y-94872419D01*
X120267543Y-94872419D02*
X120362781Y-94920038D01*
X120362781Y-94920038D02*
X120410400Y-94967657D01*
X120410400Y-94967657D02*
X120505638Y-95110514D01*
X120505638Y-95110514D02*
X120553257Y-95300990D01*
X120553257Y-95300990D02*
X120553257Y-95681942D01*
X120553257Y-95681942D02*
X120505638Y-95777180D01*
X120505638Y-95777180D02*
X120458019Y-95824800D01*
X120458019Y-95824800D02*
X120362781Y-95872419D01*
X120362781Y-95872419D02*
X120172305Y-95872419D01*
X120172305Y-95872419D02*
X120077067Y-95824800D01*
X120077067Y-95824800D02*
X120029448Y-95777180D01*
X120029448Y-95777180D02*
X119981829Y-95681942D01*
X119981829Y-95681942D02*
X119981829Y-95443847D01*
X119981829Y-95443847D02*
X120029448Y-95348609D01*
X120029448Y-95348609D02*
X120077067Y-95300990D01*
X120077067Y-95300990D02*
X120172305Y-95253371D01*
X120172305Y-95253371D02*
X120362781Y-95253371D01*
X120362781Y-95253371D02*
X120458019Y-95300990D01*
X120458019Y-95300990D02*
X120505638Y-95348609D01*
X120505638Y-95348609D02*
X120553257Y-95443847D01*
X119648495Y-96205752D02*
X119410400Y-96205752D01*
X119410400Y-96205752D02*
X119410400Y-94777180D01*
X119410400Y-94777180D02*
X119648495Y-94777180D01*
G36*
X136874947Y-110830000D02*
G01*
X136483182Y-110830000D01*
X136378753Y-110826809D01*
X136273202Y-110815349D01*
X136182367Y-110795553D01*
X136097766Y-110763321D01*
X136073847Y-110750169D01*
X136021564Y-110708735D01*
X135986011Y-110658051D01*
X135968627Y-110606114D01*
X135963921Y-110555959D01*
X135963921Y-110093363D01*
X136249685Y-110093363D01*
X136249685Y-110564752D01*
X136257667Y-110610587D01*
X136298046Y-110657564D01*
X136363381Y-110679729D01*
X136462665Y-110687117D01*
X136589183Y-110687117D01*
X136589183Y-109972463D01*
X136462665Y-109972463D01*
X136382386Y-109976928D01*
X136295603Y-110004214D01*
X136261165Y-110042255D01*
X136249685Y-110093363D01*
X135963921Y-110093363D01*
X135963921Y-110087990D01*
X135968352Y-110043620D01*
X135988044Y-109990604D01*
X136029028Y-109939354D01*
X136089951Y-109896992D01*
X136160018Y-109867500D01*
X136256287Y-109844393D01*
X136357366Y-109832807D01*
X136457780Y-109829581D01*
X136874947Y-109829581D01*
X136874947Y-110830000D01*
G37*
G36*
X135323135Y-110119199D02*
G01*
X135421205Y-110126623D01*
X135517934Y-110146608D01*
X135523723Y-110148351D01*
X135600366Y-110178726D01*
X135661060Y-110219881D01*
X135676825Y-110236181D01*
X135703070Y-110283628D01*
X135709916Y-110311552D01*
X135714305Y-110362519D01*
X135714305Y-110594305D01*
X135712978Y-110622772D01*
X135703070Y-110672951D01*
X135696231Y-110690506D01*
X135661060Y-110736943D01*
X135657904Y-110739780D01*
X135595851Y-110780370D01*
X135517934Y-110810216D01*
X135487647Y-110818167D01*
X135392438Y-110833260D01*
X135290300Y-110837815D01*
X135208555Y-110834636D01*
X135114445Y-110821207D01*
X135058918Y-110806999D01*
X134980111Y-110775533D01*
X134959683Y-110764547D01*
X134906103Y-110723370D01*
X134874847Y-110675179D01*
X134865806Y-110625812D01*
X135151570Y-110625812D01*
X135183321Y-110671974D01*
X135195119Y-110679777D01*
X135290300Y-110694933D01*
X135298136Y-110694865D01*
X135391416Y-110677348D01*
X135398051Y-110673874D01*
X135428541Y-110626789D01*
X135428541Y-110533000D01*
X134865806Y-110533000D01*
X134865806Y-110342735D01*
X135151570Y-110342735D01*
X135151570Y-110423579D01*
X135428541Y-110423579D01*
X135428541Y-110342735D01*
X135427236Y-110328169D01*
X135391416Y-110281919D01*
X135384136Y-110278296D01*
X135290300Y-110261646D01*
X135278537Y-110261825D01*
X135189183Y-110281919D01*
X135171001Y-110294826D01*
X135151570Y-110342735D01*
X134865806Y-110342735D01*
X134865806Y-110338583D01*
X134866789Y-110321141D01*
X134881536Y-110272191D01*
X134918678Y-110223738D01*
X134977669Y-110181535D01*
X135026865Y-110159817D01*
X135112979Y-110135617D01*
X135191597Y-110123521D01*
X135290300Y-110118764D01*
X135323135Y-110119199D01*
G37*
G36*
X134151639Y-110330767D02*
G01*
X134180063Y-110283590D01*
X134188764Y-110278988D01*
X134273272Y-110261646D01*
X134361688Y-110282896D01*
X134392921Y-110329552D01*
X134392951Y-110331256D01*
X134373412Y-110368625D01*
X134293216Y-110398064D01*
X134274249Y-110401842D01*
X134109630Y-110434815D01*
X134021168Y-110455585D01*
X133940201Y-110486176D01*
X133893719Y-110516392D01*
X133853314Y-110563569D01*
X133835536Y-110614486D01*
X133834612Y-110629720D01*
X133846150Y-110679077D01*
X133867341Y-110710565D01*
X133917411Y-110753956D01*
X133956245Y-110776510D01*
X134036464Y-110807670D01*
X134093021Y-110821695D01*
X134192160Y-110835155D01*
X134265945Y-110837815D01*
X134370273Y-110832401D01*
X134463438Y-110816158D01*
X134545441Y-110789086D01*
X134560502Y-110782372D01*
X134626638Y-110743141D01*
X134657711Y-110714473D01*
X134686297Y-110667344D01*
X134694347Y-110619462D01*
X134407606Y-110619462D01*
X134375788Y-110666477D01*
X134370481Y-110670997D01*
X134284408Y-110694559D01*
X134266434Y-110694933D01*
X134173842Y-110678685D01*
X134165317Y-110675150D01*
X134121474Y-110630636D01*
X134120376Y-110619951D01*
X134148799Y-110572148D01*
X134150662Y-110570858D01*
X134232770Y-110541227D01*
X134261060Y-110535443D01*
X134395394Y-110511018D01*
X134486710Y-110489334D01*
X134567652Y-110458246D01*
X134603489Y-110438234D01*
X134652195Y-110395475D01*
X134676071Y-110345782D01*
X134678715Y-110320509D01*
X134667005Y-110270831D01*
X134645498Y-110239420D01*
X134594246Y-110196506D01*
X134554152Y-110174696D01*
X134473499Y-110144583D01*
X134424703Y-110133175D01*
X134326891Y-110120791D01*
X134263991Y-110118764D01*
X134166375Y-110124361D01*
X134104745Y-110134640D01*
X134017620Y-110160842D01*
X133979204Y-110178848D01*
X133922036Y-110218976D01*
X133896161Y-110246992D01*
X133870874Y-110295496D01*
X133865875Y-110330767D01*
X134151639Y-110330767D01*
G37*
G36*
X133662665Y-110830000D02*
G01*
X133662665Y-110126580D01*
X133376901Y-110126580D01*
X133376901Y-110830000D01*
X133662665Y-110830000D01*
G37*
G36*
X133662665Y-109972463D02*
G01*
X133662665Y-109829581D01*
X133376901Y-109829581D01*
X133376901Y-109972463D01*
X133662665Y-109972463D01*
G37*
G36*
X132907199Y-110120529D02*
G01*
X133004675Y-110136838D01*
X133043773Y-110151055D01*
X133105155Y-110190165D01*
X133134612Y-110240642D01*
X133136559Y-110250358D01*
X133141749Y-110301588D01*
X133142916Y-110352993D01*
X133142916Y-110620439D01*
X133141062Y-110663918D01*
X133131681Y-110713251D01*
X133127848Y-110723751D01*
X133096022Y-110771381D01*
X133042126Y-110806415D01*
X132949619Y-110831328D01*
X132849337Y-110837815D01*
X132792434Y-110835593D01*
X132697906Y-110819009D01*
X132651653Y-110802602D01*
X132585554Y-110765031D01*
X132580181Y-110765031D01*
X132580181Y-110906448D01*
X132580662Y-110914744D01*
X132610956Y-110962135D01*
X132616973Y-110966063D01*
X132710118Y-110984117D01*
X132731864Y-110983562D01*
X132820027Y-110961402D01*
X132822311Y-110959980D01*
X132857152Y-110913286D01*
X133142916Y-110913286D01*
X133141092Y-110921103D01*
X133121912Y-110970744D01*
X133086252Y-111016601D01*
X133051173Y-111044342D01*
X132981716Y-111080348D01*
X132944030Y-111094898D01*
X132853733Y-111116496D01*
X132819356Y-111121091D01*
X132719888Y-111126999D01*
X132622587Y-111122866D01*
X132528401Y-111108192D01*
X132471569Y-111092438D01*
X132394556Y-111058855D01*
X132361471Y-111037671D01*
X132317864Y-110992421D01*
X132305499Y-110969442D01*
X132294417Y-110919392D01*
X132294417Y-110346399D01*
X132580181Y-110346399D01*
X132580181Y-110618974D01*
X132580807Y-110627038D01*
X132620237Y-110673440D01*
X132627836Y-110677281D01*
X132719888Y-110694933D01*
X132739000Y-110694548D01*
X132828332Y-110670265D01*
X132838126Y-110660630D01*
X132857152Y-110612135D01*
X132857152Y-110354947D01*
X132855107Y-110334507D01*
X132824424Y-110285826D01*
X132813113Y-110278227D01*
X132719888Y-110259448D01*
X132704523Y-110259826D01*
X132618771Y-110283628D01*
X132600117Y-110298369D01*
X132580181Y-110346399D01*
X132294417Y-110346399D01*
X132294417Y-110126580D01*
X132580181Y-110126580D01*
X132580181Y-110190327D01*
X132632449Y-110162240D01*
X132688136Y-110139525D01*
X132756036Y-110124382D01*
X132846406Y-110118764D01*
X132907199Y-110120529D01*
G37*
G36*
X132054570Y-110830000D02*
G01*
X132054570Y-110126580D01*
X131768806Y-110126580D01*
X131768806Y-110195457D01*
X131762944Y-110195457D01*
X131697027Y-110156693D01*
X131656454Y-110140502D01*
X131564940Y-110121821D01*
X131497208Y-110118764D01*
X131398290Y-110126707D01*
X131391695Y-110127801D01*
X131305301Y-110153809D01*
X131297418Y-110157599D01*
X131240910Y-110199236D01*
X131230983Y-110211088D01*
X131209014Y-110260035D01*
X131206071Y-110290711D01*
X131206071Y-110830000D01*
X131491835Y-110830000D01*
X131491835Y-110344445D01*
X131511893Y-110295901D01*
X131527494Y-110283872D01*
X131616599Y-110261842D01*
X131628611Y-110261646D01*
X131722909Y-110276852D01*
X131738520Y-110286559D01*
X131766411Y-110333628D01*
X131768806Y-110358367D01*
X131768806Y-110830000D01*
X132054570Y-110830000D01*
G37*
G36*
X130606317Y-110119199D02*
G01*
X130704387Y-110126623D01*
X130801116Y-110146608D01*
X130806905Y-110148351D01*
X130883548Y-110178726D01*
X130944242Y-110219881D01*
X130960007Y-110236181D01*
X130986252Y-110283628D01*
X130993099Y-110311552D01*
X130997487Y-110362519D01*
X130997487Y-110594305D01*
X130996160Y-110622772D01*
X130986252Y-110672951D01*
X130979413Y-110690506D01*
X130944242Y-110736943D01*
X130941086Y-110739780D01*
X130879033Y-110780370D01*
X130801116Y-110810216D01*
X130770829Y-110818167D01*
X130675620Y-110833260D01*
X130573482Y-110837815D01*
X130491737Y-110834636D01*
X130397627Y-110821207D01*
X130342100Y-110806999D01*
X130263293Y-110775533D01*
X130242866Y-110764547D01*
X130189285Y-110723370D01*
X130158029Y-110675179D01*
X130148988Y-110625812D01*
X130434752Y-110625812D01*
X130466503Y-110671974D01*
X130478301Y-110679777D01*
X130573482Y-110694933D01*
X130581318Y-110694865D01*
X130674598Y-110677348D01*
X130681233Y-110673874D01*
X130711723Y-110626789D01*
X130711723Y-110533000D01*
X130148988Y-110533000D01*
X130148988Y-110342735D01*
X130434752Y-110342735D01*
X130434752Y-110423579D01*
X130711723Y-110423579D01*
X130711723Y-110342735D01*
X130710418Y-110328169D01*
X130674598Y-110281919D01*
X130667318Y-110278296D01*
X130573482Y-110261646D01*
X130561719Y-110261825D01*
X130472365Y-110281919D01*
X130454183Y-110294826D01*
X130434752Y-110342735D01*
X130148988Y-110342735D01*
X130148988Y-110338583D01*
X130149971Y-110321141D01*
X130164718Y-110272191D01*
X130201860Y-110223738D01*
X130260851Y-110181535D01*
X130310047Y-110159817D01*
X130396161Y-110135617D01*
X130474779Y-110123521D01*
X130573482Y-110118764D01*
X130606317Y-110119199D01*
G37*
G36*
X129367899Y-110191549D02*
G01*
X129402946Y-110169302D01*
X129481716Y-110137571D01*
X129533419Y-110126111D01*
X129631193Y-110118764D01*
X129698113Y-110120900D01*
X129790928Y-110136838D01*
X129830524Y-110151055D01*
X129892631Y-110190165D01*
X129922330Y-110240642D01*
X129924277Y-110250358D01*
X129929467Y-110301588D01*
X129930635Y-110352993D01*
X129930635Y-110620439D01*
X129928780Y-110663918D01*
X129919399Y-110713251D01*
X129915566Y-110723751D01*
X129883740Y-110771381D01*
X129829844Y-110806415D01*
X129737337Y-110831328D01*
X129637055Y-110837815D01*
X129545219Y-110832442D01*
X129475854Y-110817055D01*
X129420167Y-110794584D01*
X129367899Y-110766252D01*
X129367899Y-110830000D01*
X129082135Y-110830000D01*
X129082135Y-110337606D01*
X129367899Y-110337606D01*
X129367899Y-110610181D01*
X129369746Y-110626375D01*
X129406489Y-110672951D01*
X129416404Y-110678619D01*
X129507606Y-110697131D01*
X129524840Y-110696723D01*
X129612142Y-110670997D01*
X129630775Y-110650900D01*
X129644870Y-110601632D01*
X129644870Y-110344445D01*
X129644167Y-110334273D01*
X129616050Y-110286559D01*
X129601010Y-110276852D01*
X129507606Y-110261646D01*
X129496521Y-110261835D01*
X129407955Y-110283140D01*
X129396415Y-110290137D01*
X129367899Y-110337606D01*
X129082135Y-110337606D01*
X129082135Y-109829581D01*
X129367899Y-109829581D01*
X129367899Y-110191549D01*
G37*
G36*
X128322540Y-110830000D02*
G01*
X128036775Y-110830000D01*
X128036775Y-110765275D01*
X128003516Y-110783555D01*
X127928332Y-110817055D01*
X127865391Y-110831956D01*
X127768108Y-110837815D01*
X127686898Y-110833663D01*
X127589353Y-110811864D01*
X127520935Y-110771381D01*
X127510880Y-110760502D01*
X127485275Y-110713251D01*
X127476509Y-110669905D01*
X127474040Y-110620439D01*
X127474040Y-110352993D01*
X127474070Y-110344200D01*
X127759804Y-110344200D01*
X127759804Y-110599923D01*
X127761850Y-110620256D01*
X127792533Y-110668799D01*
X127803702Y-110676328D01*
X127896580Y-110694933D01*
X127911952Y-110694559D01*
X127998185Y-110670997D01*
X128015068Y-110658022D01*
X128036775Y-110608471D01*
X128036775Y-110337117D01*
X128036150Y-110329115D01*
X127996720Y-110283140D01*
X127989033Y-110279299D01*
X127896580Y-110261646D01*
X127877583Y-110262032D01*
X127788625Y-110286315D01*
X127778830Y-110295866D01*
X127759804Y-110344200D01*
X127474070Y-110344200D01*
X127474072Y-110343653D01*
X127475865Y-110290475D01*
X127482344Y-110240642D01*
X127485416Y-110229756D01*
X127518492Y-110182512D01*
X127537665Y-110169307D01*
X127611304Y-110136838D01*
X127669675Y-110124483D01*
X127770551Y-110118764D01*
X127825565Y-110120987D01*
X127919050Y-110137571D01*
X127965235Y-110153977D01*
X128030914Y-110191549D01*
X128036775Y-110191549D01*
X128036775Y-109829581D01*
X128322540Y-109829581D01*
X128322540Y-110830000D01*
G37*
G36*
X127408094Y-110126580D02*
G01*
X127105722Y-110126580D01*
X126909351Y-110558401D01*
X126903977Y-110558401D01*
X126710537Y-110126580D01*
X126416957Y-110126580D01*
X126825331Y-110949678D01*
X126856483Y-110997180D01*
X126888834Y-111026859D01*
X126953425Y-111065069D01*
X126982135Y-111076929D01*
X127069802Y-111099922D01*
X127095952Y-111103796D01*
X127196490Y-111111101D01*
X127220516Y-111111367D01*
X127298674Y-111111367D01*
X127298674Y-110968485D01*
X127234193Y-110968485D01*
X127161409Y-110963112D01*
X127105722Y-110938443D01*
X127068643Y-110892949D01*
X127063712Y-110884466D01*
X127039875Y-110836750D01*
X127018771Y-110787990D01*
X127408094Y-110126580D01*
G37*
G36*
X125882554Y-110830000D02*
G01*
X125596789Y-110830000D01*
X125512770Y-110611158D01*
X125123447Y-110611158D01*
X125039427Y-110830000D01*
X124754152Y-110830000D01*
X124915055Y-110468276D01*
X125176692Y-110468276D01*
X125462456Y-110468276D01*
X125322260Y-110112414D01*
X125316887Y-110112414D01*
X125176692Y-110468276D01*
X124915055Y-110468276D01*
X125199162Y-109829581D01*
X125437055Y-109829581D01*
X125882554Y-110830000D01*
G37*
G36*
X124623726Y-110830000D02*
G01*
X124623726Y-110126580D01*
X124337962Y-110126580D01*
X124337962Y-110202540D01*
X124258571Y-110169606D01*
X124175544Y-110142640D01*
X124170411Y-110141235D01*
X124078332Y-110124382D01*
X123974705Y-110118786D01*
X123967201Y-110118764D01*
X123967201Y-110269951D01*
X124052198Y-110261646D01*
X124146964Y-110269218D01*
X124233632Y-110292431D01*
X124238799Y-110294619D01*
X124301512Y-110332944D01*
X124310607Y-110341758D01*
X124335798Y-110390731D01*
X124337962Y-110413810D01*
X124337962Y-110830000D01*
X124623726Y-110830000D01*
G37*
G36*
X123935938Y-110126580D02*
G01*
X123633565Y-110126580D01*
X123437194Y-110558401D01*
X123431821Y-110558401D01*
X123238381Y-110126580D01*
X122944801Y-110126580D01*
X123353175Y-110949678D01*
X123384327Y-110997180D01*
X123416678Y-111026859D01*
X123481269Y-111065069D01*
X123509979Y-111076929D01*
X123597646Y-111099922D01*
X123623796Y-111103796D01*
X123724334Y-111111101D01*
X123748360Y-111111367D01*
X123826517Y-111111367D01*
X123826517Y-110968485D01*
X123762037Y-110968485D01*
X123689253Y-110963112D01*
X123633565Y-110938443D01*
X123596486Y-110892949D01*
X123591556Y-110884466D01*
X123567719Y-110836750D01*
X123546615Y-110787990D01*
X123935938Y-110126580D01*
G37*
G36*
X122528168Y-110121803D02*
G01*
X122623377Y-110134640D01*
X122679568Y-110148161D01*
X122759176Y-110177871D01*
X122780302Y-110189038D01*
X122835715Y-110230788D01*
X122868039Y-110279503D01*
X122877390Y-110329302D01*
X122605792Y-110329302D01*
X122600578Y-110319315D01*
X122545219Y-110278988D01*
X122536428Y-110275889D01*
X122442149Y-110261646D01*
X122418037Y-110262201D01*
X122330286Y-110284361D01*
X122319661Y-110293217D01*
X122299023Y-110341514D01*
X122299023Y-110412100D01*
X122341032Y-110407948D01*
X122374738Y-110407948D01*
X122405512Y-110407948D01*
X122436775Y-110407948D01*
X122461547Y-110408077D01*
X122559263Y-110411612D01*
X122658060Y-110422602D01*
X122718258Y-110435689D01*
X122796301Y-110466810D01*
X122836198Y-110496590D01*
X122869085Y-110543258D01*
X122871451Y-110548994D01*
X122884885Y-110599003D01*
X122888625Y-110648771D01*
X122883015Y-110696115D01*
X122859316Y-110744759D01*
X122843287Y-110762222D01*
X122781646Y-110801423D01*
X122769617Y-110806464D01*
X122681995Y-110830000D01*
X122678760Y-110830480D01*
X122579413Y-110837815D01*
X122513642Y-110835362D01*
X122418213Y-110817055D01*
X122368057Y-110795430D01*
X122304396Y-110757459D01*
X122299023Y-110757459D01*
X122299023Y-110830000D01*
X122013258Y-110830000D01*
X122013258Y-110521765D01*
X122299023Y-110521765D01*
X122299023Y-110620195D01*
X122302268Y-110643478D01*
X122340055Y-110688583D01*
X122359360Y-110698005D01*
X122453872Y-110712763D01*
X122479169Y-110711861D01*
X122563782Y-110687117D01*
X122584390Y-110669434D01*
X122602861Y-110619951D01*
X122593587Y-110581288D01*
X122536915Y-110539595D01*
X122478820Y-110525204D01*
X122377669Y-110517369D01*
X122299023Y-110521765D01*
X122013258Y-110521765D01*
X122013258Y-110340781D01*
X122020772Y-110291687D01*
X122047452Y-110243572D01*
X122075960Y-110214355D01*
X122137822Y-110174207D01*
X122184969Y-110155431D01*
X122276064Y-110132686D01*
X122347457Y-110123169D01*
X122445568Y-110118764D01*
X122528168Y-110121803D01*
G37*
G36*
X121790509Y-110830000D02*
G01*
X121790509Y-110126580D01*
X121504745Y-110126580D01*
X121504745Y-110195457D01*
X121498883Y-110195457D01*
X121432966Y-110156693D01*
X121392393Y-110140502D01*
X121300878Y-110121821D01*
X121233147Y-110118764D01*
X121134228Y-110126707D01*
X121127634Y-110127801D01*
X121041240Y-110153809D01*
X121033356Y-110157599D01*
X120976848Y-110199236D01*
X120966922Y-110211088D01*
X120944953Y-110260035D01*
X120942009Y-110290711D01*
X120942009Y-110830000D01*
X121227773Y-110830000D01*
X121227773Y-110344445D01*
X121247832Y-110295901D01*
X121263433Y-110283872D01*
X121352538Y-110261842D01*
X121364549Y-110261646D01*
X121458848Y-110276852D01*
X121474459Y-110286559D01*
X121502349Y-110333628D01*
X121504745Y-110358367D01*
X121504745Y-110830000D01*
X121790509Y-110830000D01*
G37*
G36*
X120182414Y-110830000D02*
G01*
X119896650Y-110830000D01*
X119896650Y-110441409D01*
X119748639Y-110441409D01*
X119680488Y-110440100D01*
X119577688Y-110431765D01*
X119486322Y-110414054D01*
X119467989Y-110408686D01*
X119386888Y-110376049D01*
X119327076Y-110336873D01*
X119286826Y-110297400D01*
X119260153Y-110249678D01*
X119256489Y-110237688D01*
X119247101Y-110186876D01*
X119244521Y-110135373D01*
X119246292Y-110092646D01*
X119249475Y-110072847D01*
X119530286Y-110072847D01*
X119530286Y-110088219D01*
X119530286Y-110137083D01*
X119530286Y-110152593D01*
X119530286Y-110203028D01*
X119530308Y-110204866D01*
X119552756Y-110252854D01*
X119623586Y-110286559D01*
X119661116Y-110293373D01*
X119758408Y-110298527D01*
X119896650Y-110298527D01*
X119896650Y-109972463D01*
X119748150Y-109972463D01*
X119718200Y-109972892D01*
X119620167Y-109984675D01*
X119552756Y-110019602D01*
X119548740Y-110023971D01*
X119530286Y-110072847D01*
X119249475Y-110072847D01*
X119254510Y-110041523D01*
X119272854Y-109992491D01*
X119276513Y-109985919D01*
X119315397Y-109940038D01*
X119374459Y-109900167D01*
X119447367Y-109868386D01*
X119539078Y-109845212D01*
X119550487Y-109843319D01*
X119649863Y-109832573D01*
X119748639Y-109829581D01*
X120182414Y-109829581D01*
X120182414Y-110830000D01*
G37*
G36*
X118778552Y-110121803D02*
G01*
X118873761Y-110134640D01*
X118929952Y-110148161D01*
X119009560Y-110177871D01*
X119030686Y-110189038D01*
X119086099Y-110230788D01*
X119118423Y-110279503D01*
X119127773Y-110329302D01*
X118856175Y-110329302D01*
X118850961Y-110319315D01*
X118795603Y-110278988D01*
X118786812Y-110275889D01*
X118692533Y-110261646D01*
X118668421Y-110262201D01*
X118580669Y-110284361D01*
X118570045Y-110293217D01*
X118549406Y-110341514D01*
X118549406Y-110412100D01*
X118591416Y-110407948D01*
X118625122Y-110407948D01*
X118655896Y-110407948D01*
X118687159Y-110407948D01*
X118711930Y-110408077D01*
X118809647Y-110411612D01*
X118908443Y-110422602D01*
X118968642Y-110435689D01*
X119046685Y-110466810D01*
X119086582Y-110496590D01*
X119119469Y-110543258D01*
X119121835Y-110548994D01*
X119135269Y-110599003D01*
X119139009Y-110648771D01*
X119133399Y-110696115D01*
X119109699Y-110744759D01*
X119093671Y-110762222D01*
X119032030Y-110801423D01*
X119020001Y-110806464D01*
X118932379Y-110830000D01*
X118929144Y-110830480D01*
X118829797Y-110837815D01*
X118764026Y-110835362D01*
X118668597Y-110817055D01*
X118618441Y-110795430D01*
X118554780Y-110757459D01*
X118549406Y-110757459D01*
X118549406Y-110830000D01*
X118263642Y-110830000D01*
X118263642Y-110521765D01*
X118549406Y-110521765D01*
X118549406Y-110620195D01*
X118552652Y-110643478D01*
X118590439Y-110688583D01*
X118609743Y-110698005D01*
X118704256Y-110712763D01*
X118729553Y-110711861D01*
X118814166Y-110687117D01*
X118834774Y-110669434D01*
X118853244Y-110619951D01*
X118843971Y-110581288D01*
X118787299Y-110539595D01*
X118729203Y-110525204D01*
X118628053Y-110517369D01*
X118549406Y-110521765D01*
X118263642Y-110521765D01*
X118263642Y-110340781D01*
X118271156Y-110291687D01*
X118297836Y-110243572D01*
X118326344Y-110214355D01*
X118388206Y-110174207D01*
X118435353Y-110155431D01*
X118526448Y-110132686D01*
X118597841Y-110123169D01*
X118695952Y-110118764D01*
X118778552Y-110121803D01*
G37*
G36*
X118045289Y-110126580D02*
G01*
X118045289Y-109899923D01*
X117759525Y-109899923D01*
X117759525Y-110126580D01*
X117603210Y-110126580D01*
X117603210Y-110236001D01*
X117759525Y-110236001D01*
X117759525Y-110618974D01*
X117750732Y-110657320D01*
X117722400Y-110677592D01*
X117674040Y-110685896D01*
X117603210Y-110687117D01*
X117603210Y-110830000D01*
X117716050Y-110830000D01*
X117816575Y-110824661D01*
X117872854Y-110814856D01*
X117955345Y-110785745D01*
X117972993Y-110775778D01*
X118022208Y-110731451D01*
X118028192Y-110722288D01*
X118044872Y-110673158D01*
X118045289Y-110664403D01*
X118045289Y-110236001D01*
X118197208Y-110236001D01*
X118197208Y-110126580D01*
X118045289Y-110126580D01*
G37*
G36*
X117470341Y-110830000D02*
G01*
X117470341Y-109829581D01*
X117184577Y-109829581D01*
X117184577Y-110195701D01*
X117178715Y-110195701D01*
X117112799Y-110156722D01*
X117072226Y-110140502D01*
X116980711Y-110121821D01*
X116912979Y-110118764D01*
X116814061Y-110126707D01*
X116807466Y-110127801D01*
X116721073Y-110153809D01*
X116713189Y-110157599D01*
X116656681Y-110199236D01*
X116646755Y-110211088D01*
X116624786Y-110260035D01*
X116621842Y-110290711D01*
X116621842Y-110830000D01*
X116907606Y-110830000D01*
X116907606Y-110344445D01*
X116927664Y-110295901D01*
X116943265Y-110283872D01*
X117032371Y-110261842D01*
X117044382Y-110261646D01*
X117138680Y-110276852D01*
X117154291Y-110286559D01*
X117182182Y-110333628D01*
X117184577Y-110358367D01*
X117184577Y-110830000D01*
X117470341Y-110830000D01*
G37*
G36*
X116084065Y-110121803D02*
G01*
X116179274Y-110134640D01*
X116235465Y-110148161D01*
X116315073Y-110177871D01*
X116336199Y-110189038D01*
X116391611Y-110230788D01*
X116423935Y-110279503D01*
X116433286Y-110329302D01*
X116161688Y-110329302D01*
X116156474Y-110319315D01*
X116101116Y-110278988D01*
X116092325Y-110275889D01*
X115998046Y-110261646D01*
X115973934Y-110262201D01*
X115886182Y-110284361D01*
X115875558Y-110293217D01*
X115854919Y-110341514D01*
X115854919Y-110412100D01*
X115896929Y-110407948D01*
X115930635Y-110407948D01*
X115961409Y-110407948D01*
X115992672Y-110407948D01*
X116017443Y-110408077D01*
X116115160Y-110411612D01*
X116213956Y-110422602D01*
X116274154Y-110435689D01*
X116352198Y-110466810D01*
X116392095Y-110496590D01*
X116424982Y-110543258D01*
X116427348Y-110548994D01*
X116440782Y-110599003D01*
X116444521Y-110648771D01*
X116438912Y-110696115D01*
X116415212Y-110744759D01*
X116399184Y-110762222D01*
X116337543Y-110801423D01*
X116325514Y-110806464D01*
X116237892Y-110830000D01*
X116234657Y-110830480D01*
X116135310Y-110837815D01*
X116069539Y-110835362D01*
X115974110Y-110817055D01*
X115923954Y-110795430D01*
X115860293Y-110757459D01*
X115854919Y-110757459D01*
X115854919Y-110830000D01*
X115569155Y-110830000D01*
X115569155Y-110521765D01*
X115854919Y-110521765D01*
X115854919Y-110620195D01*
X115858165Y-110643478D01*
X115895952Y-110688583D01*
X115915256Y-110698005D01*
X116009769Y-110712763D01*
X116035066Y-110711861D01*
X116119678Y-110687117D01*
X116140286Y-110669434D01*
X116158757Y-110619951D01*
X116149484Y-110581288D01*
X116092812Y-110539595D01*
X116034716Y-110525204D01*
X115933565Y-110517369D01*
X115854919Y-110521765D01*
X115569155Y-110521765D01*
X115569155Y-110340781D01*
X115576668Y-110291687D01*
X115603349Y-110243572D01*
X115631857Y-110214355D01*
X115693719Y-110174207D01*
X115740865Y-110155431D01*
X115831960Y-110132686D01*
X115903354Y-110123169D01*
X116001465Y-110118764D01*
X116084065Y-110121803D01*
G37*
G36*
X115346406Y-110830000D02*
G01*
X115346406Y-109829581D01*
X115060642Y-109829581D01*
X115060642Y-110433105D01*
X115054780Y-110433105D01*
X114710397Y-110126580D01*
X114424633Y-110126580D01*
X114763642Y-110412344D01*
X114354780Y-110830000D01*
X114665457Y-110830000D01*
X114923377Y-110526161D01*
X115060642Y-110632896D01*
X115060642Y-110830000D01*
X115346406Y-110830000D01*
G37*
G36*
X131103698Y-92102219D02*
G01*
X131294696Y-91627899D01*
X132859316Y-91627899D01*
X132859316Y-91656231D01*
X132761222Y-91673908D01*
X132735729Y-91680167D01*
X132650692Y-91732317D01*
X132645359Y-91737808D01*
X132618981Y-91793007D01*
X132604815Y-91878981D01*
X132599047Y-91977233D01*
X132598953Y-91980586D01*
X132597493Y-92078760D01*
X132597487Y-92085122D01*
X132597487Y-92635645D01*
X132597487Y-92735288D01*
X132597487Y-92799288D01*
X132598004Y-92898263D01*
X132598953Y-92964396D01*
X132600876Y-93064283D01*
X132601884Y-93112407D01*
X132603336Y-93212206D01*
X132603349Y-93219874D01*
X132606280Y-93311709D01*
X132616050Y-93400614D01*
X132631681Y-93475352D01*
X132654152Y-93524689D01*
X132731844Y-93584818D01*
X132753803Y-93595031D01*
X132850157Y-93625164D01*
X132884717Y-93631667D01*
X132884717Y-93660000D01*
X131984438Y-93660000D01*
X131984438Y-93631667D01*
X132086043Y-93622386D01*
X132160293Y-93605289D01*
X132242467Y-93549104D01*
X132245778Y-93544228D01*
X132275775Y-93448594D01*
X132278506Y-93424549D01*
X132285250Y-93325393D01*
X132288276Y-93253579D01*
X132289398Y-93155592D01*
X132289741Y-93139274D01*
X132290641Y-93037214D01*
X132290718Y-92993705D01*
X132290718Y-92894766D01*
X132290718Y-92824689D01*
X132290718Y-92723023D01*
X132290718Y-92643949D01*
X132215003Y-92643949D01*
X132155896Y-92643949D01*
X132096789Y-92645415D01*
X132023517Y-92649811D01*
X131925703Y-92664858D01*
X131881856Y-92679120D01*
X131794844Y-92728763D01*
X131767550Y-92751416D01*
X131703388Y-92831349D01*
X131666434Y-92905289D01*
X131630992Y-92996916D01*
X131601465Y-93095310D01*
X131567759Y-93095310D01*
X131567759Y-92186727D01*
X131601465Y-92186727D01*
X131619130Y-92283048D01*
X131626866Y-92318129D01*
X131662785Y-92410110D01*
X131674738Y-92429504D01*
X131742906Y-92500237D01*
X131767550Y-92516943D01*
X131857844Y-92557205D01*
X131927773Y-92576050D01*
X132026448Y-92589239D01*
X132126892Y-92595330D01*
X132140753Y-92596078D01*
X132240404Y-92599009D01*
X132290718Y-92599009D01*
X132290718Y-92511081D01*
X132290718Y-92410773D01*
X132290718Y-92330830D01*
X132290396Y-92230037D01*
X132289515Y-92130928D01*
X132289253Y-92109057D01*
X132287784Y-92010028D01*
X132285794Y-91911811D01*
X132285345Y-91893147D01*
X132279972Y-91807173D01*
X132274110Y-91749532D01*
X132267271Y-91709965D01*
X132259944Y-91675771D01*
X132216468Y-91674305D01*
X132152965Y-91671863D01*
X132082623Y-91668932D01*
X132018143Y-91667466D01*
X131918347Y-91668993D01*
X131817828Y-91674198D01*
X131727006Y-91683098D01*
X131626377Y-91699012D01*
X131553593Y-91721200D01*
X131466559Y-91773372D01*
X131390172Y-91834464D01*
X131351360Y-91870676D01*
X131278442Y-91945552D01*
X131209749Y-92022335D01*
X131145967Y-92098538D01*
X131131542Y-92116385D01*
X131103698Y-92102219D01*
G37*
G36*
X130488206Y-93660000D02*
G01*
X130488206Y-93629225D01*
X130581018Y-93621898D01*
X130645498Y-93615059D01*
X130683600Y-93595519D01*
X130696301Y-93553021D01*
X130696301Y-91627899D01*
X130715840Y-91627899D01*
X131118353Y-91759790D01*
X131118353Y-91776887D01*
X131033845Y-91820851D01*
X130958129Y-91863838D01*
X130934193Y-91889239D01*
X130929797Y-91922944D01*
X130929797Y-93539344D01*
X130972295Y-93602358D01*
X131071387Y-93622823D01*
X131143754Y-93629225D01*
X131143754Y-93660000D01*
X130488206Y-93660000D01*
G37*
G36*
X129977250Y-91845275D02*
G01*
X130006273Y-91751534D01*
X130021214Y-91734389D01*
X130109532Y-91691499D01*
X130129169Y-91690425D01*
X130223850Y-91721724D01*
X130238101Y-91734389D01*
X130280515Y-91824794D01*
X130281577Y-91845275D01*
X130251909Y-91938446D01*
X130236636Y-91956650D01*
X130148150Y-92001923D01*
X130129169Y-92003056D01*
X130035313Y-91971062D01*
X130021214Y-91958115D01*
X129978796Y-91869781D01*
X129977250Y-91845275D01*
G37*
G36*
X129819958Y-93660000D02*
G01*
X129819958Y-93631667D01*
X129877599Y-93624829D01*
X129932309Y-93617990D01*
X129976273Y-93599427D01*
X130000209Y-93558883D01*
X130000209Y-92301032D01*
X130016817Y-92301032D01*
X130396859Y-92424619D01*
X130396859Y-92441716D01*
X130322121Y-92472979D01*
X130261549Y-92506196D01*
X130238101Y-92537459D01*
X130233705Y-92576538D01*
X130233705Y-93541786D01*
X130252267Y-93584284D01*
X130297208Y-93610662D01*
X130357292Y-93624829D01*
X130424703Y-93631667D01*
X130424703Y-93660000D01*
X129819958Y-93660000D01*
G37*
G36*
X129163759Y-92322138D02*
G01*
X129263200Y-92343369D01*
X129282135Y-92349392D01*
X129375191Y-92389204D01*
X129455059Y-92441228D01*
X129526895Y-92512720D01*
X129568876Y-92577515D01*
X129601660Y-92669702D01*
X129609420Y-92746531D01*
X129599735Y-92846869D01*
X129567381Y-92939755D01*
X129540544Y-92982958D01*
X129469805Y-93055567D01*
X129385366Y-93107585D01*
X129348080Y-93123642D01*
X129348080Y-93131946D01*
X129444150Y-93152969D01*
X129478995Y-93166140D01*
X129566634Y-93216596D01*
X129584019Y-93230621D01*
X129649427Y-93306500D01*
X129654361Y-93315129D01*
X129679737Y-93410542D01*
X129679762Y-93413803D01*
X129657980Y-93512773D01*
X129602581Y-93580865D01*
X129515384Y-93629394D01*
X129416545Y-93655130D01*
X129381786Y-93660000D01*
X129381786Y-93665861D01*
X129467509Y-93719985D01*
X129501465Y-93741577D01*
X129582284Y-93800528D01*
X129610886Y-93825108D01*
X129677540Y-93897713D01*
X129692463Y-93918897D01*
X129724199Y-94013358D01*
X129724703Y-94028318D01*
X129704616Y-94132510D01*
X129644355Y-94220079D01*
X129565168Y-94279361D01*
X129554710Y-94285261D01*
X129460951Y-94326294D01*
X129364937Y-94352581D01*
X129255881Y-94369891D01*
X129152022Y-94377585D01*
X129077459Y-94379050D01*
X128970481Y-94373740D01*
X128869851Y-94357809D01*
X128783879Y-94334110D01*
X128688510Y-94295664D01*
X128603170Y-94247739D01*
X128551849Y-94210523D01*
X128478932Y-94142908D01*
X128416635Y-94060896D01*
X128398464Y-94029295D01*
X128363024Y-93942833D01*
X128531821Y-93942833D01*
X128546126Y-94043571D01*
X128593203Y-94136980D01*
X128606559Y-94153859D01*
X128681535Y-94226122D01*
X128767244Y-94277134D01*
X128779483Y-94282330D01*
X128876681Y-94306097D01*
X128887927Y-94307732D01*
X128986915Y-94315829D01*
X129032519Y-94316524D01*
X129130312Y-94306637D01*
X129185903Y-94293565D01*
X129281072Y-94258099D01*
X129342219Y-94223712D01*
X129420384Y-94160275D01*
X129464340Y-94107941D01*
X129505535Y-94018636D01*
X129513677Y-93948206D01*
X129495939Y-93848206D01*
X129463363Y-93785540D01*
X129386362Y-93717955D01*
X129288375Y-93679273D01*
X129280181Y-93677096D01*
X129182890Y-93665739D01*
X129179064Y-93665373D01*
X129080188Y-93660188D01*
X129057920Y-93660000D01*
X128954063Y-93661500D01*
X128852756Y-93667144D01*
X128801953Y-93672700D01*
X128702588Y-93694734D01*
X128647103Y-93717152D01*
X128574174Y-93785380D01*
X128565526Y-93799706D01*
X128535112Y-93893173D01*
X128531821Y-93942833D01*
X128363024Y-93942833D01*
X128360731Y-93937238D01*
X128343751Y-93834456D01*
X128343265Y-93813384D01*
X128353770Y-93715405D01*
X128373063Y-93655115D01*
X128423102Y-93568661D01*
X128458548Y-93529085D01*
X128537736Y-93469246D01*
X128593859Y-93442135D01*
X128688672Y-93416066D01*
X128771179Y-93409895D01*
X129221563Y-93409895D01*
X129320237Y-93404521D01*
X129413049Y-93382540D01*
X129483391Y-93337599D01*
X129511235Y-93264815D01*
X129461266Y-93177150D01*
X129457990Y-93174933D01*
X129362074Y-93139319D01*
X129314375Y-93133900D01*
X129217166Y-93139274D01*
X129137055Y-93144647D01*
X129038812Y-93140852D01*
X128934700Y-93126830D01*
X128829569Y-93098155D01*
X128739215Y-93055985D01*
X128709141Y-93036692D01*
X128634287Y-92967427D01*
X128583930Y-92881084D01*
X128558072Y-92777662D01*
X128554291Y-92712826D01*
X128555163Y-92705987D01*
X128779483Y-92705987D01*
X128788108Y-92806696D01*
X128799511Y-92856929D01*
X128835844Y-92948066D01*
X128858618Y-92984912D01*
X128927677Y-93056536D01*
X128955338Y-93074794D01*
X129051967Y-93106393D01*
X129088695Y-93108499D01*
X129189968Y-93088864D01*
X129276655Y-93029960D01*
X129298743Y-93005917D01*
X129350836Y-92919638D01*
X129377466Y-92824136D01*
X129384228Y-92734319D01*
X129374993Y-92634954D01*
X129364689Y-92590704D01*
X129326814Y-92497663D01*
X129307048Y-92465652D01*
X129236482Y-92393882D01*
X129212770Y-92378702D01*
X129116349Y-92347539D01*
X129086252Y-92345973D01*
X128986299Y-92361366D01*
X128952407Y-92375771D01*
X128871961Y-92436620D01*
X128857152Y-92454417D01*
X128808948Y-92541047D01*
X128799511Y-92568722D01*
X128781067Y-92665703D01*
X128779483Y-92705987D01*
X128555163Y-92705987D01*
X128567124Y-92612157D01*
X128584089Y-92570676D01*
X128635471Y-92483940D01*
X128655896Y-92452951D01*
X128644661Y-92442205D01*
X128568457Y-92485680D01*
X128485903Y-92529644D01*
X128411165Y-92563349D01*
X128360362Y-92577515D01*
X128288555Y-92545275D01*
X128258757Y-92470537D01*
X128290020Y-92388960D01*
X128368667Y-92355254D01*
X128427773Y-92365024D01*
X128475645Y-92387494D01*
X128524982Y-92409965D01*
X128585554Y-92419734D01*
X128643196Y-92416803D01*
X128700837Y-92402637D01*
X128794406Y-92360151D01*
X128873761Y-92335715D01*
X128974757Y-92319520D01*
X129063782Y-92315687D01*
X129163759Y-92322138D01*
G37*
G36*
X126848499Y-93660000D02*
G01*
X126848499Y-93635087D01*
X126902233Y-93628248D01*
X126955478Y-93617013D01*
X126997976Y-93596008D01*
X127014584Y-93562791D01*
X127014584Y-92741646D01*
X127019530Y-92642814D01*
X127030216Y-92572142D01*
X127059979Y-92478606D01*
X127083461Y-92436831D01*
X127154902Y-92365390D01*
X127185066Y-92347927D01*
X127280605Y-92319496D01*
X127340893Y-92315687D01*
X127438346Y-92324510D01*
X127517236Y-92346950D01*
X127605997Y-92388552D01*
X127659385Y-92422177D01*
X127737264Y-92487701D01*
X127761967Y-92514989D01*
X127819527Y-92597135D01*
X127822051Y-92601939D01*
X127827913Y-92599009D01*
X127819609Y-91627899D01*
X127842079Y-91627899D01*
X128218702Y-91798869D01*
X128218702Y-91815478D01*
X128144452Y-91856022D01*
X128083879Y-91893635D01*
X128059944Y-91919036D01*
X128055547Y-91952742D01*
X128055547Y-93542274D01*
X128107815Y-93611151D01*
X128204711Y-93630097D01*
X128224563Y-93632156D01*
X128224563Y-93660000D01*
X127664759Y-93660000D01*
X127664759Y-93632156D01*
X127720935Y-93623852D01*
X127771737Y-93614082D01*
X127808374Y-93592588D01*
X127822051Y-93553510D01*
X127822051Y-92690844D01*
X127812281Y-92641995D01*
X127796650Y-92606824D01*
X127725495Y-92533759D01*
X127684298Y-92508639D01*
X127589918Y-92478049D01*
X127512840Y-92472002D01*
X127413972Y-92486639D01*
X127383391Y-92500334D01*
X127310942Y-92566639D01*
X127303279Y-92578981D01*
X127267112Y-92673963D01*
X127262247Y-92699637D01*
X127252109Y-92801226D01*
X127251011Y-92851067D01*
X127251011Y-93553510D01*
X127301814Y-93611151D01*
X127400665Y-93626803D01*
X127428332Y-93629225D01*
X127428332Y-93660000D01*
X126848499Y-93660000D01*
G37*
G36*
X125839776Y-92315687D02*
G01*
X126360502Y-92315687D01*
X126360502Y-92096845D01*
X126382972Y-92096845D01*
X126790858Y-92444159D01*
X126790858Y-92472002D01*
X126585694Y-92472002D01*
X126585877Y-92570066D01*
X126586427Y-92674724D01*
X126587342Y-92785976D01*
X126588444Y-92888732D01*
X126588625Y-92903824D01*
X126589576Y-93011157D01*
X126590294Y-93121156D01*
X126590779Y-93233819D01*
X126591008Y-93332508D01*
X126591067Y-93416245D01*
X126564689Y-93506615D01*
X126501005Y-93582664D01*
X126495812Y-93587215D01*
X126408755Y-93637806D01*
X126398604Y-93641437D01*
X126299014Y-93659709D01*
X126284298Y-93660000D01*
X126186002Y-93653972D01*
X126128471Y-93642903D01*
X126035401Y-93607077D01*
X126013189Y-93594054D01*
X125940214Y-93527761D01*
X125934542Y-93519804D01*
X125887648Y-93433831D01*
X125904745Y-93425526D01*
X125974750Y-93495412D01*
X125997557Y-93508569D01*
X126093361Y-93533299D01*
X126132379Y-93534947D01*
X126231796Y-93513463D01*
X126293091Y-93467048D01*
X126339253Y-93378510D01*
X126354099Y-93276179D01*
X126354640Y-93248695D01*
X126354640Y-92472002D01*
X125927215Y-92472002D01*
X125839776Y-92315687D01*
G37*
G36*
X123286950Y-92283447D02*
G01*
X123286950Y-91658185D01*
X123318213Y-91658185D01*
X123354849Y-91707034D01*
X123392951Y-91749043D01*
X123426657Y-91779818D01*
X123447662Y-91792030D01*
X123498464Y-91761256D01*
X123588132Y-91712071D01*
X123627913Y-91694333D01*
X123722679Y-91659528D01*
X123823231Y-91631278D01*
X123838939Y-91627411D01*
X123939735Y-91608657D01*
X124042510Y-91599070D01*
X124133984Y-91596636D01*
X124235539Y-91599727D01*
X124341670Y-91610413D01*
X124440741Y-91628731D01*
X124469085Y-91635715D01*
X124567878Y-91665756D01*
X124659398Y-91702147D01*
X124736287Y-91740739D01*
X124820619Y-91792786D01*
X124902212Y-91855836D01*
X124941939Y-91892658D01*
X125012692Y-91969902D01*
X125072785Y-92050325D01*
X125087997Y-92073886D01*
X125136736Y-92159630D01*
X125171039Y-92234598D01*
X125204502Y-92326740D01*
X125221842Y-92387006D01*
X125241614Y-92482718D01*
X125247243Y-92523782D01*
X125253915Y-92622030D01*
X125254082Y-92638087D01*
X125249166Y-92748821D01*
X125234420Y-92854853D01*
X125209843Y-92956183D01*
X125175436Y-93052812D01*
X125131594Y-93143762D01*
X125079204Y-93228056D01*
X125018265Y-93305695D01*
X124948778Y-93376678D01*
X124870834Y-93440517D01*
X124785013Y-93496723D01*
X124691316Y-93545297D01*
X124589741Y-93586238D01*
X124495010Y-93614979D01*
X124395463Y-93636661D01*
X124291101Y-93651284D01*
X124181924Y-93658847D01*
X124117376Y-93660000D01*
X124013288Y-93656883D01*
X123909744Y-93646372D01*
X123838939Y-93633621D01*
X123739950Y-93608617D01*
X123643993Y-93576377D01*
X123633286Y-93572072D01*
X123543107Y-93530818D01*
X123503838Y-93508080D01*
X123453035Y-93478283D01*
X123402721Y-93517850D01*
X123338725Y-93595501D01*
X123332379Y-93604312D01*
X123298674Y-93604312D01*
X123289881Y-92989797D01*
X123323586Y-92989797D01*
X123351400Y-93086305D01*
X123393564Y-93180555D01*
X123417864Y-93223293D01*
X123473918Y-93304214D01*
X123538764Y-93377716D01*
X123586880Y-93422595D01*
X123665671Y-93482771D01*
X123752568Y-93533604D01*
X123815003Y-93562302D01*
X123913532Y-93594748D01*
X124017144Y-93612219D01*
X124089043Y-93615547D01*
X124190791Y-93609597D01*
X124287206Y-93591745D01*
X124388081Y-93557952D01*
X124426587Y-93540321D01*
X124517148Y-93487703D01*
X124598931Y-93424496D01*
X124671937Y-93350698D01*
X124685484Y-93334668D01*
X124747528Y-93248973D01*
X124799935Y-93154310D01*
X124838863Y-93061445D01*
X124850104Y-93028876D01*
X124877968Y-92927987D01*
X124896713Y-92823157D01*
X124906338Y-92714385D01*
X124907745Y-92652254D01*
X124903418Y-92546178D01*
X124890435Y-92441726D01*
X124868796Y-92338896D01*
X124853035Y-92282470D01*
X124818474Y-92184092D01*
X124776339Y-92091743D01*
X124726631Y-92005421D01*
X124695743Y-91960069D01*
X124633902Y-91884279D01*
X124556125Y-91810491D01*
X124468809Y-91747675D01*
X124440753Y-91730969D01*
X124351976Y-91688938D01*
X124256552Y-91660662D01*
X124154482Y-91646142D01*
X124094905Y-91644019D01*
X123991591Y-91651094D01*
X123892672Y-91672321D01*
X123829169Y-91694333D01*
X123738654Y-91737152D01*
X123655421Y-91790137D01*
X123603977Y-91831109D01*
X123532651Y-91900283D01*
X123468880Y-91978113D01*
X123430565Y-92034808D01*
X123380831Y-92125139D01*
X123341538Y-92220280D01*
X123321144Y-92286378D01*
X123286950Y-92283447D01*
G37*
G36*
X122529950Y-92322267D02*
G01*
X122633185Y-92344455D01*
X122705652Y-92371374D01*
X122794358Y-92417857D01*
X122878983Y-92479685D01*
X122919609Y-92517920D01*
X122984997Y-92596418D01*
X123037486Y-92684268D01*
X123057362Y-92727969D01*
X123089305Y-92825865D01*
X123104964Y-92926664D01*
X123106699Y-92974166D01*
X123100545Y-93080249D01*
X123082084Y-93177460D01*
X123047561Y-93274143D01*
X123043684Y-93282400D01*
X122990973Y-93374357D01*
X122928096Y-93453126D01*
X122880530Y-93498311D01*
X122796184Y-93559160D01*
X122705871Y-93605175D01*
X122662177Y-93621409D01*
X122567499Y-93646395D01*
X122468603Y-93659057D01*
X122434054Y-93660000D01*
X122336624Y-93652649D01*
X122235261Y-93628098D01*
X122182484Y-93607732D01*
X122090162Y-93558095D01*
X122007677Y-93494914D01*
X121972923Y-93461186D01*
X121910367Y-93386012D01*
X121858251Y-93301909D01*
X121829309Y-93240879D01*
X121796565Y-93144296D01*
X121778934Y-93043592D01*
X121775575Y-92974166D01*
X121775952Y-92967815D01*
X122037404Y-92967815D01*
X122042655Y-93070642D01*
X122057116Y-93174583D01*
X122058408Y-93181772D01*
X122081650Y-93279746D01*
X122114615Y-93371923D01*
X122125819Y-93397194D01*
X122175551Y-93483318D01*
X122242320Y-93559095D01*
X122246964Y-93563279D01*
X122336162Y-93614735D01*
X122431123Y-93629225D01*
X122533339Y-93616280D01*
X122620167Y-93577445D01*
X122695870Y-93511709D01*
X122749616Y-93436762D01*
X122790667Y-93347618D01*
X122819483Y-93246882D01*
X122822400Y-93232575D01*
X122837761Y-93128657D01*
X122844322Y-93027473D01*
X122844870Y-92987355D01*
X122839821Y-92884759D01*
X122824675Y-92783847D01*
X122818492Y-92755324D01*
X122790122Y-92660035D01*
X122748934Y-92567485D01*
X122739357Y-92550160D01*
X122681960Y-92467240D01*
X122614305Y-92402149D01*
X122525691Y-92356725D01*
X122448220Y-92345973D01*
X122348193Y-92359282D01*
X122259242Y-92402819D01*
X122254291Y-92406545D01*
X122182972Y-92475177D01*
X122127285Y-92559930D01*
X122088309Y-92650698D01*
X122061139Y-92748979D01*
X122058408Y-92762651D01*
X122043332Y-92862228D01*
X122037424Y-92961818D01*
X122037404Y-92967815D01*
X121775952Y-92967815D01*
X121781490Y-92874560D01*
X121801661Y-92774692D01*
X121836147Y-92684982D01*
X121886316Y-92598497D01*
X121951364Y-92517983D01*
X121990997Y-92480307D01*
X122071065Y-92420636D01*
X122158065Y-92374187D01*
X122200558Y-92357208D01*
X122300963Y-92328824D01*
X122400432Y-92316336D01*
X122428681Y-92315687D01*
X122529950Y-92322267D01*
G37*
G36*
X120289113Y-93660000D02*
G01*
X120289113Y-93635087D01*
X120344312Y-93628248D01*
X120399023Y-93617013D01*
X120442498Y-93596008D01*
X120460572Y-93562791D01*
X120460572Y-92744089D01*
X120467488Y-92643238D01*
X120491397Y-92544053D01*
X120537422Y-92450597D01*
X120548011Y-92435366D01*
X120623940Y-92362436D01*
X120721301Y-92323167D01*
X120798115Y-92315687D01*
X120895608Y-92328309D01*
X120944661Y-92344996D01*
X121032146Y-92389986D01*
X121074110Y-92418757D01*
X121149379Y-92484497D01*
X121179623Y-92517431D01*
X121240439Y-92594918D01*
X121256803Y-92619036D01*
X121262665Y-92616106D01*
X121262665Y-92315687D01*
X121279274Y-92315687D01*
X121648080Y-92453440D01*
X121648080Y-92471025D01*
X121580669Y-92502777D01*
X121521563Y-92534528D01*
X121497627Y-92559441D01*
X121493230Y-92592658D01*
X121493230Y-93543740D01*
X121539637Y-93607732D01*
X121635059Y-93630599D01*
X121651011Y-93632156D01*
X121651011Y-93660000D01*
X121107815Y-93660000D01*
X121107815Y-93632156D01*
X121161549Y-93625806D01*
X121206489Y-93618967D01*
X121240195Y-93600893D01*
X121259734Y-93560837D01*
X121259734Y-92655184D01*
X121187194Y-92589483D01*
X121121981Y-92541856D01*
X121027303Y-92507825D01*
X120967131Y-92503265D01*
X120869175Y-92517073D01*
X120785106Y-92568083D01*
X120759036Y-92601451D01*
X120718870Y-92691149D01*
X120699967Y-92792266D01*
X120696999Y-92859371D01*
X120696999Y-93554975D01*
X120741939Y-93612128D01*
X120840034Y-93627867D01*
X120863084Y-93629713D01*
X120863084Y-93660000D01*
X120289113Y-93660000D01*
G37*
G36*
X119284298Y-92315687D02*
G01*
X119805024Y-92315687D01*
X119805024Y-92096845D01*
X119827494Y-92096845D01*
X120235380Y-92444159D01*
X120235380Y-92472002D01*
X120030216Y-92472002D01*
X120030399Y-92570066D01*
X120030949Y-92674724D01*
X120031864Y-92785976D01*
X120032966Y-92888732D01*
X120033147Y-92903824D01*
X120034098Y-93011157D01*
X120034816Y-93121156D01*
X120035301Y-93233819D01*
X120035530Y-93332508D01*
X120035589Y-93416245D01*
X120009211Y-93506615D01*
X119945527Y-93582664D01*
X119940334Y-93587215D01*
X119853277Y-93637806D01*
X119843126Y-93641437D01*
X119743536Y-93659709D01*
X119728820Y-93660000D01*
X119630524Y-93653972D01*
X119572993Y-93642903D01*
X119479923Y-93607077D01*
X119457711Y-93594054D01*
X119384736Y-93527761D01*
X119379064Y-93519804D01*
X119332170Y-93433831D01*
X119349267Y-93425526D01*
X119419272Y-93495412D01*
X119442079Y-93508569D01*
X119537883Y-93533299D01*
X119576901Y-93534947D01*
X119676317Y-93513463D01*
X119737613Y-93467048D01*
X119783775Y-93378510D01*
X119798621Y-93276179D01*
X119799162Y-93248695D01*
X119799162Y-92472002D01*
X119371737Y-92472002D01*
X119284298Y-92315687D01*
G37*
G36*
X118332728Y-92459302D02*
G01*
X118370502Y-92366711D01*
X118382065Y-92356231D01*
X118471975Y-92317627D01*
X118501744Y-92315687D01*
X118598282Y-92332391D01*
X118656594Y-92363070D01*
X118733225Y-92429359D01*
X118771877Y-92475910D01*
X118827345Y-92561191D01*
X118850523Y-92605359D01*
X118892661Y-92696069D01*
X118895464Y-92702568D01*
X118901325Y-92702568D01*
X118895464Y-92315687D01*
X118912561Y-92315687D01*
X119280879Y-92456371D01*
X119280879Y-92472979D01*
X119213468Y-92508150D01*
X119154361Y-92542833D01*
X119130425Y-92567745D01*
X119126029Y-92600963D01*
X119126029Y-93542763D01*
X119172435Y-93607243D01*
X119267858Y-93630591D01*
X119283810Y-93632156D01*
X119283810Y-93660000D01*
X118653663Y-93660000D01*
X118653663Y-93632156D01*
X118719609Y-93625317D01*
X118792882Y-93618478D01*
X118856385Y-93598939D01*
X118892533Y-93559860D01*
X118892533Y-92756789D01*
X118853454Y-92669351D01*
X118802651Y-92586796D01*
X118742079Y-92527201D01*
X118676133Y-92503265D01*
X118614096Y-92517920D01*
X118572086Y-92550160D01*
X118525680Y-92582889D01*
X118453872Y-92597055D01*
X118369364Y-92557976D01*
X118332871Y-92466614D01*
X118332728Y-92459302D01*
G37*
G36*
X117736929Y-92322267D02*
G01*
X117840163Y-92344455D01*
X117912630Y-92371374D01*
X118001336Y-92417857D01*
X118085962Y-92479685D01*
X118126587Y-92517920D01*
X118191975Y-92596418D01*
X118244465Y-92684268D01*
X118264340Y-92727969D01*
X118296284Y-92825865D01*
X118311943Y-92926664D01*
X118313677Y-92974166D01*
X118307523Y-93080249D01*
X118289062Y-93177460D01*
X118254539Y-93274143D01*
X118250662Y-93282400D01*
X118197952Y-93374357D01*
X118135075Y-93453126D01*
X118087508Y-93498311D01*
X118003162Y-93559160D01*
X117912850Y-93605175D01*
X117869155Y-93621409D01*
X117774477Y-93646395D01*
X117675582Y-93659057D01*
X117641032Y-93660000D01*
X117543602Y-93652649D01*
X117442239Y-93628098D01*
X117389462Y-93607732D01*
X117297141Y-93558095D01*
X117214655Y-93494914D01*
X117179902Y-93461186D01*
X117117345Y-93386012D01*
X117065230Y-93301909D01*
X117036287Y-93240879D01*
X117003543Y-93144296D01*
X116985912Y-93043592D01*
X116982554Y-92974166D01*
X116982931Y-92967815D01*
X117244382Y-92967815D01*
X117249633Y-93070642D01*
X117264095Y-93174583D01*
X117265387Y-93181772D01*
X117288628Y-93279746D01*
X117321593Y-93371923D01*
X117332798Y-93397194D01*
X117382529Y-93483318D01*
X117449299Y-93559095D01*
X117453942Y-93563279D01*
X117543140Y-93614735D01*
X117638101Y-93629225D01*
X117740317Y-93616280D01*
X117827145Y-93577445D01*
X117902849Y-93511709D01*
X117956594Y-93436762D01*
X117997645Y-93347618D01*
X118026461Y-93246882D01*
X118029378Y-93232575D01*
X118044739Y-93128657D01*
X118051300Y-93027473D01*
X118051849Y-92987355D01*
X118046800Y-92884759D01*
X118031653Y-92783847D01*
X118025471Y-92755324D01*
X117997100Y-92660035D01*
X117955913Y-92567485D01*
X117946336Y-92550160D01*
X117888939Y-92467240D01*
X117821284Y-92402149D01*
X117732669Y-92356725D01*
X117655198Y-92345973D01*
X117555171Y-92359282D01*
X117466221Y-92402819D01*
X117461270Y-92406545D01*
X117389951Y-92475177D01*
X117334263Y-92559930D01*
X117295287Y-92650698D01*
X117268117Y-92748979D01*
X117265387Y-92762651D01*
X117250310Y-92862228D01*
X117244402Y-92961818D01*
X117244382Y-92967815D01*
X116982931Y-92967815D01*
X116988469Y-92874560D01*
X117008640Y-92774692D01*
X117043126Y-92684982D01*
X117093295Y-92598497D01*
X117158342Y-92517983D01*
X117197976Y-92480307D01*
X117278043Y-92420636D01*
X117365044Y-92374187D01*
X117407536Y-92357208D01*
X117507941Y-92328824D01*
X117607411Y-92316336D01*
X117635659Y-92315687D01*
X117736929Y-92322267D01*
G37*
G36*
X116261549Y-93660000D02*
G01*
X116261549Y-93629225D01*
X116354361Y-93621898D01*
X116418841Y-93615059D01*
X116456943Y-93595519D01*
X116469644Y-93553021D01*
X116469644Y-91627899D01*
X116489183Y-91627899D01*
X116891695Y-91759790D01*
X116891695Y-91776887D01*
X116807187Y-91820851D01*
X116731472Y-91863838D01*
X116707536Y-91889239D01*
X116703140Y-91922944D01*
X116703140Y-93539344D01*
X116745638Y-93602358D01*
X116844730Y-93622823D01*
X116917096Y-93629225D01*
X116917096Y-93660000D01*
X116261549Y-93660000D01*
G37*
G36*
X115573761Y-93660000D02*
G01*
X115573761Y-93629225D01*
X115666573Y-93621898D01*
X115731053Y-93615059D01*
X115769155Y-93595519D01*
X115781856Y-93553021D01*
X115781856Y-91627899D01*
X115801395Y-91627899D01*
X116203907Y-91759790D01*
X116203907Y-91776887D01*
X116119399Y-91820851D01*
X116043684Y-91863838D01*
X116019748Y-91889239D01*
X116015352Y-91922944D01*
X116015352Y-93539344D01*
X116057850Y-93602358D01*
X116156942Y-93622823D01*
X116229309Y-93629225D01*
X116229309Y-93660000D01*
X115573761Y-93660000D01*
G37*
G36*
X115009193Y-92323724D02*
G01*
X115107723Y-92350570D01*
X115157571Y-92372840D01*
X115242184Y-92424684D01*
X115321044Y-92493499D01*
X115346127Y-92521339D01*
X115407021Y-92605849D01*
X115454639Y-92699522D01*
X115465806Y-92727969D01*
X115493005Y-92821878D01*
X115506790Y-92923552D01*
X115507815Y-92960000D01*
X115502505Y-93057617D01*
X115484599Y-93160027D01*
X115462875Y-93234040D01*
X115423811Y-93326089D01*
X115369399Y-93415266D01*
X115334891Y-93458743D01*
X115261615Y-93529440D01*
X115176729Y-93585948D01*
X115133635Y-93607243D01*
X115033395Y-93641401D01*
X114933423Y-93657475D01*
X114871807Y-93660000D01*
X114768345Y-93650769D01*
X114674113Y-93623077D01*
X114662247Y-93617990D01*
X114574685Y-93570362D01*
X114500558Y-93511500D01*
X114433290Y-93434941D01*
X114393579Y-93369839D01*
X114355187Y-93278859D01*
X114342777Y-93230132D01*
X114365247Y-93224759D01*
X114412624Y-93315219D01*
X114485313Y-93386866D01*
X114504466Y-93400614D01*
X114595999Y-93447106D01*
X114699142Y-93469897D01*
X114750662Y-93472421D01*
X114850761Y-93464762D01*
X114947198Y-93439384D01*
X114978785Y-93426015D01*
X115063536Y-93374996D01*
X115137847Y-93304013D01*
X115141939Y-93299009D01*
X115198726Y-93212302D01*
X115237988Y-93119924D01*
X115240125Y-93113384D01*
X115264318Y-93012777D01*
X115273534Y-92915003D01*
X115273831Y-92893565D01*
X115271388Y-92835436D01*
X115268457Y-92784633D01*
X114365247Y-92784633D01*
X114379619Y-92686325D01*
X114408838Y-92601939D01*
X114643684Y-92601939D01*
X114653454Y-92661535D01*
X114683251Y-92703545D01*
X114747732Y-92717711D01*
X114826378Y-92720153D01*
X114924535Y-92721120D01*
X114945080Y-92721618D01*
X115044574Y-92724458D01*
X115047662Y-92724549D01*
X115147313Y-92726015D01*
X115246689Y-92726015D01*
X115262595Y-92726015D01*
X115233359Y-92632746D01*
X115231821Y-92628806D01*
X115184455Y-92538530D01*
X115160013Y-92503754D01*
X115091953Y-92429061D01*
X115050593Y-92395310D01*
X114960513Y-92354387D01*
X114907955Y-92348904D01*
X114805573Y-92365326D01*
X114720027Y-92419044D01*
X114715491Y-92423642D01*
X114661636Y-92505341D01*
X114643684Y-92601939D01*
X114408838Y-92601939D01*
X114413447Y-92588628D01*
X114418981Y-92577515D01*
X114474313Y-92492121D01*
X114535729Y-92430969D01*
X114618812Y-92377235D01*
X114704256Y-92344019D01*
X114804640Y-92322770D01*
X114904517Y-92315715D01*
X114911374Y-92315687D01*
X115009193Y-92323724D01*
G37*
G36*
X113311095Y-92459302D02*
G01*
X113348869Y-92366711D01*
X113360432Y-92356231D01*
X113450342Y-92317627D01*
X113480111Y-92315687D01*
X113576649Y-92332391D01*
X113634961Y-92363070D01*
X113711592Y-92429359D01*
X113750244Y-92475910D01*
X113805712Y-92561191D01*
X113828890Y-92605359D01*
X113871029Y-92696069D01*
X113873831Y-92702568D01*
X113879692Y-92702568D01*
X113873831Y-92315687D01*
X113890928Y-92315687D01*
X114259246Y-92456371D01*
X114259246Y-92472979D01*
X114191835Y-92508150D01*
X114132728Y-92542833D01*
X114108792Y-92567745D01*
X114104396Y-92600963D01*
X114104396Y-93542763D01*
X114150802Y-93607243D01*
X114246225Y-93630591D01*
X114262177Y-93632156D01*
X114262177Y-93660000D01*
X113632030Y-93660000D01*
X113632030Y-93632156D01*
X113697976Y-93625317D01*
X113771249Y-93618478D01*
X113834752Y-93598939D01*
X113870900Y-93559860D01*
X113870900Y-92756789D01*
X113831821Y-92669351D01*
X113781018Y-92586796D01*
X113720446Y-92527201D01*
X113654501Y-92503265D01*
X113592463Y-92517920D01*
X113550453Y-92550160D01*
X113504047Y-92582889D01*
X113432240Y-92597055D01*
X113347732Y-92557976D01*
X113311238Y-92466614D01*
X113311095Y-92459302D01*
G37*
D11*
G36*
X133838799Y-84883698D02*
G01*
X129030879Y-84883698D01*
X129030879Y-86384326D01*
X130617236Y-86384326D01*
X130617236Y-90980000D01*
X132251221Y-90980000D01*
X132251221Y-86384326D01*
X133838799Y-86384326D01*
X133838799Y-84883698D01*
G37*
G36*
X128426378Y-84883698D02*
G01*
X126792393Y-84883698D01*
X126792393Y-86947062D01*
X125170621Y-86947062D01*
X125170621Y-84883698D01*
X123530530Y-84883698D01*
X123530530Y-90980000D01*
X125170621Y-90980000D01*
X125170621Y-88541479D01*
X126792393Y-88541479D01*
X126792393Y-90980000D01*
X128426378Y-90980000D01*
X128426378Y-84883698D01*
G37*
G36*
X122585310Y-90980000D02*
G01*
X120945219Y-90980000D01*
X120945219Y-88541479D01*
X120846301Y-88541479D01*
X120713515Y-88556891D01*
X120487264Y-88671905D01*
X120345369Y-88863095D01*
X120217376Y-89118869D01*
X119375959Y-90980000D01*
X117529483Y-90980000D01*
X118311060Y-89186280D01*
X118382086Y-89045430D01*
X118534542Y-88800865D01*
X118612776Y-88686193D01*
X118789776Y-88469672D01*
X118848472Y-88421616D01*
X119074319Y-88292351D01*
X118873481Y-88217755D01*
X118653000Y-88085722D01*
X118465620Y-87927269D01*
X118290357Y-87721235D01*
X118147418Y-87481953D01*
X118042430Y-87209424D01*
X117981022Y-86903647D01*
X117972045Y-86750690D01*
X119604326Y-86750690D01*
X119605719Y-86795112D01*
X119693475Y-87070160D01*
X119710652Y-87095074D01*
X119924284Y-87241618D01*
X120078211Y-87280580D01*
X120328506Y-87322219D01*
X120945219Y-87322219D01*
X120945219Y-86196748D01*
X120300418Y-86196748D01*
X120225625Y-86198010D01*
X119973892Y-86228304D01*
X119747208Y-86340362D01*
X119660139Y-86464697D01*
X119604326Y-86750690D01*
X117972045Y-86750690D01*
X117963014Y-86596817D01*
X117965139Y-86488179D01*
X117997017Y-86180811D01*
X118077303Y-85871920D01*
X118204815Y-85597376D01*
X118235474Y-85546920D01*
X118406372Y-85325213D01*
X118606608Y-85154453D01*
X118836182Y-85034640D01*
X118886200Y-85016362D01*
X119143982Y-84948703D01*
X119418049Y-84908609D01*
X119692545Y-84889005D01*
X119953593Y-84883698D01*
X122585310Y-84883698D01*
X122585310Y-90980000D01*
G37*
G36*
X113946441Y-84883698D02*
G01*
X112316120Y-84883698D01*
X112316120Y-88501912D01*
X112327325Y-88800032D01*
X112366061Y-89120944D01*
X112432464Y-89430980D01*
X112457780Y-89521870D01*
X112562061Y-89810696D01*
X112697825Y-90076339D01*
X112865074Y-90318798D01*
X112902302Y-90364508D01*
X113094691Y-90568784D01*
X113313482Y-90744892D01*
X113539776Y-90870090D01*
X113781348Y-90959208D01*
X114045664Y-91022864D01*
X114295599Y-91057676D01*
X114562949Y-91072993D01*
X114642533Y-91073789D01*
X114905152Y-91066343D01*
X115158172Y-91046651D01*
X115424788Y-91014651D01*
X115452198Y-91010774D01*
X115712493Y-90960285D01*
X115967136Y-90876977D01*
X116188590Y-90764577D01*
X116405031Y-90603148D01*
X116607390Y-90398030D01*
X116734473Y-90237013D01*
X116886437Y-89998487D01*
X117010085Y-89731957D01*
X117073970Y-89527732D01*
X117144220Y-89213151D01*
X117191479Y-88918971D01*
X117217024Y-88616034D01*
X117219295Y-88501912D01*
X117219295Y-84883698D01*
X115588974Y-84883698D01*
X115588974Y-88579581D01*
X115563432Y-88878400D01*
X115467387Y-89168145D01*
X115372819Y-89312309D01*
X115167782Y-89481200D01*
X114928071Y-89560679D01*
X114765875Y-89573161D01*
X114520625Y-89542857D01*
X114282503Y-89428905D01*
X114163817Y-89316706D01*
X114023074Y-89070625D01*
X113956842Y-88778644D01*
X113946441Y-88579581D01*
X113946441Y-84883698D01*
G37*
G36*
X111728715Y-88843363D02*
G01*
X110171667Y-88726127D01*
X110125871Y-89017074D01*
X110037113Y-89302220D01*
X109979937Y-89409030D01*
X109798718Y-89609270D01*
X109570744Y-89726393D01*
X109322923Y-89760739D01*
X109073013Y-89728201D01*
X108847485Y-89601205D01*
X108836880Y-89590746D01*
X108688267Y-89344880D01*
X108668353Y-89199469D01*
X108750367Y-88921530D01*
X108827110Y-88824312D01*
X109056785Y-88675528D01*
X109295773Y-88582547D01*
X109568218Y-88501650D01*
X109606245Y-88491653D01*
X109855335Y-88420945D01*
X110140829Y-88324316D01*
X110397582Y-88218529D01*
X110625594Y-88103582D01*
X110861269Y-87953556D01*
X111083914Y-87761856D01*
X111260453Y-87546414D01*
X111409116Y-87270312D01*
X111501146Y-86962337D01*
X111535215Y-86666713D01*
X111536985Y-86577766D01*
X111509711Y-86258750D01*
X111427891Y-85952549D01*
X111306175Y-85685303D01*
X111138855Y-85440326D01*
X110950131Y-85250436D01*
X110725278Y-85089526D01*
X110613747Y-85027313D01*
X110362635Y-84923449D01*
X110108601Y-84856911D01*
X109865369Y-84817961D01*
X109598610Y-84795705D01*
X109358339Y-84789909D01*
X109063894Y-84800535D01*
X108791929Y-84832413D01*
X108542445Y-84885543D01*
X108272738Y-84977351D01*
X108035402Y-85099763D01*
X107862351Y-85225150D01*
X107655150Y-85442425D01*
X107487686Y-85713416D01*
X107375774Y-85988447D01*
X107293055Y-86302942D01*
X107246425Y-86595167D01*
X107239532Y-86656901D01*
X108783147Y-86762414D01*
X108851704Y-86465134D01*
X108988098Y-86211472D01*
X109020062Y-86177697D01*
X109246544Y-86046199D01*
X109492580Y-86009334D01*
X109512212Y-86009169D01*
X109759980Y-86048118D01*
X109894452Y-86132267D01*
X110017921Y-86393648D01*
X110019016Y-86425359D01*
X109918876Y-86643712D01*
X109692012Y-86769389D01*
X109440480Y-86845570D01*
X109415736Y-86851807D01*
X109168306Y-86916516D01*
X108884404Y-86998046D01*
X108628706Y-87080292D01*
X108359099Y-87179932D01*
X108095891Y-87297480D01*
X107941730Y-87382302D01*
X107708162Y-87546290D01*
X107513041Y-87731608D01*
X107341332Y-87962532D01*
X107285938Y-88062274D01*
X107177102Y-88326343D01*
X107108576Y-88609302D01*
X107080359Y-88911152D01*
X107079553Y-88973789D01*
X107101288Y-89298803D01*
X107166493Y-89609442D01*
X107275168Y-89905708D01*
X107354326Y-90064089D01*
X107505146Y-90298104D01*
X107682833Y-90501894D01*
X107887386Y-90675459D01*
X108118806Y-90818799D01*
X108378772Y-90930357D01*
X108632038Y-91001824D01*
X108909380Y-91048887D01*
X109166265Y-91069805D01*
X109347348Y-91073789D01*
X109660074Y-91064149D01*
X109947956Y-91035229D01*
X110210994Y-90987029D01*
X110449188Y-90919549D01*
X110711994Y-90808087D01*
X110935980Y-90666500D01*
X111153524Y-90456831D01*
X111327790Y-90212129D01*
X111471402Y-89940739D01*
X111584359Y-89642661D01*
X111666663Y-89317896D01*
X111711832Y-89026873D01*
X111728715Y-88843363D01*
G37*
G36*
X106757152Y-84883698D02*
G01*
X101949232Y-84883698D01*
X101949232Y-86384326D01*
X103535589Y-86384326D01*
X103535589Y-90980000D01*
X105169574Y-90980000D01*
X105169574Y-86384326D01*
X106757152Y-86384326D01*
X106757152Y-84883698D01*
G37*
M02*
