%TF.GenerationSoftware,KiCad,Pcbnew,8.0.8*%
%TF.CreationDate,2025-08-03T10:40:01+05:30*%
%TF.ProjectId,THRUST FC,54485255-5354-4204-9643-2e6b69636164,rev?*%
%TF.SameCoordinates,Original*%
%TF.FileFunction,Copper,L3,Inr*%
%TF.FilePolarity,Positive*%
%FSLAX46Y46*%
G04 Gerber Fmt 4.6, Leading zero omitted, Abs format (unit mm)*
G04 Created by KiCad (PCBNEW 8.0.8) date 2025-08-03 10:40:01*
%MOMM*%
%LPD*%
G01*
G04 APERTURE LIST*
%TA.AperFunction,ComponentPad*%
%ADD10R,1.800000X1.800000*%
%TD*%
%TA.AperFunction,ComponentPad*%
%ADD11C,1.800000*%
%TD*%
%TA.AperFunction,ComponentPad*%
%ADD12R,0.850000X0.850000*%
%TD*%
%TA.AperFunction,ComponentPad*%
%ADD13O,0.850000X0.850000*%
%TD*%
%TA.AperFunction,ViaPad*%
%ADD14C,0.400000*%
%TD*%
%TA.AperFunction,ViaPad*%
%ADD15C,0.600000*%
%TD*%
%TA.AperFunction,Conductor*%
%ADD16C,0.200000*%
%TD*%
%TA.AperFunction,Conductor*%
%ADD17C,0.400000*%
%TD*%
G04 APERTURE END LIST*
D10*
%TO.N,PC13*%
%TO.C,D1*%
X119000000Y-86000000D03*
D11*
%TO.N,VDD*%
X121540000Y-86000000D03*
%TD*%
D12*
%TO.N,GND*%
%TO.C,J1*%
X118000000Y-109000000D03*
D13*
%TO.N,SWCLK*%
X119000000Y-109000000D03*
%TO.N,SWDIO*%
X120000000Y-109000000D03*
%TO.N,VDD*%
X121000000Y-109000000D03*
%TD*%
D12*
%TO.N,M4*%
%TO.C,J4*%
X106000000Y-110000000D03*
D13*
%TO.N,M3*%
X107000000Y-110000000D03*
%TO.N,M2*%
X108000000Y-110000000D03*
%TO.N,M1*%
X109000000Y-110000000D03*
%TD*%
D12*
%TO.N,SCL*%
%TO.C,J6*%
X126000000Y-110000000D03*
D13*
%TO.N,VDD*%
X127000000Y-110000000D03*
%TO.N,GND*%
X128000000Y-110000000D03*
%TO.N,SDA*%
X129000000Y-110000000D03*
%TD*%
D12*
%TO.N,+5V*%
%TO.C,J3*%
X111000000Y-110000000D03*
D13*
%TO.N,GND*%
X112000000Y-110000000D03*
%TD*%
D10*
%TO.N,GND*%
%TO.C,D2*%
X132460000Y-88000000D03*
D11*
%TO.N,VDD*%
X135000000Y-88000000D03*
%TD*%
D12*
%TO.N,+5V*%
%TO.C,J2*%
X100000000Y-109000000D03*
D13*
%TO.N,D-*%
X101000000Y-109000000D03*
%TO.N,D+*%
X102000000Y-109000000D03*
%TO.N,GND*%
X103000000Y-109000000D03*
%TD*%
D14*
%TO.N,GND*%
X128450000Y-94616115D03*
D15*
X110200000Y-101037500D03*
D14*
X126888909Y-96111092D03*
D15*
%TO.N,+5V*%
X122600000Y-106307108D03*
X116000000Y-101000000D03*
%TO.N,VREF+*%
X107327817Y-95750001D03*
X110168870Y-97925000D03*
%TO.N,NRST*%
X133000000Y-100000000D03*
D14*
X115565000Y-94250000D03*
D15*
%TO.N,VDD*%
X129000002Y-89000000D03*
X118000000Y-103000000D03*
D14*
X125000000Y-88000000D03*
D15*
X118000000Y-105000000D03*
D14*
X111000000Y-92350001D03*
D15*
X115000000Y-106000000D03*
D14*
X103831801Y-97831801D03*
X116000000Y-88000000D03*
%TO.N,ADC*%
X124000000Y-96000000D03*
X116000000Y-99000000D03*
%TO.N,PC13*%
X114000000Y-92350001D03*
D15*
%TO.N,M4*%
X117466473Y-89616473D03*
D14*
%TO.N,SCL*%
X119235002Y-90849998D03*
D15*
%TO.N,BOOT0*%
X122000000Y-88600000D03*
D14*
X125000000Y-88550000D03*
D15*
%TO.N,PA12*%
X102991206Y-103991206D03*
D14*
X123148669Y-97700221D03*
X122435000Y-92750000D03*
D15*
X122409744Y-104112500D03*
%TO.N,PA11*%
X109900000Y-102725425D03*
D14*
X122150000Y-93235002D03*
%TO.N,Net-(U3-INT2{slash}FSYNC{slash}CLKIN)*%
X115144975Y-104512500D03*
X126328237Y-99250000D03*
D15*
%TO.N,PA2*%
X115600000Y-96885002D03*
D14*
%TO.N,PB13*%
X123173666Y-96450000D03*
%TO.N,PB15*%
X123131436Y-95200000D03*
%TO.N,SWCLK*%
X121750000Y-90565000D03*
%TO.N,SWDIO*%
X122715000Y-92235002D03*
%TO.N,M3*%
X125000000Y-90550001D03*
%TO.N,M2*%
X126062500Y-95950003D03*
D15*
%TO.N,M1*%
X124000000Y-95000000D03*
D14*
%TO.N,SDA*%
X118752513Y-90567513D03*
%TO.N,PA5*%
X125890692Y-98916746D03*
X117235002Y-97800221D03*
%TO.N,PA6*%
X117750000Y-97435000D03*
D15*
X124000000Y-99000000D03*
D14*
%TO.N,PA4*%
X126525000Y-98085000D03*
X116750000Y-97435000D03*
D15*
%TO.N,PA7*%
X124079312Y-97650221D03*
D14*
X118235002Y-97800221D03*
%TO.N,PA3*%
X113000000Y-95000000D03*
X114550000Y-98000000D03*
X104000000Y-87000000D03*
%TO.N,unconnected-(U1-PB12-Pad25)*%
X122552142Y-97685002D03*
X124000000Y-100450000D03*
%TO.N,VDD*%
X129700000Y-95800000D03*
X127472917Y-97736403D03*
%TD*%
D16*
%TO.N,NRST*%
X126100000Y-93100000D02*
X123627207Y-93100000D01*
X133000000Y-100000000D02*
X126100000Y-93100000D01*
X123627207Y-93100000D02*
X122477207Y-94250000D01*
X122477207Y-94250000D02*
X115565000Y-94250000D01*
D17*
%TO.N,VDD*%
X106023835Y-97831801D02*
X103831801Y-97831801D01*
X112255810Y-96427818D02*
X107427818Y-96427818D01*
X107427818Y-96427818D02*
X106023835Y-97831801D01*
D16*
X125000000Y-88000000D02*
X120683628Y-88000000D01*
X120683628Y-88000000D02*
X112255810Y-96427818D01*
D17*
X108405636Y-95450000D02*
X107427818Y-96427818D01*
D16*
X116000000Y-92636397D02*
X113186397Y-95450000D01*
D17*
X113186397Y-95450000D02*
X108405636Y-95450000D01*
D16*
X116000000Y-88000000D02*
X116000000Y-92636397D01*
%TO.N,PA11*%
X122420002Y-93235002D02*
X122150000Y-93235002D01*
X112274575Y-100350850D02*
X112274575Y-96904028D01*
X112274575Y-96904028D02*
X115928603Y-93250000D01*
X115928603Y-93250000D02*
X122435000Y-93250000D01*
X122435000Y-93250000D02*
X122420002Y-93235002D01*
X109900000Y-102725425D02*
X112274575Y-100350850D01*
%TO.N,Net-(U3-INT2{slash}FSYNC{slash}CLKIN)*%
X125965001Y-100450000D02*
X124861535Y-100450000D01*
X121749035Y-103562500D02*
X116094975Y-103562500D01*
X116094975Y-103562500D02*
X115144975Y-104512500D01*
X126328237Y-100086764D02*
X125965001Y-100450000D01*
X126328237Y-99250000D02*
X126328237Y-100086764D01*
X124861535Y-100450000D02*
X121749035Y-103562500D01*
%TO.N,M2*%
X118000000Y-100000000D02*
X108000000Y-110000000D01*
X126062500Y-97937500D02*
X124000000Y-100000000D01*
X124000000Y-100000000D02*
X118000000Y-100000000D01*
X126062500Y-95950003D02*
X126062500Y-97937500D01*
%TO.N,PA3*%
X112000000Y-95000000D02*
X113000000Y-95000000D01*
X104000000Y-87000000D02*
X112000000Y-95000000D01*
%TD*%
M02*
