%TF.GenerationSoftware,KiCad,Pcbnew,8.0.8*%
%TF.CreationDate,2025-07-31T23:02:19+05:30*%
%TF.ProjectId,THRUST FC,54485255-5354-4204-9643-2e6b69636164,rev?*%
%TF.SameCoordinates,Original*%
%TF.FileFunction,Copper,L4,Bot*%
%TF.FilePolarity,Positive*%
%FSLAX46Y46*%
G04 Gerber Fmt 4.6, Leading zero omitted, Abs format (unit mm)*
G04 Created by KiCad (PCBNEW 8.0.8) date 2025-07-31 23:02:19*
%MOMM*%
%LPD*%
G01*
G04 APERTURE LIST*
%TA.AperFunction,ComponentPad*%
%ADD10R,1.800000X1.800000*%
%TD*%
%TA.AperFunction,ComponentPad*%
%ADD11C,1.800000*%
%TD*%
%TA.AperFunction,ComponentPad*%
%ADD12R,0.850000X0.850000*%
%TD*%
%TA.AperFunction,ComponentPad*%
%ADD13O,0.850000X0.850000*%
%TD*%
%TA.AperFunction,ViaPad*%
%ADD14C,0.400000*%
%TD*%
%TA.AperFunction,ViaPad*%
%ADD15C,0.600000*%
%TD*%
%TA.AperFunction,Conductor*%
%ADD16C,0.200000*%
%TD*%
G04 APERTURE END LIST*
D10*
%TO.P,D1,1,K*%
%TO.N,PC13*%
X119000000Y-86000000D03*
D11*
%TO.P,D1,2,A*%
%TO.N,VDD*%
X121540000Y-86000000D03*
%TD*%
D12*
%TO.P,J1,1,Pin_1*%
%TO.N,GND*%
X118000000Y-109000000D03*
D13*
%TO.P,J1,2,Pin_2*%
%TO.N,SWCLK*%
X119000000Y-109000000D03*
%TO.P,J1,3,Pin_3*%
%TO.N,SWDIO*%
X120000000Y-109000000D03*
%TO.P,J1,4,Pin_4*%
%TO.N,VDD*%
X121000000Y-109000000D03*
%TD*%
D12*
%TO.P,J4,1,Pin_1*%
%TO.N,M4*%
X106000000Y-110000000D03*
D13*
%TO.P,J4,2,Pin_2*%
%TO.N,M3*%
X107000000Y-110000000D03*
%TO.P,J4,3,Pin_3*%
%TO.N,M2*%
X108000000Y-110000000D03*
%TO.P,J4,4,Pin_4*%
%TO.N,M1*%
X109000000Y-110000000D03*
%TD*%
D12*
%TO.P,J6,1,Pin_1*%
%TO.N,SCL*%
X126000000Y-110000000D03*
D13*
%TO.P,J6,2,Pin_2*%
%TO.N,VDD*%
X127000000Y-110000000D03*
%TO.P,J6,3,Pin_3*%
%TO.N,GND*%
X128000000Y-110000000D03*
%TO.P,J6,4,Pin_4*%
%TO.N,SDA*%
X129000000Y-110000000D03*
%TD*%
D12*
%TO.P,J3,1,Pin_1*%
%TO.N,+5V*%
X111000000Y-110000000D03*
D13*
%TO.P,J3,2,Pin_2*%
%TO.N,GND*%
X112000000Y-110000000D03*
%TD*%
D10*
%TO.P,D2,1,K*%
%TO.N,GND*%
X132460000Y-88000000D03*
D11*
%TO.P,D2,2,A*%
%TO.N,VDD*%
X135000000Y-88000000D03*
%TD*%
D12*
%TO.P,J2,1,Pin_1*%
%TO.N,+5V*%
X100000000Y-109000000D03*
D13*
%TO.P,J2,2,Pin_2*%
%TO.N,D-*%
X101000000Y-109000000D03*
%TO.P,J2,3,Pin_3*%
%TO.N,D+*%
X102000000Y-109000000D03*
%TO.P,J2,4,Pin_4*%
%TO.N,GND*%
X103000000Y-109000000D03*
%TD*%
D14*
%TO.N,VDD*%
X125000000Y-88000000D03*
X103831801Y-97831801D03*
X111000000Y-92350001D03*
%TO.N,ADC*%
X116000000Y-99000000D03*
%TO.N,GND*%
X128450000Y-94616115D03*
X126888909Y-96111092D03*
%TO.N,M3*%
X125000000Y-90550001D03*
D15*
%TO.N,GND*%
X110200000Y-101037500D03*
%TO.N,+5V*%
X122600000Y-106307108D03*
X116000000Y-101000000D03*
%TO.N,VREF+*%
X107327817Y-95750001D03*
X110168870Y-97925000D03*
%TO.N,NRST*%
X133000000Y-100000000D03*
D14*
X115565000Y-94250000D03*
D15*
%TO.N,VDD*%
X129000002Y-89000000D03*
X118000000Y-103000000D03*
X118000000Y-105000000D03*
X115000000Y-106000000D03*
D14*
%TO.N,ADC*%
X124000000Y-96000000D03*
%TO.N,PC13*%
X114000000Y-92350001D03*
D15*
%TO.N,M4*%
X116850000Y-89616473D03*
D14*
%TO.N,SCL*%
X119235002Y-90849998D03*
D15*
%TO.N,BOOT0*%
X122000000Y-88600000D03*
D14*
X125000000Y-88550000D03*
D15*
%TO.N,PA12*%
X102991206Y-103991206D03*
D14*
X123148669Y-97700221D03*
X122435000Y-92750000D03*
D15*
X122409744Y-104112500D03*
%TO.N,PA11*%
X109900000Y-102725425D03*
D14*
X122150000Y-93235002D03*
%TO.N,Net-(U3-INT2{slash}FSYNC{slash}CLKIN)*%
X115144975Y-104512500D03*
X126328237Y-99250000D03*
D15*
%TO.N,PA2*%
X115600000Y-96885002D03*
D14*
%TO.N,PB13*%
X123173666Y-96450000D03*
%TO.N,PB15*%
X123131436Y-95200000D03*
%TO.N,SWCLK*%
X121750000Y-90565000D03*
%TO.N,SWDIO*%
X122715000Y-92235002D03*
%TO.N,M2*%
X126062500Y-95950003D03*
D15*
%TO.N,M1*%
X124000000Y-95000000D03*
D14*
%TO.N,SDA*%
X118752513Y-90567513D03*
%TO.N,PA5*%
X125890692Y-98916746D03*
X117235002Y-97800221D03*
%TO.N,PA6*%
X117750000Y-97435000D03*
D15*
X124000000Y-99000000D03*
D14*
%TO.N,PA4*%
X126525000Y-98085000D03*
X116750000Y-97435000D03*
D15*
%TO.N,PA7*%
X124079312Y-97650221D03*
D14*
X118235002Y-97800221D03*
%TO.N,PA3*%
X113000000Y-95000000D03*
X114550000Y-98000000D03*
X104000000Y-87000000D03*
%TO.N,unconnected-(U1-PB12-Pad25)*%
X122552142Y-97685002D03*
X124000000Y-100450000D03*
%TO.N,VDD*%
X116000000Y-88000000D03*
%TD*%
D16*
%TO.N,VDD*%
X111649999Y-93000000D02*
X111000000Y-92350001D01*
X111649999Y-94650001D02*
X111649999Y-93000000D01*
X112000000Y-95000002D02*
X111649999Y-94650001D01*
%TO.N,GND*%
X128383886Y-94616115D02*
X126888909Y-96111092D01*
X128450000Y-94616115D02*
X128383886Y-94616115D01*
X110237499Y-101000001D02*
X110200000Y-101037500D01*
X112000000Y-101000001D02*
X110237499Y-101000001D01*
%TO.N,VREF+*%
X108772182Y-99550000D02*
X109227818Y-99550000D01*
X109227818Y-99550000D02*
X110249999Y-98527819D01*
X110168870Y-98446690D02*
X110249999Y-98527819D01*
X107327817Y-98105635D02*
X108772182Y-99550000D01*
X110168870Y-97925000D02*
X110168870Y-98446690D01*
X107327817Y-95750001D02*
X107327817Y-98105635D01*
%TO.N,VDD*%
X125601040Y-108000000D02*
X127000000Y-109398960D01*
X121000000Y-108000000D02*
X125601040Y-108000000D01*
X112000000Y-95000002D02*
X111100000Y-95000002D01*
X109000000Y-97100002D02*
X109000000Y-99000000D01*
X111100000Y-95000002D02*
X109000000Y-97100002D01*
X118037500Y-106000000D02*
X121000000Y-106000000D01*
X121000000Y-108000000D02*
X121000000Y-109000000D01*
X121000000Y-106000000D02*
X121000000Y-108000000D01*
X118037500Y-106000000D02*
X115000000Y-106000000D01*
X127000000Y-109398960D02*
X127000000Y-110000000D01*
%TO.N,M4*%
X114566472Y-91900001D02*
X116850000Y-89616473D01*
X102391206Y-99908794D02*
X110399999Y-91900001D01*
X102391206Y-106391206D02*
X102391206Y-99908794D01*
X110399999Y-91900001D02*
X114566472Y-91900001D01*
X106000000Y-110000000D02*
X102391206Y-106391206D01*
%TO.N,BOOT0*%
X123450000Y-88550000D02*
X123400000Y-88600000D01*
X122000000Y-88600000D02*
X123400000Y-88600000D01*
X125000000Y-88550000D02*
X123450000Y-88550000D01*
%TO.N,PA12*%
X104000000Y-103000000D02*
X108151471Y-103000000D01*
X108151471Y-103000000D02*
X109051470Y-102100001D01*
X102887500Y-104112500D02*
X104000000Y-103000000D01*
X120397245Y-102100001D02*
X122409744Y-104112500D01*
X109051470Y-102100001D02*
X120397245Y-102100001D01*
%TO.N,PA2*%
X114000000Y-96000000D02*
X114885002Y-96885002D01*
X114885002Y-96885002D02*
X115600000Y-96885002D01*
X114000000Y-94100002D02*
X114000000Y-96000000D01*
X112899999Y-93000001D02*
X114000000Y-94100002D01*
X111999999Y-93000001D02*
X112899999Y-93000001D01*
%TO.N,PB13*%
X124500002Y-96600000D02*
X124000000Y-96600000D01*
X127000001Y-95000001D02*
X126100001Y-95000001D01*
X123323666Y-96600000D02*
X123173666Y-96450000D01*
X126100001Y-95000001D02*
X124500002Y-96600000D01*
X124000000Y-96600000D02*
X123323666Y-96600000D01*
%TO.N,PB15*%
X123131436Y-94368565D02*
X124000000Y-93500001D01*
X123131436Y-95200000D02*
X123131436Y-94368565D01*
%TO.N,unconnected-(U1-PB12-Pad25)*%
X124000000Y-100450000D02*
X122552142Y-99002142D01*
X122552142Y-99002142D02*
X122552142Y-97685002D01*
%TD*%
M02*
