%TF.GenerationSoftware,KiCad,Pcbnew,8.0.8*%
%TF.CreationDate,2025-08-03T10:40:01+05:30*%
%TF.ProjectId,THRUST FC,54485255-5354-4204-9643-2e6b69636164,rev?*%
%TF.SameCoordinates,Original*%
%TF.FileFunction,Legend,Top*%
%TF.FilePolarity,Positive*%
%FSLAX46Y46*%
G04 Gerber Fmt 4.6, Leading zero omitted, Abs format (unit mm)*
G04 Created by KiCad (PCBNEW 8.0.8) date 2025-08-03 10:40:01*
%MOMM*%
%LPD*%
G01*
G04 APERTURE LIST*
%ADD10C,0.150000*%
%ADD11C,0.120000*%
%ADD12C,0.127000*%
%ADD13C,0.200000*%
G04 APERTURE END LIST*
D10*
X105523809Y-91428628D02*
X105523809Y-91904819D01*
X105190476Y-90904819D02*
X105523809Y-91428628D01*
X105523809Y-91428628D02*
X105857142Y-90904819D01*
X106714285Y-91904819D02*
X106142857Y-91904819D01*
X106428571Y-91904819D02*
X106428571Y-90904819D01*
X106428571Y-90904819D02*
X106333333Y-91047676D01*
X106333333Y-91047676D02*
X106238095Y-91142914D01*
X106238095Y-91142914D02*
X106142857Y-91190533D01*
X122833333Y-108039580D02*
X122785714Y-108087200D01*
X122785714Y-108087200D02*
X122642857Y-108134819D01*
X122642857Y-108134819D02*
X122547619Y-108134819D01*
X122547619Y-108134819D02*
X122404762Y-108087200D01*
X122404762Y-108087200D02*
X122309524Y-107991961D01*
X122309524Y-107991961D02*
X122261905Y-107896723D01*
X122261905Y-107896723D02*
X122214286Y-107706247D01*
X122214286Y-107706247D02*
X122214286Y-107563390D01*
X122214286Y-107563390D02*
X122261905Y-107372914D01*
X122261905Y-107372914D02*
X122309524Y-107277676D01*
X122309524Y-107277676D02*
X122404762Y-107182438D01*
X122404762Y-107182438D02*
X122547619Y-107134819D01*
X122547619Y-107134819D02*
X122642857Y-107134819D01*
X122642857Y-107134819D02*
X122785714Y-107182438D01*
X122785714Y-107182438D02*
X122833333Y-107230057D01*
X123404762Y-107563390D02*
X123309524Y-107515771D01*
X123309524Y-107515771D02*
X123261905Y-107468152D01*
X123261905Y-107468152D02*
X123214286Y-107372914D01*
X123214286Y-107372914D02*
X123214286Y-107325295D01*
X123214286Y-107325295D02*
X123261905Y-107230057D01*
X123261905Y-107230057D02*
X123309524Y-107182438D01*
X123309524Y-107182438D02*
X123404762Y-107134819D01*
X123404762Y-107134819D02*
X123595238Y-107134819D01*
X123595238Y-107134819D02*
X123690476Y-107182438D01*
X123690476Y-107182438D02*
X123738095Y-107230057D01*
X123738095Y-107230057D02*
X123785714Y-107325295D01*
X123785714Y-107325295D02*
X123785714Y-107372914D01*
X123785714Y-107372914D02*
X123738095Y-107468152D01*
X123738095Y-107468152D02*
X123690476Y-107515771D01*
X123690476Y-107515771D02*
X123595238Y-107563390D01*
X123595238Y-107563390D02*
X123404762Y-107563390D01*
X123404762Y-107563390D02*
X123309524Y-107611009D01*
X123309524Y-107611009D02*
X123261905Y-107658628D01*
X123261905Y-107658628D02*
X123214286Y-107753866D01*
X123214286Y-107753866D02*
X123214286Y-107944342D01*
X123214286Y-107944342D02*
X123261905Y-108039580D01*
X123261905Y-108039580D02*
X123309524Y-108087200D01*
X123309524Y-108087200D02*
X123404762Y-108134819D01*
X123404762Y-108134819D02*
X123595238Y-108134819D01*
X123595238Y-108134819D02*
X123690476Y-108087200D01*
X123690476Y-108087200D02*
X123738095Y-108039580D01*
X123738095Y-108039580D02*
X123785714Y-107944342D01*
X123785714Y-107944342D02*
X123785714Y-107753866D01*
X123785714Y-107753866D02*
X123738095Y-107658628D01*
X123738095Y-107658628D02*
X123690476Y-107611009D01*
X123690476Y-107611009D02*
X123595238Y-107563390D01*
X116804819Y-100166666D02*
X116328628Y-100499999D01*
X116804819Y-100738094D02*
X115804819Y-100738094D01*
X115804819Y-100738094D02*
X115804819Y-100357142D01*
X115804819Y-100357142D02*
X115852438Y-100261904D01*
X115852438Y-100261904D02*
X115900057Y-100214285D01*
X115900057Y-100214285D02*
X115995295Y-100166666D01*
X115995295Y-100166666D02*
X116138152Y-100166666D01*
X116138152Y-100166666D02*
X116233390Y-100214285D01*
X116233390Y-100214285D02*
X116281009Y-100261904D01*
X116281009Y-100261904D02*
X116328628Y-100357142D01*
X116328628Y-100357142D02*
X116328628Y-100738094D01*
X115900057Y-99785713D02*
X115852438Y-99738094D01*
X115852438Y-99738094D02*
X115804819Y-99642856D01*
X115804819Y-99642856D02*
X115804819Y-99404761D01*
X115804819Y-99404761D02*
X115852438Y-99309523D01*
X115852438Y-99309523D02*
X115900057Y-99261904D01*
X115900057Y-99261904D02*
X115995295Y-99214285D01*
X115995295Y-99214285D02*
X116090533Y-99214285D01*
X116090533Y-99214285D02*
X116233390Y-99261904D01*
X116233390Y-99261904D02*
X116804819Y-99833332D01*
X116804819Y-99833332D02*
X116804819Y-99214285D01*
X124039580Y-101642857D02*
X124087200Y-101690476D01*
X124087200Y-101690476D02*
X124134819Y-101833333D01*
X124134819Y-101833333D02*
X124134819Y-101928571D01*
X124134819Y-101928571D02*
X124087200Y-102071428D01*
X124087200Y-102071428D02*
X123991961Y-102166666D01*
X123991961Y-102166666D02*
X123896723Y-102214285D01*
X123896723Y-102214285D02*
X123706247Y-102261904D01*
X123706247Y-102261904D02*
X123563390Y-102261904D01*
X123563390Y-102261904D02*
X123372914Y-102214285D01*
X123372914Y-102214285D02*
X123277676Y-102166666D01*
X123277676Y-102166666D02*
X123182438Y-102071428D01*
X123182438Y-102071428D02*
X123134819Y-101928571D01*
X123134819Y-101928571D02*
X123134819Y-101833333D01*
X123134819Y-101833333D02*
X123182438Y-101690476D01*
X123182438Y-101690476D02*
X123230057Y-101642857D01*
X124134819Y-100690476D02*
X124134819Y-101261904D01*
X124134819Y-100976190D02*
X123134819Y-100976190D01*
X123134819Y-100976190D02*
X123277676Y-101071428D01*
X123277676Y-101071428D02*
X123372914Y-101166666D01*
X123372914Y-101166666D02*
X123420533Y-101261904D01*
X124134819Y-99738095D02*
X124134819Y-100309523D01*
X124134819Y-100023809D02*
X123134819Y-100023809D01*
X123134819Y-100023809D02*
X123277676Y-100119047D01*
X123277676Y-100119047D02*
X123372914Y-100214285D01*
X123372914Y-100214285D02*
X123420533Y-100309523D01*
X132833333Y-103804819D02*
X132500000Y-103328628D01*
X132261905Y-103804819D02*
X132261905Y-102804819D01*
X132261905Y-102804819D02*
X132642857Y-102804819D01*
X132642857Y-102804819D02*
X132738095Y-102852438D01*
X132738095Y-102852438D02*
X132785714Y-102900057D01*
X132785714Y-102900057D02*
X132833333Y-102995295D01*
X132833333Y-102995295D02*
X132833333Y-103138152D01*
X132833333Y-103138152D02*
X132785714Y-103233390D01*
X132785714Y-103233390D02*
X132738095Y-103281009D01*
X132738095Y-103281009D02*
X132642857Y-103328628D01*
X132642857Y-103328628D02*
X132261905Y-103328628D01*
X133738095Y-102804819D02*
X133261905Y-102804819D01*
X133261905Y-102804819D02*
X133214286Y-103281009D01*
X133214286Y-103281009D02*
X133261905Y-103233390D01*
X133261905Y-103233390D02*
X133357143Y-103185771D01*
X133357143Y-103185771D02*
X133595238Y-103185771D01*
X133595238Y-103185771D02*
X133690476Y-103233390D01*
X133690476Y-103233390D02*
X133738095Y-103281009D01*
X133738095Y-103281009D02*
X133785714Y-103376247D01*
X133785714Y-103376247D02*
X133785714Y-103614342D01*
X133785714Y-103614342D02*
X133738095Y-103709580D01*
X133738095Y-103709580D02*
X133690476Y-103757200D01*
X133690476Y-103757200D02*
X133595238Y-103804819D01*
X133595238Y-103804819D02*
X133357143Y-103804819D01*
X133357143Y-103804819D02*
X133261905Y-103757200D01*
X133261905Y-103757200D02*
X133214286Y-103709580D01*
X119531905Y-83494819D02*
X119531905Y-82494819D01*
X119531905Y-82494819D02*
X119770000Y-82494819D01*
X119770000Y-82494819D02*
X119912857Y-82542438D01*
X119912857Y-82542438D02*
X120008095Y-82637676D01*
X120008095Y-82637676D02*
X120055714Y-82732914D01*
X120055714Y-82732914D02*
X120103333Y-82923390D01*
X120103333Y-82923390D02*
X120103333Y-83066247D01*
X120103333Y-83066247D02*
X120055714Y-83256723D01*
X120055714Y-83256723D02*
X120008095Y-83351961D01*
X120008095Y-83351961D02*
X119912857Y-83447200D01*
X119912857Y-83447200D02*
X119770000Y-83494819D01*
X119770000Y-83494819D02*
X119531905Y-83494819D01*
X121055714Y-83494819D02*
X120484286Y-83494819D01*
X120770000Y-83494819D02*
X120770000Y-82494819D01*
X120770000Y-82494819D02*
X120674762Y-82637676D01*
X120674762Y-82637676D02*
X120579524Y-82732914D01*
X120579524Y-82732914D02*
X120484286Y-82780533D01*
X102679580Y-90680357D02*
X102727200Y-90727976D01*
X102727200Y-90727976D02*
X102774819Y-90870833D01*
X102774819Y-90870833D02*
X102774819Y-90966071D01*
X102774819Y-90966071D02*
X102727200Y-91108928D01*
X102727200Y-91108928D02*
X102631961Y-91204166D01*
X102631961Y-91204166D02*
X102536723Y-91251785D01*
X102536723Y-91251785D02*
X102346247Y-91299404D01*
X102346247Y-91299404D02*
X102203390Y-91299404D01*
X102203390Y-91299404D02*
X102012914Y-91251785D01*
X102012914Y-91251785D02*
X101917676Y-91204166D01*
X101917676Y-91204166D02*
X101822438Y-91108928D01*
X101822438Y-91108928D02*
X101774819Y-90966071D01*
X101774819Y-90966071D02*
X101774819Y-90870833D01*
X101774819Y-90870833D02*
X101822438Y-90727976D01*
X101822438Y-90727976D02*
X101870057Y-90680357D01*
X102774819Y-89727976D02*
X102774819Y-90299404D01*
X102774819Y-90013690D02*
X101774819Y-90013690D01*
X101774819Y-90013690D02*
X101917676Y-90108928D01*
X101917676Y-90108928D02*
X102012914Y-90204166D01*
X102012914Y-90204166D02*
X102060533Y-90299404D01*
X101774819Y-89394642D02*
X101774819Y-88775595D01*
X101774819Y-88775595D02*
X102155771Y-89108928D01*
X102155771Y-89108928D02*
X102155771Y-88966071D01*
X102155771Y-88966071D02*
X102203390Y-88870833D01*
X102203390Y-88870833D02*
X102251009Y-88823214D01*
X102251009Y-88823214D02*
X102346247Y-88775595D01*
X102346247Y-88775595D02*
X102584342Y-88775595D01*
X102584342Y-88775595D02*
X102679580Y-88823214D01*
X102679580Y-88823214D02*
X102727200Y-88870833D01*
X102727200Y-88870833D02*
X102774819Y-88966071D01*
X102774819Y-88966071D02*
X102774819Y-89251785D01*
X102774819Y-89251785D02*
X102727200Y-89347023D01*
X102727200Y-89347023D02*
X102679580Y-89394642D01*
X125319642Y-95039580D02*
X125272023Y-95087200D01*
X125272023Y-95087200D02*
X125129166Y-95134819D01*
X125129166Y-95134819D02*
X125033928Y-95134819D01*
X125033928Y-95134819D02*
X124891071Y-95087200D01*
X124891071Y-95087200D02*
X124795833Y-94991961D01*
X124795833Y-94991961D02*
X124748214Y-94896723D01*
X124748214Y-94896723D02*
X124700595Y-94706247D01*
X124700595Y-94706247D02*
X124700595Y-94563390D01*
X124700595Y-94563390D02*
X124748214Y-94372914D01*
X124748214Y-94372914D02*
X124795833Y-94277676D01*
X124795833Y-94277676D02*
X124891071Y-94182438D01*
X124891071Y-94182438D02*
X125033928Y-94134819D01*
X125033928Y-94134819D02*
X125129166Y-94134819D01*
X125129166Y-94134819D02*
X125272023Y-94182438D01*
X125272023Y-94182438D02*
X125319642Y-94230057D01*
X126272023Y-95134819D02*
X125700595Y-95134819D01*
X125986309Y-95134819D02*
X125986309Y-94134819D01*
X125986309Y-94134819D02*
X125891071Y-94277676D01*
X125891071Y-94277676D02*
X125795833Y-94372914D01*
X125795833Y-94372914D02*
X125700595Y-94420533D01*
X126891071Y-94134819D02*
X126986309Y-94134819D01*
X126986309Y-94134819D02*
X127081547Y-94182438D01*
X127081547Y-94182438D02*
X127129166Y-94230057D01*
X127129166Y-94230057D02*
X127176785Y-94325295D01*
X127176785Y-94325295D02*
X127224404Y-94515771D01*
X127224404Y-94515771D02*
X127224404Y-94753866D01*
X127224404Y-94753866D02*
X127176785Y-94944342D01*
X127176785Y-94944342D02*
X127129166Y-95039580D01*
X127129166Y-95039580D02*
X127081547Y-95087200D01*
X127081547Y-95087200D02*
X126986309Y-95134819D01*
X126986309Y-95134819D02*
X126891071Y-95134819D01*
X126891071Y-95134819D02*
X126795833Y-95087200D01*
X126795833Y-95087200D02*
X126748214Y-95039580D01*
X126748214Y-95039580D02*
X126700595Y-94944342D01*
X126700595Y-94944342D02*
X126652976Y-94753866D01*
X126652976Y-94753866D02*
X126652976Y-94515771D01*
X126652976Y-94515771D02*
X126700595Y-94325295D01*
X126700595Y-94325295D02*
X126748214Y-94230057D01*
X126748214Y-94230057D02*
X126795833Y-94182438D01*
X126795833Y-94182438D02*
X126891071Y-94134819D01*
X110039580Y-100166666D02*
X110087200Y-100214285D01*
X110087200Y-100214285D02*
X110134819Y-100357142D01*
X110134819Y-100357142D02*
X110134819Y-100452380D01*
X110134819Y-100452380D02*
X110087200Y-100595237D01*
X110087200Y-100595237D02*
X109991961Y-100690475D01*
X109991961Y-100690475D02*
X109896723Y-100738094D01*
X109896723Y-100738094D02*
X109706247Y-100785713D01*
X109706247Y-100785713D02*
X109563390Y-100785713D01*
X109563390Y-100785713D02*
X109372914Y-100738094D01*
X109372914Y-100738094D02*
X109277676Y-100690475D01*
X109277676Y-100690475D02*
X109182438Y-100595237D01*
X109182438Y-100595237D02*
X109134819Y-100452380D01*
X109134819Y-100452380D02*
X109134819Y-100357142D01*
X109134819Y-100357142D02*
X109182438Y-100214285D01*
X109182438Y-100214285D02*
X109230057Y-100166666D01*
X109134819Y-99261904D02*
X109134819Y-99738094D01*
X109134819Y-99738094D02*
X109611009Y-99785713D01*
X109611009Y-99785713D02*
X109563390Y-99738094D01*
X109563390Y-99738094D02*
X109515771Y-99642856D01*
X109515771Y-99642856D02*
X109515771Y-99404761D01*
X109515771Y-99404761D02*
X109563390Y-99309523D01*
X109563390Y-99309523D02*
X109611009Y-99261904D01*
X109611009Y-99261904D02*
X109706247Y-99214285D01*
X109706247Y-99214285D02*
X109944342Y-99214285D01*
X109944342Y-99214285D02*
X110039580Y-99261904D01*
X110039580Y-99261904D02*
X110087200Y-99309523D01*
X110087200Y-99309523D02*
X110134819Y-99404761D01*
X110134819Y-99404761D02*
X110134819Y-99642856D01*
X110134819Y-99642856D02*
X110087200Y-99738094D01*
X110087200Y-99738094D02*
X110039580Y-99785713D01*
X132833333Y-82804819D02*
X132500000Y-82328628D01*
X132261905Y-82804819D02*
X132261905Y-81804819D01*
X132261905Y-81804819D02*
X132642857Y-81804819D01*
X132642857Y-81804819D02*
X132738095Y-81852438D01*
X132738095Y-81852438D02*
X132785714Y-81900057D01*
X132785714Y-81900057D02*
X132833333Y-81995295D01*
X132833333Y-81995295D02*
X132833333Y-82138152D01*
X132833333Y-82138152D02*
X132785714Y-82233390D01*
X132785714Y-82233390D02*
X132738095Y-82281009D01*
X132738095Y-82281009D02*
X132642857Y-82328628D01*
X132642857Y-82328628D02*
X132261905Y-82328628D01*
X133785714Y-82804819D02*
X133214286Y-82804819D01*
X133500000Y-82804819D02*
X133500000Y-81804819D01*
X133500000Y-81804819D02*
X133404762Y-81947676D01*
X133404762Y-81947676D02*
X133309524Y-82042914D01*
X133309524Y-82042914D02*
X133214286Y-82090533D01*
X115894819Y-109333333D02*
X116609104Y-109333333D01*
X116609104Y-109333333D02*
X116751961Y-109380952D01*
X116751961Y-109380952D02*
X116847200Y-109476190D01*
X116847200Y-109476190D02*
X116894819Y-109619047D01*
X116894819Y-109619047D02*
X116894819Y-109714285D01*
X116894819Y-108333333D02*
X116894819Y-108904761D01*
X116894819Y-108619047D02*
X115894819Y-108619047D01*
X115894819Y-108619047D02*
X116037676Y-108714285D01*
X116037676Y-108714285D02*
X116132914Y-108809523D01*
X116132914Y-108809523D02*
X116180533Y-108904761D01*
X117920595Y-88374819D02*
X117920595Y-89184342D01*
X117920595Y-89184342D02*
X117968214Y-89279580D01*
X117968214Y-89279580D02*
X118015833Y-89327200D01*
X118015833Y-89327200D02*
X118111071Y-89374819D01*
X118111071Y-89374819D02*
X118301547Y-89374819D01*
X118301547Y-89374819D02*
X118396785Y-89327200D01*
X118396785Y-89327200D02*
X118444404Y-89279580D01*
X118444404Y-89279580D02*
X118492023Y-89184342D01*
X118492023Y-89184342D02*
X118492023Y-88374819D01*
X119492023Y-89374819D02*
X118920595Y-89374819D01*
X119206309Y-89374819D02*
X119206309Y-88374819D01*
X119206309Y-88374819D02*
X119111071Y-88517676D01*
X119111071Y-88517676D02*
X119015833Y-88612914D01*
X119015833Y-88612914D02*
X118920595Y-88660533D01*
X131516667Y-90557200D02*
X131659524Y-90604819D01*
X131659524Y-90604819D02*
X131897619Y-90604819D01*
X131897619Y-90604819D02*
X131992857Y-90557200D01*
X131992857Y-90557200D02*
X132040476Y-90509580D01*
X132040476Y-90509580D02*
X132088095Y-90414342D01*
X132088095Y-90414342D02*
X132088095Y-90319104D01*
X132088095Y-90319104D02*
X132040476Y-90223866D01*
X132040476Y-90223866D02*
X131992857Y-90176247D01*
X131992857Y-90176247D02*
X131897619Y-90128628D01*
X131897619Y-90128628D02*
X131707143Y-90081009D01*
X131707143Y-90081009D02*
X131611905Y-90033390D01*
X131611905Y-90033390D02*
X131564286Y-89985771D01*
X131564286Y-89985771D02*
X131516667Y-89890533D01*
X131516667Y-89890533D02*
X131516667Y-89795295D01*
X131516667Y-89795295D02*
X131564286Y-89700057D01*
X131564286Y-89700057D02*
X131611905Y-89652438D01*
X131611905Y-89652438D02*
X131707143Y-89604819D01*
X131707143Y-89604819D02*
X131945238Y-89604819D01*
X131945238Y-89604819D02*
X132088095Y-89652438D01*
X132421429Y-89604819D02*
X132659524Y-90604819D01*
X132659524Y-90604819D02*
X132850000Y-89890533D01*
X132850000Y-89890533D02*
X133040476Y-90604819D01*
X133040476Y-90604819D02*
X133278572Y-89604819D01*
X134183333Y-90604819D02*
X133611905Y-90604819D01*
X133897619Y-90604819D02*
X133897619Y-89604819D01*
X133897619Y-89604819D02*
X133802381Y-89747676D01*
X133802381Y-89747676D02*
X133707143Y-89842914D01*
X133707143Y-89842914D02*
X133611905Y-89890533D01*
X116104819Y-100642857D02*
X115628628Y-100976190D01*
X116104819Y-101214285D02*
X115104819Y-101214285D01*
X115104819Y-101214285D02*
X115104819Y-100833333D01*
X115104819Y-100833333D02*
X115152438Y-100738095D01*
X115152438Y-100738095D02*
X115200057Y-100690476D01*
X115200057Y-100690476D02*
X115295295Y-100642857D01*
X115295295Y-100642857D02*
X115438152Y-100642857D01*
X115438152Y-100642857D02*
X115533390Y-100690476D01*
X115533390Y-100690476D02*
X115581009Y-100738095D01*
X115581009Y-100738095D02*
X115628628Y-100833333D01*
X115628628Y-100833333D02*
X115628628Y-101214285D01*
X116104819Y-99690476D02*
X116104819Y-100261904D01*
X116104819Y-99976190D02*
X115104819Y-99976190D01*
X115104819Y-99976190D02*
X115247676Y-100071428D01*
X115247676Y-100071428D02*
X115342914Y-100166666D01*
X115342914Y-100166666D02*
X115390533Y-100261904D01*
X115104819Y-99071428D02*
X115104819Y-98976190D01*
X115104819Y-98976190D02*
X115152438Y-98880952D01*
X115152438Y-98880952D02*
X115200057Y-98833333D01*
X115200057Y-98833333D02*
X115295295Y-98785714D01*
X115295295Y-98785714D02*
X115485771Y-98738095D01*
X115485771Y-98738095D02*
X115723866Y-98738095D01*
X115723866Y-98738095D02*
X115914342Y-98785714D01*
X115914342Y-98785714D02*
X116009580Y-98833333D01*
X116009580Y-98833333D02*
X116057200Y-98880952D01*
X116057200Y-98880952D02*
X116104819Y-98976190D01*
X116104819Y-98976190D02*
X116104819Y-99071428D01*
X116104819Y-99071428D02*
X116057200Y-99166666D01*
X116057200Y-99166666D02*
X116009580Y-99214285D01*
X116009580Y-99214285D02*
X115914342Y-99261904D01*
X115914342Y-99261904D02*
X115723866Y-99309523D01*
X115723866Y-99309523D02*
X115485771Y-99309523D01*
X115485771Y-99309523D02*
X115295295Y-99261904D01*
X115295295Y-99261904D02*
X115200057Y-99214285D01*
X115200057Y-99214285D02*
X115152438Y-99166666D01*
X115152438Y-99166666D02*
X115104819Y-99071428D01*
X103894819Y-110333333D02*
X104609104Y-110333333D01*
X104609104Y-110333333D02*
X104751961Y-110380952D01*
X104751961Y-110380952D02*
X104847200Y-110476190D01*
X104847200Y-110476190D02*
X104894819Y-110619047D01*
X104894819Y-110619047D02*
X104894819Y-110714285D01*
X104228152Y-109428571D02*
X104894819Y-109428571D01*
X103847200Y-109666666D02*
X104561485Y-109904761D01*
X104561485Y-109904761D02*
X104561485Y-109285714D01*
D11*
X125458286Y-96731017D02*
X125458286Y-97119588D01*
X125458286Y-97119588D02*
X125481143Y-97165302D01*
X125481143Y-97165302D02*
X125504001Y-97188160D01*
X125504001Y-97188160D02*
X125549715Y-97211017D01*
X125549715Y-97211017D02*
X125641143Y-97211017D01*
X125641143Y-97211017D02*
X125686858Y-97188160D01*
X125686858Y-97188160D02*
X125709715Y-97165302D01*
X125709715Y-97165302D02*
X125732572Y-97119588D01*
X125732572Y-97119588D02*
X125732572Y-96731017D01*
X125915429Y-96731017D02*
X126212572Y-96731017D01*
X126212572Y-96731017D02*
X126052572Y-96913874D01*
X126052572Y-96913874D02*
X126121143Y-96913874D01*
X126121143Y-96913874D02*
X126166858Y-96936731D01*
X126166858Y-96936731D02*
X126189715Y-96959588D01*
X126189715Y-96959588D02*
X126212572Y-97005302D01*
X126212572Y-97005302D02*
X126212572Y-97119588D01*
X126212572Y-97119588D02*
X126189715Y-97165302D01*
X126189715Y-97165302D02*
X126166858Y-97188160D01*
X126166858Y-97188160D02*
X126121143Y-97211017D01*
X126121143Y-97211017D02*
X125984000Y-97211017D01*
X125984000Y-97211017D02*
X125938286Y-97188160D01*
X125938286Y-97188160D02*
X125915429Y-97165302D01*
D10*
X131666667Y-96657200D02*
X131809524Y-96704819D01*
X131809524Y-96704819D02*
X132047619Y-96704819D01*
X132047619Y-96704819D02*
X132142857Y-96657200D01*
X132142857Y-96657200D02*
X132190476Y-96609580D01*
X132190476Y-96609580D02*
X132238095Y-96514342D01*
X132238095Y-96514342D02*
X132238095Y-96419104D01*
X132238095Y-96419104D02*
X132190476Y-96323866D01*
X132190476Y-96323866D02*
X132142857Y-96276247D01*
X132142857Y-96276247D02*
X132047619Y-96228628D01*
X132047619Y-96228628D02*
X131857143Y-96181009D01*
X131857143Y-96181009D02*
X131761905Y-96133390D01*
X131761905Y-96133390D02*
X131714286Y-96085771D01*
X131714286Y-96085771D02*
X131666667Y-95990533D01*
X131666667Y-95990533D02*
X131666667Y-95895295D01*
X131666667Y-95895295D02*
X131714286Y-95800057D01*
X131714286Y-95800057D02*
X131761905Y-95752438D01*
X131761905Y-95752438D02*
X131857143Y-95704819D01*
X131857143Y-95704819D02*
X132095238Y-95704819D01*
X132095238Y-95704819D02*
X132238095Y-95752438D01*
X132571429Y-95704819D02*
X132809524Y-96704819D01*
X132809524Y-96704819D02*
X133000000Y-95990533D01*
X133000000Y-95990533D02*
X133190476Y-96704819D01*
X133190476Y-96704819D02*
X133428572Y-95704819D01*
X133761905Y-95800057D02*
X133809524Y-95752438D01*
X133809524Y-95752438D02*
X133904762Y-95704819D01*
X133904762Y-95704819D02*
X134142857Y-95704819D01*
X134142857Y-95704819D02*
X134238095Y-95752438D01*
X134238095Y-95752438D02*
X134285714Y-95800057D01*
X134285714Y-95800057D02*
X134333333Y-95895295D01*
X134333333Y-95895295D02*
X134333333Y-95990533D01*
X134333333Y-95990533D02*
X134285714Y-96133390D01*
X134285714Y-96133390D02*
X133714286Y-96704819D01*
X133714286Y-96704819D02*
X134333333Y-96704819D01*
X115039580Y-106166666D02*
X115087200Y-106214285D01*
X115087200Y-106214285D02*
X115134819Y-106357142D01*
X115134819Y-106357142D02*
X115134819Y-106452380D01*
X115134819Y-106452380D02*
X115087200Y-106595237D01*
X115087200Y-106595237D02*
X114991961Y-106690475D01*
X114991961Y-106690475D02*
X114896723Y-106738094D01*
X114896723Y-106738094D02*
X114706247Y-106785713D01*
X114706247Y-106785713D02*
X114563390Y-106785713D01*
X114563390Y-106785713D02*
X114372914Y-106738094D01*
X114372914Y-106738094D02*
X114277676Y-106690475D01*
X114277676Y-106690475D02*
X114182438Y-106595237D01*
X114182438Y-106595237D02*
X114134819Y-106452380D01*
X114134819Y-106452380D02*
X114134819Y-106357142D01*
X114134819Y-106357142D02*
X114182438Y-106214285D01*
X114182438Y-106214285D02*
X114230057Y-106166666D01*
X115134819Y-105214285D02*
X115134819Y-105785713D01*
X115134819Y-105499999D02*
X114134819Y-105499999D01*
X114134819Y-105499999D02*
X114277676Y-105595237D01*
X114277676Y-105595237D02*
X114372914Y-105690475D01*
X114372914Y-105690475D02*
X114420533Y-105785713D01*
X123894819Y-110333333D02*
X124609104Y-110333333D01*
X124609104Y-110333333D02*
X124751961Y-110380952D01*
X124751961Y-110380952D02*
X124847200Y-110476190D01*
X124847200Y-110476190D02*
X124894819Y-110619047D01*
X124894819Y-110619047D02*
X124894819Y-110714285D01*
X123894819Y-109428571D02*
X123894819Y-109619047D01*
X123894819Y-109619047D02*
X123942438Y-109714285D01*
X123942438Y-109714285D02*
X123990057Y-109761904D01*
X123990057Y-109761904D02*
X124132914Y-109857142D01*
X124132914Y-109857142D02*
X124323390Y-109904761D01*
X124323390Y-109904761D02*
X124704342Y-109904761D01*
X124704342Y-109904761D02*
X124799580Y-109857142D01*
X124799580Y-109857142D02*
X124847200Y-109809523D01*
X124847200Y-109809523D02*
X124894819Y-109714285D01*
X124894819Y-109714285D02*
X124894819Y-109523809D01*
X124894819Y-109523809D02*
X124847200Y-109428571D01*
X124847200Y-109428571D02*
X124799580Y-109380952D01*
X124799580Y-109380952D02*
X124704342Y-109333333D01*
X124704342Y-109333333D02*
X124466247Y-109333333D01*
X124466247Y-109333333D02*
X124371009Y-109380952D01*
X124371009Y-109380952D02*
X124323390Y-109428571D01*
X124323390Y-109428571D02*
X124275771Y-109523809D01*
X124275771Y-109523809D02*
X124275771Y-109714285D01*
X124275771Y-109714285D02*
X124323390Y-109809523D01*
X124323390Y-109809523D02*
X124371009Y-109857142D01*
X124371009Y-109857142D02*
X124466247Y-109904761D01*
X114804819Y-100166666D02*
X114328628Y-100499999D01*
X114804819Y-100738094D02*
X113804819Y-100738094D01*
X113804819Y-100738094D02*
X113804819Y-100357142D01*
X113804819Y-100357142D02*
X113852438Y-100261904D01*
X113852438Y-100261904D02*
X113900057Y-100214285D01*
X113900057Y-100214285D02*
X113995295Y-100166666D01*
X113995295Y-100166666D02*
X114138152Y-100166666D01*
X114138152Y-100166666D02*
X114233390Y-100214285D01*
X114233390Y-100214285D02*
X114281009Y-100261904D01*
X114281009Y-100261904D02*
X114328628Y-100357142D01*
X114328628Y-100357142D02*
X114328628Y-100738094D01*
X114804819Y-99690475D02*
X114804819Y-99499999D01*
X114804819Y-99499999D02*
X114757200Y-99404761D01*
X114757200Y-99404761D02*
X114709580Y-99357142D01*
X114709580Y-99357142D02*
X114566723Y-99261904D01*
X114566723Y-99261904D02*
X114376247Y-99214285D01*
X114376247Y-99214285D02*
X113995295Y-99214285D01*
X113995295Y-99214285D02*
X113900057Y-99261904D01*
X113900057Y-99261904D02*
X113852438Y-99309523D01*
X113852438Y-99309523D02*
X113804819Y-99404761D01*
X113804819Y-99404761D02*
X113804819Y-99595237D01*
X113804819Y-99595237D02*
X113852438Y-99690475D01*
X113852438Y-99690475D02*
X113900057Y-99738094D01*
X113900057Y-99738094D02*
X113995295Y-99785713D01*
X113995295Y-99785713D02*
X114233390Y-99785713D01*
X114233390Y-99785713D02*
X114328628Y-99738094D01*
X114328628Y-99738094D02*
X114376247Y-99690475D01*
X114376247Y-99690475D02*
X114423866Y-99595237D01*
X114423866Y-99595237D02*
X114423866Y-99404761D01*
X114423866Y-99404761D02*
X114376247Y-99309523D01*
X114376247Y-99309523D02*
X114328628Y-99261904D01*
X114328628Y-99261904D02*
X114233390Y-99214285D01*
X134039580Y-108642857D02*
X134087200Y-108690476D01*
X134087200Y-108690476D02*
X134134819Y-108833333D01*
X134134819Y-108833333D02*
X134134819Y-108928571D01*
X134134819Y-108928571D02*
X134087200Y-109071428D01*
X134087200Y-109071428D02*
X133991961Y-109166666D01*
X133991961Y-109166666D02*
X133896723Y-109214285D01*
X133896723Y-109214285D02*
X133706247Y-109261904D01*
X133706247Y-109261904D02*
X133563390Y-109261904D01*
X133563390Y-109261904D02*
X133372914Y-109214285D01*
X133372914Y-109214285D02*
X133277676Y-109166666D01*
X133277676Y-109166666D02*
X133182438Y-109071428D01*
X133182438Y-109071428D02*
X133134819Y-108928571D01*
X133134819Y-108928571D02*
X133134819Y-108833333D01*
X133134819Y-108833333D02*
X133182438Y-108690476D01*
X133182438Y-108690476D02*
X133230057Y-108642857D01*
X134134819Y-107690476D02*
X134134819Y-108261904D01*
X134134819Y-107976190D02*
X133134819Y-107976190D01*
X133134819Y-107976190D02*
X133277676Y-108071428D01*
X133277676Y-108071428D02*
X133372914Y-108166666D01*
X133372914Y-108166666D02*
X133420533Y-108261904D01*
X133134819Y-107357142D02*
X133134819Y-106690476D01*
X133134819Y-106690476D02*
X134134819Y-107119047D01*
X122039580Y-101642857D02*
X122087200Y-101690476D01*
X122087200Y-101690476D02*
X122134819Y-101833333D01*
X122134819Y-101833333D02*
X122134819Y-101928571D01*
X122134819Y-101928571D02*
X122087200Y-102071428D01*
X122087200Y-102071428D02*
X121991961Y-102166666D01*
X121991961Y-102166666D02*
X121896723Y-102214285D01*
X121896723Y-102214285D02*
X121706247Y-102261904D01*
X121706247Y-102261904D02*
X121563390Y-102261904D01*
X121563390Y-102261904D02*
X121372914Y-102214285D01*
X121372914Y-102214285D02*
X121277676Y-102166666D01*
X121277676Y-102166666D02*
X121182438Y-102071428D01*
X121182438Y-102071428D02*
X121134819Y-101928571D01*
X121134819Y-101928571D02*
X121134819Y-101833333D01*
X121134819Y-101833333D02*
X121182438Y-101690476D01*
X121182438Y-101690476D02*
X121230057Y-101642857D01*
X122134819Y-100690476D02*
X122134819Y-101261904D01*
X122134819Y-100976190D02*
X121134819Y-100976190D01*
X121134819Y-100976190D02*
X121277676Y-101071428D01*
X121277676Y-101071428D02*
X121372914Y-101166666D01*
X121372914Y-101166666D02*
X121420533Y-101261904D01*
X121230057Y-100309523D02*
X121182438Y-100261904D01*
X121182438Y-100261904D02*
X121134819Y-100166666D01*
X121134819Y-100166666D02*
X121134819Y-99928571D01*
X121134819Y-99928571D02*
X121182438Y-99833333D01*
X121182438Y-99833333D02*
X121230057Y-99785714D01*
X121230057Y-99785714D02*
X121325295Y-99738095D01*
X121325295Y-99738095D02*
X121420533Y-99738095D01*
X121420533Y-99738095D02*
X121563390Y-99785714D01*
X121563390Y-99785714D02*
X122134819Y-100357142D01*
X122134819Y-100357142D02*
X122134819Y-99738095D01*
X110804819Y-85166666D02*
X110328628Y-85499999D01*
X110804819Y-85738094D02*
X109804819Y-85738094D01*
X109804819Y-85738094D02*
X109804819Y-85357142D01*
X109804819Y-85357142D02*
X109852438Y-85261904D01*
X109852438Y-85261904D02*
X109900057Y-85214285D01*
X109900057Y-85214285D02*
X109995295Y-85166666D01*
X109995295Y-85166666D02*
X110138152Y-85166666D01*
X110138152Y-85166666D02*
X110233390Y-85214285D01*
X110233390Y-85214285D02*
X110281009Y-85261904D01*
X110281009Y-85261904D02*
X110328628Y-85357142D01*
X110328628Y-85357142D02*
X110328628Y-85738094D01*
X109804819Y-84261904D02*
X109804819Y-84738094D01*
X109804819Y-84738094D02*
X110281009Y-84785713D01*
X110281009Y-84785713D02*
X110233390Y-84738094D01*
X110233390Y-84738094D02*
X110185771Y-84642856D01*
X110185771Y-84642856D02*
X110185771Y-84404761D01*
X110185771Y-84404761D02*
X110233390Y-84309523D01*
X110233390Y-84309523D02*
X110281009Y-84261904D01*
X110281009Y-84261904D02*
X110376247Y-84214285D01*
X110376247Y-84214285D02*
X110614342Y-84214285D01*
X110614342Y-84214285D02*
X110709580Y-84261904D01*
X110709580Y-84261904D02*
X110757200Y-84309523D01*
X110757200Y-84309523D02*
X110804819Y-84404761D01*
X110804819Y-84404761D02*
X110804819Y-84642856D01*
X110804819Y-84642856D02*
X110757200Y-84738094D01*
X110757200Y-84738094D02*
X110709580Y-84785713D01*
X111833333Y-101804819D02*
X111500000Y-101328628D01*
X111261905Y-101804819D02*
X111261905Y-100804819D01*
X111261905Y-100804819D02*
X111642857Y-100804819D01*
X111642857Y-100804819D02*
X111738095Y-100852438D01*
X111738095Y-100852438D02*
X111785714Y-100900057D01*
X111785714Y-100900057D02*
X111833333Y-100995295D01*
X111833333Y-100995295D02*
X111833333Y-101138152D01*
X111833333Y-101138152D02*
X111785714Y-101233390D01*
X111785714Y-101233390D02*
X111738095Y-101281009D01*
X111738095Y-101281009D02*
X111642857Y-101328628D01*
X111642857Y-101328628D02*
X111261905Y-101328628D01*
X112690476Y-100804819D02*
X112500000Y-100804819D01*
X112500000Y-100804819D02*
X112404762Y-100852438D01*
X112404762Y-100852438D02*
X112357143Y-100900057D01*
X112357143Y-100900057D02*
X112261905Y-101042914D01*
X112261905Y-101042914D02*
X112214286Y-101233390D01*
X112214286Y-101233390D02*
X112214286Y-101614342D01*
X112214286Y-101614342D02*
X112261905Y-101709580D01*
X112261905Y-101709580D02*
X112309524Y-101757200D01*
X112309524Y-101757200D02*
X112404762Y-101804819D01*
X112404762Y-101804819D02*
X112595238Y-101804819D01*
X112595238Y-101804819D02*
X112690476Y-101757200D01*
X112690476Y-101757200D02*
X112738095Y-101709580D01*
X112738095Y-101709580D02*
X112785714Y-101614342D01*
X112785714Y-101614342D02*
X112785714Y-101376247D01*
X112785714Y-101376247D02*
X112738095Y-101281009D01*
X112738095Y-101281009D02*
X112690476Y-101233390D01*
X112690476Y-101233390D02*
X112595238Y-101185771D01*
X112595238Y-101185771D02*
X112404762Y-101185771D01*
X112404762Y-101185771D02*
X112309524Y-101233390D01*
X112309524Y-101233390D02*
X112261905Y-101281009D01*
X112261905Y-101281009D02*
X112214286Y-101376247D01*
X122679580Y-86642857D02*
X122727200Y-86690476D01*
X122727200Y-86690476D02*
X122774819Y-86833333D01*
X122774819Y-86833333D02*
X122774819Y-86928571D01*
X122774819Y-86928571D02*
X122727200Y-87071428D01*
X122727200Y-87071428D02*
X122631961Y-87166666D01*
X122631961Y-87166666D02*
X122536723Y-87214285D01*
X122536723Y-87214285D02*
X122346247Y-87261904D01*
X122346247Y-87261904D02*
X122203390Y-87261904D01*
X122203390Y-87261904D02*
X122012914Y-87214285D01*
X122012914Y-87214285D02*
X121917676Y-87166666D01*
X121917676Y-87166666D02*
X121822438Y-87071428D01*
X121822438Y-87071428D02*
X121774819Y-86928571D01*
X121774819Y-86928571D02*
X121774819Y-86833333D01*
X121774819Y-86833333D02*
X121822438Y-86690476D01*
X121822438Y-86690476D02*
X121870057Y-86642857D01*
X122774819Y-85690476D02*
X122774819Y-86261904D01*
X122774819Y-85976190D02*
X121774819Y-85976190D01*
X121774819Y-85976190D02*
X121917676Y-86071428D01*
X121917676Y-86071428D02*
X122012914Y-86166666D01*
X122012914Y-86166666D02*
X122060533Y-86261904D01*
X122774819Y-84738095D02*
X122774819Y-85309523D01*
X122774819Y-85023809D02*
X121774819Y-85023809D01*
X121774819Y-85023809D02*
X121917676Y-85119047D01*
X121917676Y-85119047D02*
X122012914Y-85214285D01*
X122012914Y-85214285D02*
X122060533Y-85309523D01*
X112039580Y-100166666D02*
X112087200Y-100214285D01*
X112087200Y-100214285D02*
X112134819Y-100357142D01*
X112134819Y-100357142D02*
X112134819Y-100452380D01*
X112134819Y-100452380D02*
X112087200Y-100595237D01*
X112087200Y-100595237D02*
X111991961Y-100690475D01*
X111991961Y-100690475D02*
X111896723Y-100738094D01*
X111896723Y-100738094D02*
X111706247Y-100785713D01*
X111706247Y-100785713D02*
X111563390Y-100785713D01*
X111563390Y-100785713D02*
X111372914Y-100738094D01*
X111372914Y-100738094D02*
X111277676Y-100690475D01*
X111277676Y-100690475D02*
X111182438Y-100595237D01*
X111182438Y-100595237D02*
X111134819Y-100452380D01*
X111134819Y-100452380D02*
X111134819Y-100357142D01*
X111134819Y-100357142D02*
X111182438Y-100214285D01*
X111182438Y-100214285D02*
X111230057Y-100166666D01*
X111134819Y-99309523D02*
X111134819Y-99499999D01*
X111134819Y-99499999D02*
X111182438Y-99595237D01*
X111182438Y-99595237D02*
X111230057Y-99642856D01*
X111230057Y-99642856D02*
X111372914Y-99738094D01*
X111372914Y-99738094D02*
X111563390Y-99785713D01*
X111563390Y-99785713D02*
X111944342Y-99785713D01*
X111944342Y-99785713D02*
X112039580Y-99738094D01*
X112039580Y-99738094D02*
X112087200Y-99690475D01*
X112087200Y-99690475D02*
X112134819Y-99595237D01*
X112134819Y-99595237D02*
X112134819Y-99404761D01*
X112134819Y-99404761D02*
X112087200Y-99309523D01*
X112087200Y-99309523D02*
X112039580Y-99261904D01*
X112039580Y-99261904D02*
X111944342Y-99214285D01*
X111944342Y-99214285D02*
X111706247Y-99214285D01*
X111706247Y-99214285D02*
X111611009Y-99261904D01*
X111611009Y-99261904D02*
X111563390Y-99309523D01*
X111563390Y-99309523D02*
X111515771Y-99404761D01*
X111515771Y-99404761D02*
X111515771Y-99595237D01*
X111515771Y-99595237D02*
X111563390Y-99690475D01*
X111563390Y-99690475D02*
X111611009Y-99738094D01*
X111611009Y-99738094D02*
X111706247Y-99785713D01*
X114679580Y-87605357D02*
X114727200Y-87652976D01*
X114727200Y-87652976D02*
X114774819Y-87795833D01*
X114774819Y-87795833D02*
X114774819Y-87891071D01*
X114774819Y-87891071D02*
X114727200Y-88033928D01*
X114727200Y-88033928D02*
X114631961Y-88129166D01*
X114631961Y-88129166D02*
X114536723Y-88176785D01*
X114536723Y-88176785D02*
X114346247Y-88224404D01*
X114346247Y-88224404D02*
X114203390Y-88224404D01*
X114203390Y-88224404D02*
X114012914Y-88176785D01*
X114012914Y-88176785D02*
X113917676Y-88129166D01*
X113917676Y-88129166D02*
X113822438Y-88033928D01*
X113822438Y-88033928D02*
X113774819Y-87891071D01*
X113774819Y-87891071D02*
X113774819Y-87795833D01*
X113774819Y-87795833D02*
X113822438Y-87652976D01*
X113822438Y-87652976D02*
X113870057Y-87605357D01*
X114774819Y-86652976D02*
X114774819Y-87224404D01*
X114774819Y-86938690D02*
X113774819Y-86938690D01*
X113774819Y-86938690D02*
X113917676Y-87033928D01*
X113917676Y-87033928D02*
X114012914Y-87129166D01*
X114012914Y-87129166D02*
X114060533Y-87224404D01*
X114774819Y-85700595D02*
X114774819Y-86272023D01*
X114774819Y-85986309D02*
X113774819Y-85986309D01*
X113774819Y-85986309D02*
X113917676Y-86081547D01*
X113917676Y-86081547D02*
X114012914Y-86176785D01*
X114012914Y-86176785D02*
X114060533Y-86272023D01*
X108894819Y-110333333D02*
X109609104Y-110333333D01*
X109609104Y-110333333D02*
X109751961Y-110380952D01*
X109751961Y-110380952D02*
X109847200Y-110476190D01*
X109847200Y-110476190D02*
X109894819Y-110619047D01*
X109894819Y-110619047D02*
X109894819Y-110714285D01*
X108894819Y-109952380D02*
X108894819Y-109333333D01*
X108894819Y-109333333D02*
X109275771Y-109666666D01*
X109275771Y-109666666D02*
X109275771Y-109523809D01*
X109275771Y-109523809D02*
X109323390Y-109428571D01*
X109323390Y-109428571D02*
X109371009Y-109380952D01*
X109371009Y-109380952D02*
X109466247Y-109333333D01*
X109466247Y-109333333D02*
X109704342Y-109333333D01*
X109704342Y-109333333D02*
X109799580Y-109380952D01*
X109799580Y-109380952D02*
X109847200Y-109428571D01*
X109847200Y-109428571D02*
X109894819Y-109523809D01*
X109894819Y-109523809D02*
X109894819Y-109809523D01*
X109894819Y-109809523D02*
X109847200Y-109904761D01*
X109847200Y-109904761D02*
X109799580Y-109952380D01*
X111679580Y-90642857D02*
X111727200Y-90690476D01*
X111727200Y-90690476D02*
X111774819Y-90833333D01*
X111774819Y-90833333D02*
X111774819Y-90928571D01*
X111774819Y-90928571D02*
X111727200Y-91071428D01*
X111727200Y-91071428D02*
X111631961Y-91166666D01*
X111631961Y-91166666D02*
X111536723Y-91214285D01*
X111536723Y-91214285D02*
X111346247Y-91261904D01*
X111346247Y-91261904D02*
X111203390Y-91261904D01*
X111203390Y-91261904D02*
X111012914Y-91214285D01*
X111012914Y-91214285D02*
X110917676Y-91166666D01*
X110917676Y-91166666D02*
X110822438Y-91071428D01*
X110822438Y-91071428D02*
X110774819Y-90928571D01*
X110774819Y-90928571D02*
X110774819Y-90833333D01*
X110774819Y-90833333D02*
X110822438Y-90690476D01*
X110822438Y-90690476D02*
X110870057Y-90642857D01*
X111774819Y-89690476D02*
X111774819Y-90261904D01*
X111774819Y-89976190D02*
X110774819Y-89976190D01*
X110774819Y-89976190D02*
X110917676Y-90071428D01*
X110917676Y-90071428D02*
X111012914Y-90166666D01*
X111012914Y-90166666D02*
X111060533Y-90261904D01*
X111774819Y-88738095D02*
X111774819Y-89309523D01*
X111774819Y-89023809D02*
X110774819Y-89023809D01*
X110774819Y-89023809D02*
X110917676Y-89119047D01*
X110917676Y-89119047D02*
X111012914Y-89214285D01*
X111012914Y-89214285D02*
X111060533Y-89309523D01*
X101238095Y-97054819D02*
X101238095Y-97864342D01*
X101238095Y-97864342D02*
X101285714Y-97959580D01*
X101285714Y-97959580D02*
X101333333Y-98007200D01*
X101333333Y-98007200D02*
X101428571Y-98054819D01*
X101428571Y-98054819D02*
X101619047Y-98054819D01*
X101619047Y-98054819D02*
X101714285Y-98007200D01*
X101714285Y-98007200D02*
X101761904Y-97959580D01*
X101761904Y-97959580D02*
X101809523Y-97864342D01*
X101809523Y-97864342D02*
X101809523Y-97054819D01*
X102238095Y-97150057D02*
X102285714Y-97102438D01*
X102285714Y-97102438D02*
X102380952Y-97054819D01*
X102380952Y-97054819D02*
X102619047Y-97054819D01*
X102619047Y-97054819D02*
X102714285Y-97102438D01*
X102714285Y-97102438D02*
X102761904Y-97150057D01*
X102761904Y-97150057D02*
X102809523Y-97245295D01*
X102809523Y-97245295D02*
X102809523Y-97340533D01*
X102809523Y-97340533D02*
X102761904Y-97483390D01*
X102761904Y-97483390D02*
X102190476Y-98054819D01*
X102190476Y-98054819D02*
X102809523Y-98054819D01*
X100804819Y-106166666D02*
X100328628Y-106499999D01*
X100804819Y-106738094D02*
X99804819Y-106738094D01*
X99804819Y-106738094D02*
X99804819Y-106357142D01*
X99804819Y-106357142D02*
X99852438Y-106261904D01*
X99852438Y-106261904D02*
X99900057Y-106214285D01*
X99900057Y-106214285D02*
X99995295Y-106166666D01*
X99995295Y-106166666D02*
X100138152Y-106166666D01*
X100138152Y-106166666D02*
X100233390Y-106214285D01*
X100233390Y-106214285D02*
X100281009Y-106261904D01*
X100281009Y-106261904D02*
X100328628Y-106357142D01*
X100328628Y-106357142D02*
X100328628Y-106738094D01*
X99804819Y-105833332D02*
X99804819Y-105214285D01*
X99804819Y-105214285D02*
X100185771Y-105547618D01*
X100185771Y-105547618D02*
X100185771Y-105404761D01*
X100185771Y-105404761D02*
X100233390Y-105309523D01*
X100233390Y-105309523D02*
X100281009Y-105261904D01*
X100281009Y-105261904D02*
X100376247Y-105214285D01*
X100376247Y-105214285D02*
X100614342Y-105214285D01*
X100614342Y-105214285D02*
X100709580Y-105261904D01*
X100709580Y-105261904D02*
X100757200Y-105309523D01*
X100757200Y-105309523D02*
X100804819Y-105404761D01*
X100804819Y-105404761D02*
X100804819Y-105690475D01*
X100804819Y-105690475D02*
X100757200Y-105785713D01*
X100757200Y-105785713D02*
X100709580Y-105833332D01*
X100679580Y-90642857D02*
X100727200Y-90690476D01*
X100727200Y-90690476D02*
X100774819Y-90833333D01*
X100774819Y-90833333D02*
X100774819Y-90928571D01*
X100774819Y-90928571D02*
X100727200Y-91071428D01*
X100727200Y-91071428D02*
X100631961Y-91166666D01*
X100631961Y-91166666D02*
X100536723Y-91214285D01*
X100536723Y-91214285D02*
X100346247Y-91261904D01*
X100346247Y-91261904D02*
X100203390Y-91261904D01*
X100203390Y-91261904D02*
X100012914Y-91214285D01*
X100012914Y-91214285D02*
X99917676Y-91166666D01*
X99917676Y-91166666D02*
X99822438Y-91071428D01*
X99822438Y-91071428D02*
X99774819Y-90928571D01*
X99774819Y-90928571D02*
X99774819Y-90833333D01*
X99774819Y-90833333D02*
X99822438Y-90690476D01*
X99822438Y-90690476D02*
X99870057Y-90642857D01*
X100774819Y-89690476D02*
X100774819Y-90261904D01*
X100774819Y-89976190D02*
X99774819Y-89976190D01*
X99774819Y-89976190D02*
X99917676Y-90071428D01*
X99917676Y-90071428D02*
X100012914Y-90166666D01*
X100012914Y-90166666D02*
X100060533Y-90261904D01*
X100108152Y-88833333D02*
X100774819Y-88833333D01*
X99727200Y-89071428D02*
X100441485Y-89309523D01*
X100441485Y-89309523D02*
X100441485Y-88690476D01*
X108039580Y-100204166D02*
X108087200Y-100251785D01*
X108087200Y-100251785D02*
X108134819Y-100394642D01*
X108134819Y-100394642D02*
X108134819Y-100489880D01*
X108134819Y-100489880D02*
X108087200Y-100632737D01*
X108087200Y-100632737D02*
X107991961Y-100727975D01*
X107991961Y-100727975D02*
X107896723Y-100775594D01*
X107896723Y-100775594D02*
X107706247Y-100823213D01*
X107706247Y-100823213D02*
X107563390Y-100823213D01*
X107563390Y-100823213D02*
X107372914Y-100775594D01*
X107372914Y-100775594D02*
X107277676Y-100727975D01*
X107277676Y-100727975D02*
X107182438Y-100632737D01*
X107182438Y-100632737D02*
X107134819Y-100489880D01*
X107134819Y-100489880D02*
X107134819Y-100394642D01*
X107134819Y-100394642D02*
X107182438Y-100251785D01*
X107182438Y-100251785D02*
X107230057Y-100204166D01*
X107468152Y-99347023D02*
X108134819Y-99347023D01*
X107087200Y-99585118D02*
X107801485Y-99823213D01*
X107801485Y-99823213D02*
X107801485Y-99204166D01*
X116795833Y-101679580D02*
X116748214Y-101727200D01*
X116748214Y-101727200D02*
X116605357Y-101774819D01*
X116605357Y-101774819D02*
X116510119Y-101774819D01*
X116510119Y-101774819D02*
X116367262Y-101727200D01*
X116367262Y-101727200D02*
X116272024Y-101631961D01*
X116272024Y-101631961D02*
X116224405Y-101536723D01*
X116224405Y-101536723D02*
X116176786Y-101346247D01*
X116176786Y-101346247D02*
X116176786Y-101203390D01*
X116176786Y-101203390D02*
X116224405Y-101012914D01*
X116224405Y-101012914D02*
X116272024Y-100917676D01*
X116272024Y-100917676D02*
X116367262Y-100822438D01*
X116367262Y-100822438D02*
X116510119Y-100774819D01*
X116510119Y-100774819D02*
X116605357Y-100774819D01*
X116605357Y-100774819D02*
X116748214Y-100822438D01*
X116748214Y-100822438D02*
X116795833Y-100870057D01*
X117272024Y-101774819D02*
X117462500Y-101774819D01*
X117462500Y-101774819D02*
X117557738Y-101727200D01*
X117557738Y-101727200D02*
X117605357Y-101679580D01*
X117605357Y-101679580D02*
X117700595Y-101536723D01*
X117700595Y-101536723D02*
X117748214Y-101346247D01*
X117748214Y-101346247D02*
X117748214Y-100965295D01*
X117748214Y-100965295D02*
X117700595Y-100870057D01*
X117700595Y-100870057D02*
X117652976Y-100822438D01*
X117652976Y-100822438D02*
X117557738Y-100774819D01*
X117557738Y-100774819D02*
X117367262Y-100774819D01*
X117367262Y-100774819D02*
X117272024Y-100822438D01*
X117272024Y-100822438D02*
X117224405Y-100870057D01*
X117224405Y-100870057D02*
X117176786Y-100965295D01*
X117176786Y-100965295D02*
X117176786Y-101203390D01*
X117176786Y-101203390D02*
X117224405Y-101298628D01*
X117224405Y-101298628D02*
X117272024Y-101346247D01*
X117272024Y-101346247D02*
X117367262Y-101393866D01*
X117367262Y-101393866D02*
X117557738Y-101393866D01*
X117557738Y-101393866D02*
X117652976Y-101346247D01*
X117652976Y-101346247D02*
X117700595Y-101298628D01*
X117700595Y-101298628D02*
X117748214Y-101203390D01*
X132991905Y-85494819D02*
X132991905Y-84494819D01*
X132991905Y-84494819D02*
X133230000Y-84494819D01*
X133230000Y-84494819D02*
X133372857Y-84542438D01*
X133372857Y-84542438D02*
X133468095Y-84637676D01*
X133468095Y-84637676D02*
X133515714Y-84732914D01*
X133515714Y-84732914D02*
X133563333Y-84923390D01*
X133563333Y-84923390D02*
X133563333Y-85066247D01*
X133563333Y-85066247D02*
X133515714Y-85256723D01*
X133515714Y-85256723D02*
X133468095Y-85351961D01*
X133468095Y-85351961D02*
X133372857Y-85447200D01*
X133372857Y-85447200D02*
X133230000Y-85494819D01*
X133230000Y-85494819D02*
X132991905Y-85494819D01*
X133944286Y-84590057D02*
X133991905Y-84542438D01*
X133991905Y-84542438D02*
X134087143Y-84494819D01*
X134087143Y-84494819D02*
X134325238Y-84494819D01*
X134325238Y-84494819D02*
X134420476Y-84542438D01*
X134420476Y-84542438D02*
X134468095Y-84590057D01*
X134468095Y-84590057D02*
X134515714Y-84685295D01*
X134515714Y-84685295D02*
X134515714Y-84780533D01*
X134515714Y-84780533D02*
X134468095Y-84923390D01*
X134468095Y-84923390D02*
X133896667Y-85494819D01*
X133896667Y-85494819D02*
X134515714Y-85494819D01*
X127039580Y-103605357D02*
X127087200Y-103652976D01*
X127087200Y-103652976D02*
X127134819Y-103795833D01*
X127134819Y-103795833D02*
X127134819Y-103891071D01*
X127134819Y-103891071D02*
X127087200Y-104033928D01*
X127087200Y-104033928D02*
X126991961Y-104129166D01*
X126991961Y-104129166D02*
X126896723Y-104176785D01*
X126896723Y-104176785D02*
X126706247Y-104224404D01*
X126706247Y-104224404D02*
X126563390Y-104224404D01*
X126563390Y-104224404D02*
X126372914Y-104176785D01*
X126372914Y-104176785D02*
X126277676Y-104129166D01*
X126277676Y-104129166D02*
X126182438Y-104033928D01*
X126182438Y-104033928D02*
X126134819Y-103891071D01*
X126134819Y-103891071D02*
X126134819Y-103795833D01*
X126134819Y-103795833D02*
X126182438Y-103652976D01*
X126182438Y-103652976D02*
X126230057Y-103605357D01*
X127134819Y-102652976D02*
X127134819Y-103224404D01*
X127134819Y-102938690D02*
X126134819Y-102938690D01*
X126134819Y-102938690D02*
X126277676Y-103033928D01*
X126277676Y-103033928D02*
X126372914Y-103129166D01*
X126372914Y-103129166D02*
X126420533Y-103224404D01*
X126134819Y-101795833D02*
X126134819Y-101986309D01*
X126134819Y-101986309D02*
X126182438Y-102081547D01*
X126182438Y-102081547D02*
X126230057Y-102129166D01*
X126230057Y-102129166D02*
X126372914Y-102224404D01*
X126372914Y-102224404D02*
X126563390Y-102272023D01*
X126563390Y-102272023D02*
X126944342Y-102272023D01*
X126944342Y-102272023D02*
X127039580Y-102224404D01*
X127039580Y-102224404D02*
X127087200Y-102176785D01*
X127087200Y-102176785D02*
X127134819Y-102081547D01*
X127134819Y-102081547D02*
X127134819Y-101891071D01*
X127134819Y-101891071D02*
X127087200Y-101795833D01*
X127087200Y-101795833D02*
X127039580Y-101748214D01*
X127039580Y-101748214D02*
X126944342Y-101700595D01*
X126944342Y-101700595D02*
X126706247Y-101700595D01*
X126706247Y-101700595D02*
X126611009Y-101748214D01*
X126611009Y-101748214D02*
X126563390Y-101795833D01*
X126563390Y-101795833D02*
X126515771Y-101891071D01*
X126515771Y-101891071D02*
X126515771Y-102081547D01*
X126515771Y-102081547D02*
X126563390Y-102176785D01*
X126563390Y-102176785D02*
X126611009Y-102224404D01*
X126611009Y-102224404D02*
X126706247Y-102272023D01*
X125319642Y-94679580D02*
X125272023Y-94727200D01*
X125272023Y-94727200D02*
X125129166Y-94774819D01*
X125129166Y-94774819D02*
X125033928Y-94774819D01*
X125033928Y-94774819D02*
X124891071Y-94727200D01*
X124891071Y-94727200D02*
X124795833Y-94631961D01*
X124795833Y-94631961D02*
X124748214Y-94536723D01*
X124748214Y-94536723D02*
X124700595Y-94346247D01*
X124700595Y-94346247D02*
X124700595Y-94203390D01*
X124700595Y-94203390D02*
X124748214Y-94012914D01*
X124748214Y-94012914D02*
X124795833Y-93917676D01*
X124795833Y-93917676D02*
X124891071Y-93822438D01*
X124891071Y-93822438D02*
X125033928Y-93774819D01*
X125033928Y-93774819D02*
X125129166Y-93774819D01*
X125129166Y-93774819D02*
X125272023Y-93822438D01*
X125272023Y-93822438D02*
X125319642Y-93870057D01*
X126272023Y-94774819D02*
X125700595Y-94774819D01*
X125986309Y-94774819D02*
X125986309Y-93774819D01*
X125986309Y-93774819D02*
X125891071Y-93917676D01*
X125891071Y-93917676D02*
X125795833Y-94012914D01*
X125795833Y-94012914D02*
X125700595Y-94060533D01*
X127176785Y-93774819D02*
X126700595Y-93774819D01*
X126700595Y-93774819D02*
X126652976Y-94251009D01*
X126652976Y-94251009D02*
X126700595Y-94203390D01*
X126700595Y-94203390D02*
X126795833Y-94155771D01*
X126795833Y-94155771D02*
X127033928Y-94155771D01*
X127033928Y-94155771D02*
X127129166Y-94203390D01*
X127129166Y-94203390D02*
X127176785Y-94251009D01*
X127176785Y-94251009D02*
X127224404Y-94346247D01*
X127224404Y-94346247D02*
X127224404Y-94584342D01*
X127224404Y-94584342D02*
X127176785Y-94679580D01*
X127176785Y-94679580D02*
X127129166Y-94727200D01*
X127129166Y-94727200D02*
X127033928Y-94774819D01*
X127033928Y-94774819D02*
X126795833Y-94774819D01*
X126795833Y-94774819D02*
X126700595Y-94727200D01*
X126700595Y-94727200D02*
X126652976Y-94679580D01*
X114039580Y-100166666D02*
X114087200Y-100214285D01*
X114087200Y-100214285D02*
X114134819Y-100357142D01*
X114134819Y-100357142D02*
X114134819Y-100452380D01*
X114134819Y-100452380D02*
X114087200Y-100595237D01*
X114087200Y-100595237D02*
X113991961Y-100690475D01*
X113991961Y-100690475D02*
X113896723Y-100738094D01*
X113896723Y-100738094D02*
X113706247Y-100785713D01*
X113706247Y-100785713D02*
X113563390Y-100785713D01*
X113563390Y-100785713D02*
X113372914Y-100738094D01*
X113372914Y-100738094D02*
X113277676Y-100690475D01*
X113277676Y-100690475D02*
X113182438Y-100595237D01*
X113182438Y-100595237D02*
X113134819Y-100452380D01*
X113134819Y-100452380D02*
X113134819Y-100357142D01*
X113134819Y-100357142D02*
X113182438Y-100214285D01*
X113182438Y-100214285D02*
X113230057Y-100166666D01*
X113134819Y-99833332D02*
X113134819Y-99166666D01*
X113134819Y-99166666D02*
X114134819Y-99595237D01*
X102679580Y-106066666D02*
X102727200Y-106114285D01*
X102727200Y-106114285D02*
X102774819Y-106257142D01*
X102774819Y-106257142D02*
X102774819Y-106352380D01*
X102774819Y-106352380D02*
X102727200Y-106495237D01*
X102727200Y-106495237D02*
X102631961Y-106590475D01*
X102631961Y-106590475D02*
X102536723Y-106638094D01*
X102536723Y-106638094D02*
X102346247Y-106685713D01*
X102346247Y-106685713D02*
X102203390Y-106685713D01*
X102203390Y-106685713D02*
X102012914Y-106638094D01*
X102012914Y-106638094D02*
X101917676Y-106590475D01*
X101917676Y-106590475D02*
X101822438Y-106495237D01*
X101822438Y-106495237D02*
X101774819Y-106352380D01*
X101774819Y-106352380D02*
X101774819Y-106257142D01*
X101774819Y-106257142D02*
X101822438Y-106114285D01*
X101822438Y-106114285D02*
X101870057Y-106066666D01*
X101870057Y-105685713D02*
X101822438Y-105638094D01*
X101822438Y-105638094D02*
X101774819Y-105542856D01*
X101774819Y-105542856D02*
X101774819Y-105304761D01*
X101774819Y-105304761D02*
X101822438Y-105209523D01*
X101822438Y-105209523D02*
X101870057Y-105161904D01*
X101870057Y-105161904D02*
X101965295Y-105114285D01*
X101965295Y-105114285D02*
X102060533Y-105114285D01*
X102060533Y-105114285D02*
X102203390Y-105161904D01*
X102203390Y-105161904D02*
X102774819Y-105733332D01*
X102774819Y-105733332D02*
X102774819Y-105114285D01*
D11*
%TO.C,Y1*%
X99300000Y-92450000D02*
X99300000Y-97550000D01*
X99300000Y-97550000D02*
X111900000Y-97550000D01*
X111900000Y-92450000D02*
X99300000Y-92450000D01*
%TO.C,C8*%
X123261252Y-105265000D02*
X122738748Y-105265000D01*
X123261252Y-106735000D02*
X122738748Y-106735000D01*
%TO.C,R2*%
X117265000Y-100227064D02*
X117265000Y-99772936D01*
X118735000Y-100227064D02*
X118735000Y-99772936D01*
%TO.C,C11*%
X121265000Y-100738748D02*
X121265000Y-101261252D01*
X122735000Y-100738748D02*
X122735000Y-101261252D01*
%TO.C,R5*%
X132772936Y-104265000D02*
X133227064Y-104265000D01*
X132772936Y-105735000D02*
X133227064Y-105735000D01*
%TO.C,D1*%
X118710000Y-84764000D02*
X118710000Y-84920000D01*
X118710000Y-87080000D02*
X118710000Y-87236000D01*
X118710000Y-84764484D02*
G75*
G02*
X121941397Y-84919939I1560000J-1235516D01*
G01*
X119229039Y-84920000D02*
G75*
G02*
X121310910Y-84919951I1040961J-1080000D01*
G01*
X121310910Y-87080049D02*
G75*
G02*
X119229039Y-87080000I-1040910J1080049D01*
G01*
X121941397Y-87080061D02*
G75*
G02*
X118710000Y-87235516I-1671397J1080061D01*
G01*
%TO.C,C13*%
X103265000Y-90298752D02*
X103265000Y-89776248D01*
X104735000Y-90298752D02*
X104735000Y-89776248D01*
%TO.C,REF\u002A\u002A*%
X100950000Y-86000000D02*
G75*
G02*
X99050000Y-86000000I-950000J0D01*
G01*
X99050000Y-86000000D02*
G75*
G02*
X100950000Y-86000000I950000J0D01*
G01*
%TO.C,C10*%
X126223752Y-92265000D02*
X125701248Y-92265000D01*
X126223752Y-93735000D02*
X125701248Y-93735000D01*
%TO.C,REF\u002A\u002A*%
X100950000Y-83000000D02*
G75*
G02*
X99050000Y-83000000I-950000J0D01*
G01*
X99050000Y-83000000D02*
G75*
G02*
X100950000Y-83000000I950000J0D01*
G01*
%TO.C,C5*%
X107265000Y-99738748D02*
X107265000Y-100261252D01*
X108735000Y-99738748D02*
X108735000Y-100261252D01*
%TO.C,R1*%
X132772936Y-83265000D02*
X133227064Y-83265000D01*
X132772936Y-84735000D02*
X133227064Y-84735000D01*
%TO.C,J1*%
X117315001Y-109695000D02*
X117315000Y-109000000D01*
X118000000Y-109695000D02*
X117315001Y-109695000D01*
X118684999Y-108305000D02*
X121560000Y-108304999D01*
X118684999Y-108391724D02*
X118684999Y-108305000D01*
X118684999Y-109695000D02*
X118685000Y-109608275D01*
X118684999Y-109695000D02*
X121559999Y-109695000D01*
X121559999Y-109695000D02*
X121560000Y-109394493D01*
X121560000Y-108605507D02*
X121560000Y-108304999D01*
D12*
%TO.C,U1*%
X115500000Y-90500000D02*
X115500000Y-90800000D01*
X115500000Y-90500000D02*
X115800000Y-90500000D01*
X115500000Y-97500000D02*
X115500000Y-97200000D01*
X115500000Y-97500000D02*
X115800000Y-97500000D01*
X122500000Y-90500000D02*
X122200000Y-90500000D01*
X122500000Y-90500000D02*
X122500000Y-90800000D01*
X122500000Y-97500000D02*
X122200000Y-97500000D01*
X122500000Y-97500000D02*
X122500000Y-97200000D01*
D13*
X114600000Y-91250000D02*
G75*
G02*
X114400000Y-91250000I-100000J0D01*
G01*
X114400000Y-91250000D02*
G75*
G02*
X114600000Y-91250000I100000J0D01*
G01*
D11*
%TO.C,SW1*%
X130100000Y-92900000D02*
X130100000Y-94900000D01*
X131150000Y-91600000D02*
X131600000Y-91150000D01*
X131150000Y-96200000D02*
X131600000Y-96650000D01*
X131600000Y-91150000D02*
X134100000Y-91150000D01*
X131600000Y-96650000D02*
X134100000Y-96650000D01*
X134550000Y-91600000D02*
X134100000Y-91150000D01*
X134550000Y-96200000D02*
X134100000Y-96650000D01*
X135600000Y-92900000D02*
X135600000Y-94900000D01*
%TO.C,R10*%
X113265000Y-99772936D02*
X113265000Y-100227064D01*
X114735000Y-99772936D02*
X114735000Y-100227064D01*
%TO.C,REF\u002A\u002A*%
X103950000Y-86000000D02*
G75*
G02*
X102050000Y-86000000I-950000J0D01*
G01*
X102050000Y-86000000D02*
G75*
G02*
X103950000Y-86000000I950000J0D01*
G01*
%TO.C,J4*%
X105315001Y-110695000D02*
X105315000Y-110000000D01*
X106000000Y-110695000D02*
X105315001Y-110695000D01*
X106684999Y-109305000D02*
X109560000Y-109304999D01*
X106684999Y-109391724D02*
X106684999Y-109305000D01*
X106684999Y-110695000D02*
X106685000Y-110608275D01*
X106684999Y-110695000D02*
X109559999Y-110695000D01*
X109559999Y-110695000D02*
X109560000Y-110394493D01*
X109560000Y-109605507D02*
X109560000Y-109304999D01*
D12*
%TO.C,U3*%
X124500000Y-97750000D02*
X125010000Y-97750000D01*
X124500000Y-100250000D02*
X125010000Y-100250000D01*
X126990000Y-97750000D02*
X127500000Y-97750000D01*
X127500000Y-100250000D02*
X126990000Y-100250000D01*
D13*
X124100000Y-98200000D02*
G75*
G02*
X123900000Y-98200000I-100000J0D01*
G01*
X123900000Y-98200000D02*
G75*
G02*
X124100000Y-98200000I100000J0D01*
G01*
D11*
%TO.C,SW2*%
X130250000Y-99000000D02*
X130250000Y-101000000D01*
X131300000Y-97700000D02*
X131750000Y-97250000D01*
X131300000Y-102300000D02*
X131750000Y-102750000D01*
X131750000Y-97250000D02*
X134250000Y-97250000D01*
X131750000Y-102750000D02*
X134250000Y-102750000D01*
X134700000Y-97700000D02*
X134250000Y-97250000D01*
X134700000Y-102300000D02*
X134250000Y-102750000D01*
X135750000Y-99000000D02*
X135750000Y-101000000D01*
%TO.C,C1*%
X112265000Y-105738748D02*
X112265000Y-106261252D01*
X113735000Y-105738748D02*
X113735000Y-106261252D01*
%TO.C,J6*%
X125315001Y-110695000D02*
X125315000Y-110000000D01*
X126000000Y-110695000D02*
X125315001Y-110695000D01*
X126684999Y-109305000D02*
X129560000Y-109304999D01*
X126684999Y-109391724D02*
X126684999Y-109305000D01*
X126684999Y-110695000D02*
X126685000Y-110608275D01*
X126684999Y-110695000D02*
X129559999Y-110695000D01*
X129559999Y-110695000D02*
X129560000Y-110394493D01*
X129560000Y-109605507D02*
X129560000Y-109304999D01*
%TO.C,R9*%
X115265000Y-100227064D02*
X115265000Y-99772936D01*
X116735000Y-100227064D02*
X116735000Y-99772936D01*
%TO.C,R4*%
X99265000Y-106227064D02*
X99265000Y-105772936D01*
X100735000Y-106227064D02*
X100735000Y-105772936D01*
%TO.C,C17*%
X131265000Y-107738748D02*
X131265000Y-108261252D01*
X132735000Y-107738748D02*
X132735000Y-108261252D01*
%TO.C,L1*%
X108772936Y-90265000D02*
X109227064Y-90265000D01*
X108772936Y-91735000D02*
X109227064Y-91735000D01*
%TO.C,C12*%
X119265000Y-100738748D02*
X119265000Y-101261252D01*
X120735000Y-100738748D02*
X120735000Y-101261252D01*
%TO.C,R5*%
X111265000Y-85227064D02*
X111265000Y-84772936D01*
X112735000Y-85227064D02*
X112735000Y-84772936D01*
%TO.C,R6*%
X111772936Y-102265000D02*
X112227064Y-102265000D01*
X111772936Y-103735000D02*
X112227064Y-103735000D01*
%TO.C,C11*%
X123265000Y-86261252D02*
X123265000Y-85738748D01*
X124735000Y-86261252D02*
X124735000Y-85738748D01*
%TO.C,C6*%
X109265000Y-99738748D02*
X109265000Y-100261252D01*
X110735000Y-99738748D02*
X110735000Y-100261252D01*
%TO.C,C11*%
X115265000Y-87223752D02*
X115265000Y-86701248D01*
X116735000Y-87223752D02*
X116735000Y-86701248D01*
%TO.C,J3*%
X110315001Y-110695000D02*
X110315000Y-110000000D01*
X111000000Y-110695000D02*
X110315001Y-110695000D01*
X111684999Y-109305000D02*
X112560000Y-109305000D01*
X111684999Y-109391724D02*
X111684999Y-109305000D01*
X111684999Y-110695000D02*
X111685000Y-110608275D01*
X111684999Y-110695000D02*
X112560000Y-110695000D01*
X112560000Y-109605507D02*
X112560000Y-109305000D01*
X112560000Y-110695000D02*
X112560000Y-110394493D01*
%TO.C,C11*%
X112265000Y-90261252D02*
X112265000Y-89738748D01*
X113735000Y-90261252D02*
X113735000Y-89738748D01*
%TO.C,REF\u002A\u002A*%
X103950000Y-83000000D02*
G75*
G02*
X102050000Y-83000000I-950000J0D01*
G01*
X102050000Y-83000000D02*
G75*
G02*
X103950000Y-83000000I950000J0D01*
G01*
%TO.C,U2*%
X102000000Y-98440000D02*
X101200000Y-98440000D01*
X102000000Y-98440000D02*
X102800000Y-98440000D01*
X102000000Y-101560000D02*
X101200000Y-101560000D01*
X102000000Y-101560000D02*
X102800000Y-101560000D01*
X100700000Y-98490000D02*
X100460000Y-98160000D01*
X100940000Y-98160000D01*
X100700000Y-98490000D01*
G36*
X100700000Y-98490000D02*
G01*
X100460000Y-98160000D01*
X100940000Y-98160000D01*
X100700000Y-98490000D01*
G37*
%TO.C,R3*%
X101265000Y-106227064D02*
X101265000Y-105772936D01*
X102735000Y-106227064D02*
X102735000Y-105772936D01*
%TO.C,C14*%
X101265000Y-90261252D02*
X101265000Y-89738748D01*
X102735000Y-90261252D02*
X102735000Y-89738748D01*
%TO.C,C4*%
X105265000Y-99776248D02*
X105265000Y-100298752D01*
X106735000Y-99776248D02*
X106735000Y-100298752D01*
%TO.C,C9*%
X116701248Y-102265000D02*
X117223752Y-102265000D01*
X116701248Y-103735000D02*
X117223752Y-103735000D01*
%TO.C,D2*%
X132170000Y-86764000D02*
X132170000Y-86920000D01*
X132170000Y-89080000D02*
X132170000Y-89236000D01*
X132170000Y-86764484D02*
G75*
G02*
X135401397Y-86919939I1560000J-1235516D01*
G01*
X132689039Y-86920000D02*
G75*
G02*
X134770910Y-86919951I1040961J-1080000D01*
G01*
X134770910Y-89080049D02*
G75*
G02*
X132689039Y-89080000I-1040910J1080049D01*
G01*
X135401397Y-89080061D02*
G75*
G02*
X132170000Y-89235516I-1671397J1080061D01*
G01*
%TO.C,C16*%
X124265000Y-102701248D02*
X124265000Y-103223752D01*
X125735000Y-102701248D02*
X125735000Y-103223752D01*
%TO.C,C15*%
X125701248Y-95265000D02*
X126223752Y-95265000D01*
X125701248Y-96735000D02*
X126223752Y-96735000D01*
%TO.C,C7*%
X111265000Y-99738748D02*
X111265000Y-100261252D01*
X112735000Y-99738748D02*
X112735000Y-100261252D01*
%TO.C,C2*%
X103265000Y-106161252D02*
X103265000Y-105638748D01*
X104735000Y-106161252D02*
X104735000Y-105638748D01*
%TO.C,J2*%
X99315001Y-109695000D02*
X99315000Y-109000000D01*
X100000000Y-109695000D02*
X99315001Y-109695000D01*
X100684999Y-108305000D02*
X103560000Y-108304999D01*
X100684999Y-108391724D02*
X100684999Y-108305000D01*
X100684999Y-109695000D02*
X100685000Y-109608275D01*
X100684999Y-109695000D02*
X103559999Y-109695000D01*
X103559999Y-109695000D02*
X103560000Y-109394493D01*
X103560000Y-108605507D02*
X103560000Y-108304999D01*
%TD*%
M02*
