%TF.GenerationSoftware,KiCad,Pcbnew,8.0.8*%
%TF.CreationDate,2025-07-31T23:02:19+05:30*%
%TF.ProjectId,THRUST FC,54485255-5354-4204-9643-2e6b69636164,rev?*%
%TF.SameCoordinates,Original*%
%TF.FileFunction,Copper,L2,Inr*%
%TF.FilePolarity,Positive*%
%FSLAX46Y46*%
G04 Gerber Fmt 4.6, Leading zero omitted, Abs format (unit mm)*
G04 Created by KiCad (PCBNEW 8.0.8) date 2025-07-31 23:02:19*
%MOMM*%
%LPD*%
G01*
G04 APERTURE LIST*
%TA.AperFunction,ComponentPad*%
%ADD10R,1.800000X1.800000*%
%TD*%
%TA.AperFunction,ComponentPad*%
%ADD11C,1.800000*%
%TD*%
%TA.AperFunction,ComponentPad*%
%ADD12R,0.850000X0.850000*%
%TD*%
%TA.AperFunction,ComponentPad*%
%ADD13O,0.850000X0.850000*%
%TD*%
%TA.AperFunction,ViaPad*%
%ADD14C,0.400000*%
%TD*%
%TA.AperFunction,ViaPad*%
%ADD15C,0.600000*%
%TD*%
%TA.AperFunction,Conductor*%
%ADD16C,0.200000*%
%TD*%
G04 APERTURE END LIST*
D10*
%TO.N,PC13*%
%TO.C,D1*%
X119000000Y-86000000D03*
D11*
%TO.N,VDD*%
X121540000Y-86000000D03*
%TD*%
D12*
%TO.N,GND*%
%TO.C,J1*%
X118000000Y-109000000D03*
D13*
%TO.N,SWCLK*%
X119000000Y-109000000D03*
%TO.N,SWDIO*%
X120000000Y-109000000D03*
%TO.N,VDD*%
X121000000Y-109000000D03*
%TD*%
D12*
%TO.N,M4*%
%TO.C,J4*%
X106000000Y-110000000D03*
D13*
%TO.N,M3*%
X107000000Y-110000000D03*
%TO.N,M2*%
X108000000Y-110000000D03*
%TO.N,M1*%
X109000000Y-110000000D03*
%TD*%
D12*
%TO.N,SCL*%
%TO.C,J6*%
X126000000Y-110000000D03*
D13*
%TO.N,VDD*%
X127000000Y-110000000D03*
%TO.N,GND*%
X128000000Y-110000000D03*
%TO.N,SDA*%
X129000000Y-110000000D03*
%TD*%
D12*
%TO.N,+5V*%
%TO.C,J3*%
X111000000Y-110000000D03*
D13*
%TO.N,GND*%
X112000000Y-110000000D03*
%TD*%
D10*
%TO.N,GND*%
%TO.C,D2*%
X132460000Y-88000000D03*
D11*
%TO.N,VDD*%
X135000000Y-88000000D03*
%TD*%
D12*
%TO.N,+5V*%
%TO.C,J2*%
X100000000Y-109000000D03*
D13*
%TO.N,D-*%
X101000000Y-109000000D03*
%TO.N,D+*%
X102000000Y-109000000D03*
%TO.N,GND*%
X103000000Y-109000000D03*
%TD*%
D14*
%TO.N,VDD*%
X125000000Y-88000000D03*
X103831801Y-97831801D03*
X111000000Y-92350001D03*
%TO.N,ADC*%
X116000000Y-99000000D03*
%TO.N,GND*%
X128450000Y-94616115D03*
X126888909Y-96111092D03*
%TO.N,M3*%
X125000000Y-90550001D03*
D15*
%TO.N,GND*%
X110200000Y-101037500D03*
%TO.N,+5V*%
X122600000Y-106307108D03*
X116000000Y-101000000D03*
%TO.N,VREF+*%
X107327817Y-95750001D03*
X110168870Y-97925000D03*
%TO.N,NRST*%
X133000000Y-100000000D03*
D14*
X115565000Y-94250000D03*
D15*
%TO.N,VDD*%
X129000002Y-89000000D03*
X118000000Y-103000000D03*
X118000000Y-105000000D03*
X115000000Y-106000000D03*
D14*
%TO.N,ADC*%
X124000000Y-96000000D03*
%TO.N,PC13*%
X114000000Y-92350001D03*
D15*
%TO.N,M4*%
X116850000Y-89616473D03*
D14*
%TO.N,SCL*%
X119235002Y-90849998D03*
D15*
%TO.N,BOOT0*%
X122000000Y-88600000D03*
D14*
X125000000Y-88550000D03*
D15*
%TO.N,PA12*%
X102991206Y-103991206D03*
D14*
X123148669Y-97700221D03*
X122435000Y-92750000D03*
D15*
X122409744Y-104112500D03*
%TO.N,PA11*%
X109900000Y-102725425D03*
D14*
X122150000Y-93235002D03*
%TO.N,Net-(U3-INT2{slash}FSYNC{slash}CLKIN)*%
X115144975Y-104512500D03*
X126328237Y-99250000D03*
D15*
%TO.N,PA2*%
X115600000Y-96885002D03*
D14*
%TO.N,PB13*%
X123173666Y-96450000D03*
%TO.N,PB15*%
X123131436Y-95200000D03*
%TO.N,SWCLK*%
X121750000Y-90565000D03*
%TO.N,SWDIO*%
X122715000Y-92235002D03*
%TO.N,M2*%
X126062500Y-95950003D03*
D15*
%TO.N,M1*%
X124000000Y-95000000D03*
D14*
%TO.N,SDA*%
X118752513Y-90567513D03*
%TO.N,PA5*%
X125890692Y-98916746D03*
X117235002Y-97800221D03*
%TO.N,PA6*%
X117750000Y-97435000D03*
D15*
X124000000Y-99000000D03*
D14*
%TO.N,PA4*%
X126525000Y-98085000D03*
X116750000Y-97435000D03*
D15*
%TO.N,PA7*%
X124079312Y-97650221D03*
D14*
X118235002Y-97800221D03*
%TO.N,PA3*%
X113000000Y-95000000D03*
X114550000Y-98000000D03*
X104000000Y-87000000D03*
%TO.N,unconnected-(U1-PB12-Pad25)*%
X122552142Y-97685002D03*
X124000000Y-100450000D03*
%TO.N,VDD*%
X116000000Y-88000000D03*
%TD*%
D16*
%TO.N,PC13*%
X118332946Y-87000000D02*
X118332946Y-86667054D01*
X118332946Y-86667054D02*
X119000000Y-86000000D01*
%TO.N,ADC*%
X115815000Y-96000000D02*
X116150000Y-96335000D01*
X116150000Y-98850000D02*
X116000000Y-99000000D01*
X116150000Y-96335000D02*
X116150000Y-98850000D01*
%TO.N,M1*%
X115000000Y-96000000D02*
X115000000Y-95000000D01*
X115000000Y-95000000D02*
X115400000Y-95400000D01*
X118600000Y-95400000D02*
X118850000Y-95650000D01*
X115400000Y-95400000D02*
X118600000Y-95400000D01*
X118850000Y-95650000D02*
X123350000Y-95650000D01*
X123350000Y-95650000D02*
X124000000Y-95000000D01*
X115000000Y-96000000D02*
X115000000Y-95749314D01*
X115000000Y-104000000D02*
X115000000Y-96000000D01*
%TO.N,M3*%
X107000000Y-110000000D02*
X107000000Y-109000000D01*
X116533628Y-92150000D02*
X119483628Y-89200000D01*
X123200000Y-89200000D02*
X124550001Y-90550001D01*
X105000000Y-107000000D02*
X105000000Y-102151471D01*
X107000000Y-109000000D02*
X105000000Y-107000000D01*
X105000000Y-102151471D02*
X115001471Y-92150000D01*
X115001471Y-92150000D02*
X116533628Y-92150000D01*
X124550001Y-90550001D02*
X125000000Y-90550001D01*
X119483628Y-89200000D02*
X123200000Y-89200000D01*
%TO.N,+5V*%
X111000000Y-110000000D02*
X111000000Y-109375000D01*
X117950000Y-110400000D02*
X121600000Y-110400000D01*
X116000000Y-108000000D02*
X116000000Y-108450000D01*
X122600000Y-106600000D02*
X122600000Y-106307108D01*
X124000000Y-108000000D02*
X122600000Y-106600000D01*
X116000000Y-101000000D02*
X116000000Y-108000000D01*
X112375000Y-108000000D02*
X116000000Y-108000000D01*
X111000000Y-109375000D02*
X112375000Y-108000000D01*
X116000000Y-108450000D02*
X117950000Y-110400000D01*
X121600000Y-110400000D02*
X124000000Y-108000000D01*
%TO.N,VDD*%
X118000000Y-103000000D02*
X118000000Y-105000000D01*
%TO.N,ADC*%
X124000000Y-96000000D02*
X115815000Y-96000000D01*
%TO.N,PC13*%
X118332946Y-87000000D02*
X114000000Y-91332946D01*
X114000000Y-91332946D02*
X114000000Y-92350001D01*
%TO.N,SCL*%
X128722917Y-96157231D02*
X128722917Y-99842769D01*
X125000000Y-109000000D02*
X126000000Y-110000000D01*
X122565686Y-90000000D02*
X128722917Y-96157231D01*
X128722917Y-99842769D02*
X125000000Y-103565686D01*
X119815000Y-90000000D02*
X122565686Y-90000000D01*
X119815000Y-90000000D02*
X119235002Y-90579998D01*
X119235002Y-90579998D02*
X119235002Y-90849998D01*
X125000000Y-103565686D02*
X125000000Y-109000000D01*
%TO.N,PA12*%
X123187870Y-92350000D02*
X123165000Y-92350000D01*
X123165000Y-92350000D02*
X123165000Y-92421399D01*
X122836399Y-92750000D02*
X122435000Y-92750000D01*
X123165000Y-92421399D02*
X122836399Y-92750000D01*
X123148669Y-97699860D02*
X124600000Y-96248529D01*
X123148669Y-97700221D02*
X123148669Y-97699860D01*
X124600000Y-93762130D02*
X123187870Y-92350000D01*
X124600000Y-96248529D02*
X124600000Y-93762130D01*
%TO.N,SWCLK*%
X122565000Y-90565000D02*
X128322917Y-96322917D01*
X122565000Y-90565000D02*
X121750000Y-90565000D01*
X128322917Y-99677083D02*
X122000000Y-106000000D01*
X119398960Y-110000000D02*
X119000000Y-109601040D01*
X122000000Y-106000000D02*
X122000000Y-109025305D01*
X121025305Y-110000000D02*
X119398960Y-110000000D01*
X128322917Y-96322917D02*
X128322917Y-99677083D01*
X119000000Y-109601040D02*
X119000000Y-109000000D01*
X122000000Y-109025305D02*
X121025305Y-110000000D01*
%TO.N,SWDIO*%
X120000000Y-107434314D02*
X127922917Y-99511397D01*
X127922917Y-99511397D02*
X127922917Y-96508702D01*
X120000000Y-109000000D02*
X120000000Y-107434314D01*
X122950002Y-92000000D02*
X122715000Y-92235002D01*
X123414215Y-92000000D02*
X122950002Y-92000000D01*
X127922917Y-96508702D02*
X123414215Y-92000000D01*
%TO.N,M2*%
X108000000Y-110000000D02*
X108275000Y-109725000D01*
X108275000Y-109725000D02*
X108275000Y-109699695D01*
%TO.N,M1*%
X109000000Y-110000000D02*
X115000000Y-104000000D01*
%TO.N,SDA*%
X131000000Y-108000000D02*
X129000000Y-110000000D01*
X122731372Y-89600000D02*
X129122917Y-95991545D01*
X119649314Y-89670712D02*
X118752513Y-90567513D01*
X131000000Y-105000000D02*
X131000000Y-108000000D01*
X119649314Y-89600000D02*
X119649314Y-89670712D01*
X129122917Y-95991545D02*
X129122917Y-103122917D01*
X129122917Y-103122917D02*
X131000000Y-105000000D01*
X119649314Y-89600000D02*
X122731372Y-89600000D01*
%TO.N,PA5*%
X125207438Y-99600000D02*
X125890692Y-98916746D01*
X117440027Y-99600000D02*
X125207438Y-99600000D01*
X117235002Y-97800221D02*
X117235002Y-99394975D01*
X117235002Y-99394975D02*
X117440027Y-99600000D01*
%TO.N,PA6*%
X117585002Y-98414998D02*
X117585002Y-99250000D01*
X117750000Y-98250000D02*
X117750000Y-97435000D01*
X124000000Y-99000000D02*
X123750000Y-99250000D01*
X123750000Y-99250000D02*
X117585002Y-99250000D01*
X117750000Y-98250000D02*
X117585002Y-98414998D01*
%TO.N,PA4*%
X126939340Y-100000000D02*
X117000000Y-100000000D01*
X117000000Y-100000000D02*
X116750000Y-99750000D01*
X126525000Y-98085000D02*
X127000000Y-98560000D01*
X116750000Y-99750000D02*
X116750000Y-97435000D01*
X127000000Y-98560000D02*
X127000000Y-99939340D01*
X127000000Y-99939340D02*
X126939340Y-100000000D01*
%TO.N,PA7*%
X123129533Y-98600000D02*
X118315686Y-98600000D01*
X118315686Y-97880905D02*
X118235002Y-97800221D01*
X124079312Y-97650221D02*
X123129533Y-98600000D01*
X118315686Y-98600000D02*
X118315686Y-97880905D01*
%TO.N,PA3*%
X113000000Y-96450000D02*
X114550000Y-98000000D01*
X113000000Y-95000000D02*
X113000000Y-96450000D01*
%TD*%
M02*
